<svg xmlns="http://www.w3.org/2000/svg" width="1800" height="1016"><path fill="#010101" d="M908.34 38.93c12.042 3.064 12.042 3.064 24.222 1.695 21.68-5.792 46.484-3.74 68.002 2.018C1029.327 50.869 1053.74 67.157 1075 88l2.477 2.36c5.669 5.493 10.647 11.44 15.523 17.64l1.898 2.371 1.664 2.129 1.442 1.844L1099 116v3l2.121.727c10.917 4.829 21.912 15.462 29.145 24.93 2.824 3.97 5.319 8.114 7.734 12.343l1.062 1.84C1152 181.497 1152 181.497 1152 189h2c-1.39-16.757-4.632-31.099-14.152-45.203-4.26-5.921-9.462-10.911-14.848-15.797h3a71 71 0 0 1 5.625 5.125l1.608 1.625c9.431 9.853 15.936 21.584 19.767 34.664 2.786 11.618 2.182 23.187.309 34.922-.576 3.471-.576 3.471.554 5.738l1.45 1.614 1.683 2.003L1161 216c9.695 11.986 18.937 24.371 21.687 39.875q.19 2.06.313 4.125l.16 2.383c.33 9.614-1.153 20.197-4.848 29.117-1.225 3.268-1.803 5.923-1.68 9.422.572 3.232 1.911 5.993 3.395 8.902 4.165 9.317 2.714 22.258 1.973 32.176-.868 5.317-2.765 10.113-5 15l-1.281 3.148c-3.66 8.278-9.131 14.742-15.719 20.852-2.336 1.336-2.336 1.336-4 2l2.562-2.875c10.1-11.949 16.9-25.386 20.004-40.812 1.408-10.756.891-20.96-2.566-31.313l-1-2h-2c-1.696 5.102-2.13 9.063-1.875 14.5.2 9.201-1.242 17.85-5.48 26.156-2.427 3.8-5.251 7.005-8.333 10.282-2.65 2.91-3.82 5.119-4.75 8.937-1.57 6.264-5.194 10.486-9.562 15.125-2.263 2.135-4.557 4.066-7 6l-2-1 1.723-1.73c6.273-6.588 10.322-13.156 14.277-21.27-5 2.13-8.224 4.97-11.75 9l-1.552 1.732a868 868 0 0 0-3.152 3.537 308 308 0 0 1-4.476 4.891l-2.695 2.903-2.414 2.597c-2.453 2.917-2.453 2.917-3.961 6.34-.342 5.643.357 10.683 1.625 16.188l1.09 4.98.613 2.771c1.32 6.013 2.592 12.036 3.86 18.061l.793 3.684c4.82 22.93 4.227 45.911-2.981 68.316-12.28 36.877-28.577 70.588-53 101l-2.074 2.621c-4.462 5.619-9.005 11.17-13.561 16.712-1.548 1.891-3.087 3.789-4.627 5.687-13.484 16.578-25.328 30.863-45.738 38.98-2.676.838-5.245 1.46-8 2l.035 1.914c.068 6.715-.363 13.247-1.11 19.922-.124 3.168-.124 3.168 1.243 5.844 2.055 2.603 4.092 4.206 6.832 6.07 29.27 20.555 51.511 48.407 68.528 79.682 2.476 4.406 5.08 7.914 9.472 10.568 4.154 2.024 8.403 3.77 12.687 5.5q3.383 1.389 6.762 2.781l3.344 1.373c3.893 1.634 7.721 3.39 11.556 5.154 4.414 1.985 8.909 3.767 13.401 5.567 7.681 3.109 15.226 6.384 22.7 9.96 3.064 1.437 6.144 2.774 9.265 4.082 14.788 6.244 29.522 13.502 41.285 24.583l2.902 2.664c8.107 7.638 14.767 16.198 21.098 25.336l1.516 2.183c25.121 36.701 36.979 82.458 44.484 125.817v2H443c5.853-24.388 11.945-47.215 22-70l1.184-2.696C473.729 926.312 482.773 910.101 495 896l1.773-2.242c5.254-6.406 11.605-10.882 18.39-15.5 2.93-2.006 5.822-4.068 8.712-6.133l1.724-1.228c5.249-3.752 10.408-7.62 15.545-11.523a328 328 0 0 1 10.75-7.796c4.936-3.435 9.748-7.013 14.543-10.64 9.022-6.795 18.098-13.513 27.2-20.2q3.575-2.63 7.144-5.27a2593 2593 0 0 1 23.281-17.03l2.221-1.605q5.729-4.135 11.494-8.22C645.95 782.805 653.795 777.006 661 770l-.402-1.793q-.548-2.45-1.086-4.902a241 241 0 0 0-1.137-4.867c-.74-4.805-1.024-8.694.668-13.243 2.584-4.218 5.847-7.11 9.52-10.382 13.704-12.572 24.913-25.55 32.562-42.625 3.647-8.139 7.831-15.231 15.059-20.708 4.02-2.78 8.295-4.605 12.816-6.417l2.496-1.026c2.497-1.023 5-2.032 7.504-3.037l2.31-.93q4.935-1.986 9.881-3.941c2.704-1.042 2.704-1.042 4.809-2.129.476-3.097.476-3.097.625-6.812l.113-2.061c.565-11.116.11-22.042-.738-33.127-4.513 3.347-7.887 6.537-10.223 11.7-1.461 4.325-2.147 8.788-2.777 13.3h-1v-13q-1.473 2.404-2.938 4.813l-1.652 2.707c-2.223 3.91-2.64 7.238-2.973 11.668l-.253 3.292L734 649c-2-2-2-2-2.555-3.777-.69-4.65-.41-8.196 1.117-12.66 2.231-5.542 5.185-10.565 8.438-15.563-8.344 4.106-14.002 8.93-19.313 16.563-2.573 4.062-4.546 7.68-4.796 12.582-.014 1.952.042 3.904.109 5.855l-2-1c-.481-6.909-.078-12.866 2.566-19.316 6.533-12.23 19.926-20.583 30.98-28.465 1.74-1.342 1.74-1.342 3.454-4.219.167-3.125.167-3.125 0-6l-2-1c-1.775.643-3.52 1.369-5.25 2.125-6.208 2.478-12.422 4.148-18.938 5.625l-2.768.637c-17.172 3.782-36.057 4.604-53.044-.387-11.695-4.02-21.908-10.134-30.438-19.156-4.336-5.118-7.904-10.198-9.375-16.813-.187-2.031-.187-2.031.125-4.25.356-2.596.464-4.263-.312-6.781-2.693-2.402-5.534-4.132-8.633-5.977-12.442-7.476-22.233-18.095-29.578-30.53-7.885-15.392-9.555-31.794-8.941-48.864.546-9.427 1.936-19.016 6.62-27.344 3.414-5.094 7.193-9.946 11.532-14.285-.065-1.975-.065-1.975-1-4-1.588-1.87-1.588-1.87-3.563-3.75-5.744-6.18-8.938-13.665-12.437-21.25-2.98 4.47-3.803 9.161-4.173 14.493a205 205 0 0 0-.015 7.632l.002 2.59c.034 4.86.374 9.493 1.186 14.285-3.45-5.174-4.835-9.802-5.297-15.95-.277-9.534.395-18.778 4.461-27.566.988-2.425.988-2.425.7-4.87-1.126-3.407-2.877-6.347-4.677-9.426-8.838-15.819-9.678-33.382-9.468-51.145.243-7.806 1.747-14.657 4.281-22.043l1.098-3.254c3.88-10.3 10.437-19.658 18.902-26.746 2.555-1.87 5.096-3.718 8-5l2 1-1.871 1.328c-10.032 7.513-16.77 16.754-21.874 28.108-6.046 14.17-7.075 28.45-5.448 43.611 1.208 9.963 2.91 19.443 6.193 28.953l1 3 2 1-.438-2.402c-2.61-16.404-3.329-34.33.438-50.598l.625-2.793c3.056-12.31 8.138-24.22 16.648-33.754 3.122-3.173 6.02-6.005 9.79-8.39L610 277c.408-3.373.29-6.62 0-10l-2-1h2l.12-2.205c2.487-43.77 12.75-84.65 36.654-121.812C655.079 129.4 664.604 117.897 675 107l2.422-2.582C699.309 81.708 727.617 65.976 756 53l2.155-.989c46.997-21.174 100.54-25.763 150.184-13.08M1167 314c-2.208 1.463-2.208 1.463-4 4a76 76 0 0 0-1.438 8.313c-1.297 9.22-3.272 18.658-7.777 26.914L1153 355l1 3c7.146-7.547 10.86-14.336 13.406-24.406 1.51-6.592 1.716-12.868 1.594-19.594zM633 560c.184 4.976 1.008 8.565 3.437 12.938 5.605 8.68 13.534 14.605 22.485 19.562 16.222 7.905 33.35 8.613 51.078 7.5 6.165-.725 12.075-2.18 18-4l2.096-.632c6.074-1.87 6.074-1.87 11.904-4.368l1-3-2.68.048c-30.911.475-62.799-.626-90.57-15.994-3.498-2.107-6.623-4.588-9.672-7.292-2.228-1.889-4.542-3.321-7.078-4.762"/><path fill="#F6C7A6" d="M908 50c4.548-.284 8.344-.051 12.645 1.695 3.738 2.071 7.01 4.737 10.345 7.39C937.228 64.043 943.802 68.542 951 72v2l2.203.758c3.037 1.349 5.07 2.914 7.547 5.117l2.36 2.055C965 84 965 84 965.483 86.07L966 88c2.04 1.638 2.04 1.638 4.5 3 2.469 1.438 2.469 1.438 4.5 3 .37 1.324.709 2.657 1 4 2.996 1.305 2.996 1.305 6 2v2h-3l1.5 1.875L982 106v2l1.625.813L992 113l-1 2-7-1 2.25 1.25c2.652 1.687 4.617 3.459 6.75 5.75l-2 4 5 1v2l-3 1 6 3v3l-4 1c4.873 6.558 10.746 10.944 17.402 15.508q1.8 1.244 3.598 2.492l1.872 1.29c5.981 4.286 11 9.392 16.128 14.648 5.813 5.932 11.635 11.72 18 17.062l1.802 1.518c10.384 8.654 21.096 16.186 32.98 22.646l3.103 1.701a398 398 0 0 0 6.12 3.268c5.37 2.917 9.41 5.637 12.823 10.767 1.965 3.52 3.423 7.105 4.735 10.912l.881 2.5c10.619 30.755 14.15 64.311 8.023 96.489L1122 339h-2l-.7-1.758c-2.084-4.994-4.175-9.602-8.3-13.242-7.187-5.312-14.682-8.21-23.531-9.316-6.738-.33-12.383 1.54-18.469 4.316-5.27 2.904-9.397 7.045-13.73 11.172L1053 332h-3v-2c1.54-1.55 1.54-1.55 3.625-3.312l2.195-1.868c1.08-.9 1.08-.9 2.18-1.82l1.867-1.57c1.373-1.15 2.752-2.29 4.133-3.43-2.77.055-2.77.055-6 1-2.347 1.714-4.272 3.753-6.25 5.875l-1.602 1.645c-2.302 2.39-4.303 4.713-6.148 7.48h-2c1.345-4.042 3.05-6.387 6.125-9.312l2.195-2.114L1052 321l-2.687 1.938c-3.005 1.87-4.864 2.656-8.313 3.062v2l-3 1c-1.202 1.721-1.202 1.721-2.125 3.813l-1.008 2.082c-.833 2.022-1.397 3.972-1.867 6.105l2.902-.77c7.588-1.975 15.131-3.667 22.875-4.938 8.542-1.441 16.983-3.383 25.427-5.311 14.105-3.13 14.105-3.13 20.519-1.133 5.583 2.899 10.421 6.084 14.277 11.152v2h2c.323 7.92-.53 15.041-2.312 22.75l-.647 2.996c-1.205 5.39-2.666 10.266-5.041 15.254l-9 1 1-3 2.438-1.937c2.455-1.977 3.432-3.188 4.562-6.063l-1.5 1.438c-3.495 2.184-6.41 2.221-10.5 2.562v-3a263 263 0 0 1 5-4l1-3-3.25 2.063c-1.93 1.101-1.93 1.101-3.75 1.937-2.375-.062-2.375-.062-4-1l-1-3 8-5c-3.946.787-3.946.787-6.875 2.688L1092 366c-3.25-.687-3.25-.687-6-2l-2-2 4-1v-2l-2.57.992c-3.632 1.067-6.533 1.21-10.305 1.133l-3.492-.055L1069 361v-2c-11.198.967-21.746 5.777-30.996 12.023-2.422 1.912-4.72 3.903-7.004 5.977l-2.39 2c-4.846 4.107-9.542 8.361-12.61 14l-.437 2.75c1.257 2.335 1.257 2.335 3.355 3.406 3.908 1.833 7.777 3.288 12.082 3.844l1-2-3.625-.312c-3.937-.477-6.916-1.7-10.375-3.688 1.957-3.522 3.951-6.344 7-9h2l.805 2.047 1.07 2.703 1.055 2.672L1031 398l.902 2.25L1033 402c7.646 2.592 16.003 2.818 24 2 3.882-1.568 5.655-2.56 8.25-5.875 3.067-5.477 4.007-9.283 3.938-15.625l-.02-3.906c-.14-3.002-.468-5.682-1.168-8.594 3.27-.273 5.877-.382 9 .68 4.823 2.28 9.612 5.134 13 9.32.938 3.875.938 3.875 1 7h-2l.055 1.723c-.223 2.899-.656 4.704-2.055 7.277-6.977 4.936-15.634 8.345-24 10-3.625.188-3.625.188-6 0v2c16.022-1.618 16.022-1.618 31-7 3.338-3.171 5.066-6.842 7-11h6l-1-3q3.217-.54 6.438-1.062l3.62-.598L1113 385l1 1c.163 2.544.28 5.078.375 7.625.612 12.241 3.311 23.684 6.85 35.375 4.026 13.346 4.967 26.343 5.025 40.25.03 1.831.03 1.831.063 3.7.13 31.029-16.355 68.049-31.313 95.05-5.943 10.165-12.754 19.727-20 29l-1.28 1.642c-2.761 3.538-5.539 7.064-8.322 10.585a1385 1385 0 0 0-4.085 5.21 1239 1239 0 0 1-16.677 20.865 684 684 0 0 0-8.948 11.198c-7.433 9.267-15.385 16.188-26.188 21.25-18.922 7.347-43.889 5.861-63.625 3.063-51.278-8.176-106.06-33.102-146.758-65.223-8.543-7.01-16.435-14.599-23.692-22.933-1.104-1.253-2.26-2.46-3.425-3.657h-2v2l3 1a79 79 0 0 1 3.688 4.5c4.144 5.197 8.548 10.055 13.125 14.875l2.105 2.218 4.15 4.366a824 824 0 0 1 8.057 8.666l4.278 4.643 3.119 3.386c8.719 9.462 17.655 18.68 26.767 27.765q3.163 3.157 6.316 6.323l4.106 4.102 1.863 1.869c3.74 3.72 7.596 7.253 11.595 10.694 2.958 2.573 5.791 5.278 8.644 7.968 4.957 4.634 9.996 9.091 15.304 13.324a323 323 0 0 1 6.266 5.133c9.304 7.742 19.073 14.232 29.617 20.168l2.083 1.173c15.072 8.334 28.68 12.354 45.988 12.17 5.053-.126 9.945-.5 14.929-1.343.209 7.993-.406 15.668-1.46 23.586-.152 1.178-.302 2.355-.457 3.568q-.721 5.612-1.458 11.221c-4.457 33.107-4.457 33.107-5.75 66.438q.016 2.096.027 4.193.035 4.997.098 9.994h2l-1-3c-.196-13.736 1.542-27.301 3.438-40.875l.33-2.388q.48-3.428.978-6.854l.29-2.05c.702-4.71 1.756-9.234 2.964-13.833h2a7516 7516 0 0 1 3.438 7.813l.986 2.236.947 2.158.873 1.984c.658 1.574 1.216 3.19 1.756 4.809h2l-1.059-3.14-1.379-4.11-.697-2.066c-3.801-11.35-4.084-22.763-3.865-34.684h2c1.17 1.506 1.17 1.506 2.469 3.629l1.467 2.367 1.564 2.567q1.62 2.612 3.242 5.222l1.648 2.653c2.345 3.732 4.778 7.403 7.235 11.062l1.252 1.865q1.56 2.318 3.123 4.635c2 3 2 3 2.227 6.37q-.001 2.07-.032 4.142l-.008 2.206c-.011 2.324-.037 4.646-.062 6.97q-.016 2.364-.027 4.728A2346 2346 0 0 1 1016 829c-5.039 2.033-10.077 4.028-15.187 5.875-4.83 1.978-8.355 4.194-11.813 8.125-4.046 5.378-8.172 10.866-11 17h2l.746-1.664c3.466-6.456 8.637-12.53 14.567-16.836 5.106-3.102 10.779-4.739 16.687-5.5 1.342.296 2.678.623 4 1l-.007 3.93q-.03 18.55-.045 37.1-.007 9.53-.023 19.062c-.106 39.965-.106 39.965 1.075 79.908h-3c-1.128-1.427-1.128-1.427-2.207-3.453l-1.255-2.286-1.35-2.511c-9.03-16.156-19.896-30.859-31.76-45.034-2.05-2.463-4.047-4.968-6.053-7.466-4.897-5.966-10.062-11.655-15.375-17.25l-1.532-1.619c-6.396-6.71-12.99-12.796-20.364-18.42-5.678-4.337-10.867-9.1-16.104-13.961-7.674-6.932-15.628-13.261-24.348-18.836L892 845v-1c7.89-.263 16.23-.28 23.484 3.188 9.6 6.09 16.496 15.044 23.516 23.812 1.657 2.008 3.328 4.004 5 6l1-1-1.836-2.352q-1.27-1.635-2.539-3.273l-1.36-1.754a274 274 0 0 1-8.19-11.24c-6.23-9.043-6.23-9.043-15.036-15.358-5.719-2.344-11.505-3.064-17.668-3.093-.808-.01-1.615-.02-2.447-.032a177 177 0 0 0-4.985.024c-2.478-.056-4.557-.23-6.939-.922-5.52-4.13-8.11-10.832-10.834-16.951-4.155-8.87-10.69-14.86-18.416-20.674l-2.344-1.794c-8.03-6.117-16.171-12.084-24.316-18.046-4.727-3.471-9.405-7.008-14.09-10.535l-2.937-2.195c-11.621-8.686-23.09-17.558-34.473-26.552q-2.15-1.692-4.309-3.374c-5.435-4.275-10.58-8.793-15.66-13.484-2.95-2.696-5.984-5.277-9.062-7.825C746 715 746 715 744.566 713.262L744 711a61 61 0 0 1 3.5-7.312q1.14-2.171 2.27-4.348l1.15-2.212c11.072-21.827 14.507-45.814 14.393-70.003l-.012-2.773c-.242-40.937-10.618-84.745-28.175-121.917-1.132-2.448-2.145-4.923-3.126-7.435h-3l-.625 1.688c-1.892 3.181-4.318 5.303-7.375 7.312-4.263 1.839-7.868 2.127-12.437 1.875-4.158-.526-7.792-1.195-11.465-3.254-4.992-3.857-9.004-8.855-13.098-13.621l-3.562-4.062-1.637-1.899c-1.35-1.53-2.734-3.03-4.133-4.516-17.702-18.87-27.5-40.814-33.543-65.773-2.906-13.889-3.537-28.283.91-41.926 2.34-6.04 4.964-11.552 9.965-15.824 2.226-1.381 3.84-1.978 6.445-2.336 7.01-.102 12.349 1.062 18.555 4.336l2.121 1.11c5.69 3.593 8.8 8.858 11.883 14.706 2.295 4.625 4.097 9.426 5.933 14.247 3.528 9.216 7.54 17.718 14.836 24.613 2.467 1.685 4.829 2.29 7.778 2.539 2.5.032 4.954-.058 7.449-.215h3l.629 3.488c2.996 15.795 7.028 32.763 17.371 45.512 2.188 2.228 4.528 4.1 7 6a547 547 0 0 1 4.063 3.625c3.16 2.779 6.37 5.146 9.937 7.375-1.979-2.639-3.728-4.803-6.414-6.742-3.074-2.684-4.616-5.486-6.274-9.133l-1-2.172C749.332 443.92 743.182 424.454 740 405l-.374-2.08c-1.45-8.09-2.052-14.99.374-22.92l2 1 .028 1.917c.314 16.977 1.71 33.136 7.972 49.083l1.156 3.023c2.103 5.295 4.013 9.682 7.844 13.977l2 1-1.207-1.687c-3.456-4.978-5.995-9.518-7.793-15.313v-3c2.972 1.125 5.334 2.223 8 4v-3l-2.312-.812c-2.802-1.238-3.838-1.801-5.688-4.188a92 92 0 0 1-2.562-8l-.656-2.395c-3.342-12.915-5.114-27.28-3.22-40.543.974-3.43 2.625-6.093 4.575-9.066 3.832-5.925 7.49-11.941 11.113-17.996l1.969-3.281c3.52-5.885 6.995-11.791 10.399-17.744a962 962 0 0 1 5.265-9.057c.996-1.71 1.963-3.438 2.926-5.168 1.572-2.594 2.982-4.672 5.191-6.75 2.81-1.331 5.548-2.155 8.55-2.96 11.058-3.332 20.865-9.42 29.45-17.04l1.996-1.566c14.149-11.36 24.374-29.243 32.962-44.98 9.446-17.302 26.255-27.849 42.73-38.017 14.617-8.84 29.955-16.364 45.375-23.687 12.893-6.134 25.151-12.218 35.937-21.75l2.027-1.742c4.533-4.16 6.873-8.505 8.973-14.258h-3l-.332 2.27c-.927 3.79-2.676 5.69-5.305 8.507-13.886 13.06-32.146 21.297-49.518 28.655-21.47 9.19-45.466 21.693-61.845 38.568-2.312 1.313-2.312 1.313-4 2 8.453-15.134 22.51-31.01 37.438-39.937A199 199 0 0 1 916 176c1.134-.59 2.269-1.178 3.438-1.785 12.92-6.33 26.609-11.076 40.167-15.84 14.856-5.128 14.856-5.128 27.22-14.43 1.328-2.037 1.328-2.037 2.175-4.945l-7-1v-2a375 375 0 0 1 6-4l1-2-2.375-.812L984 128l-2-3h4v-2l-4-1-1-7-7-2 1-2h5v-2l-9-2v-3q-7.438.324-14.874.69-2.518.12-5.035.23c-15.103.655-29.95 2.15-44.341 7.08l-2.619.887C889.493 118.085 875.525 125.832 863 135l-2.367 1.73c-4.894 3.7-9.46 7.72-13.98 11.864a208 208 0 0 1-4.479 3.969c-4.875 4.178-9.32 8.599-13.674 13.312l-4.184 4.484a3132.637 3132.637 0 0 1-12.879 13.766l-1.945 2.078c-5.818 6.195-11.696 12.261-18.156 17.793a337 337 0 0 0-5.172 4.54c-21.93 19.406-48.37 29.166-76.678 35.287q-3.922.851-7.84 1.723-5.306 1.177-10.616 2.346c-32.937 6.704-32.937 6.704-63.272 20.569C625 270 625 270 622 270l1-4h2l.723-1.594c8.784-16.548 22.735-30.45 38.402-40.406 21.276-12.701 43.73-19.81 67.574-26.115a394 394 0 0 0 6.446-1.785c.962-.276 1.925-.55 2.918-.834l2.535-.742c2.536-.553 4.814-.617 7.402-.524l-1 2c-2.458.958-2.458.958-5.738 1.953l-3.645 1.118-1.943.583q-2.995.902-5.986 1.82a999 999 0 0 1-17.395 5.17c-23.2 6.66-43.285 16.428-62.293 31.356l-2.906 2.238c-2.175 1.594-2.175 1.594-3.094 3.762l1.718-.747C671.191 233.564 695.164 225.637 720 227l-1 2c-2.81.683-2.81.683-6.578 1.297q-2.09.352-4.18.707l-2.223.368c-21.588 3.6-40.991 7.623-59.019 20.628 13.662-2.312 27.235-5.025 40.799-7.85l5.566-1.154c9.856-2.04 19.677-4.184 29.447-6.601l2.428-.597c17.903-4.512 34.415-12.084 48.76-23.798l3.086-2.469c7.897-6.46 15.142-13.575 22.351-20.781l1.433-1.429c5.07-5.071 10-10.204 14.67-15.646 1.829-2.099 3.773-4.052 5.773-5.988 2.267-2.195 3.92-4.036 5.687-6.687h2v-2c1.328-1.34 1.328-1.34 3.25-2.937 3.518-2.972 6.857-6.071 10.188-9.25 12.814-11.887 27.916-20.75 43.032-29.37a545 545 0 0 0 4.728-2.727C905.17 103.973 919.955 101.394 937 100v2l34-1v-2l-2-3 1-2q-2.279-.728-4.562-1.437l-2.567-.81c-23.36-6.133-51.119.442-73.845 6.41-19.864 5.494-40.538 13.874-56.237 27.607L830 128h-3l-.789 1.781c-1.29 2.364-2.653 3.86-4.59 5.723l-2.028 1.977-2.155 2.082c-5.478 5.376-10.558 10.761-15.301 16.796-2.425 2.997-5.01 5.823-7.637 8.641a196 196 0 0 0-10 11.563c-8.993 11.059-18.474 18.994-30.5 26.437l-2.82 1.781C749 206 749 206 747 206c.7-1.812.7-1.812 2-4 2.145-1.5 2.145-1.5 4.813-3 10.178-6.22 18.612-14.855 26.187-24 1.869-2.193 3.747-4.377 5.625-6.562a1176 1176 0 0 0 9.371-11.008c6.389-7.57 13.102-14.76 20.067-21.805l2.49-2.544 2.357-2.354 2.098-2.107C824 127 824 127 826.193 126.455L828 126l1-3a99 99 0 0 1 6.313-4.75l1.937-1.347A663 663 0 0 1 843 113l2.754-1.895C870.129 95.595 903.492 88.801 932 87c3.71-.144 7.413-.185 11.125-.187l2.8-.038c5.998-.012 11.267.723 17.075 2.225-.628-2.97-.628-2.97-2-6-2.151-1.18-2.151-1.18-5-2a240 240 0 0 1-3.812-2.312c-17.935-10.066-40.661-11.905-60.777-11.871-31.937.399-63.342 9.686-90.79 25.933-11.5 7.083-22.429 14.666-32.879 23.223-3.999 3.265-8.107 6.374-12.242 9.465l-1.96 1.466a623 623 0 0 1-3.72 2.752q-1.867 1.38-3.703 2.802c-1.654 1.252-3.382 2.404-5.117 3.542h-4c1.306-2.958 2.577-4.762 5.098-6.777l1.902-1.536 2.063-1.624 2.156-1.721c2.253-1.79 4.516-3.567 6.781-5.342l2.127-1.68a400 400 0 0 1 30.999-22.112 469 469 0 0 0 4.491-2.938c29.574-18.787 65.697-28.368 100.442-30.454 7.411-.182 14.643.99 21.941 2.184v-2l-3.664-.367-4.961-.508-2.39-.238a277 277 0 0 1-14.684-1.938c-7.515-1.088-14.904-1.292-22.489-1.261h-2.029c-9.954.017-19.556.72-29.326 2.656C832 61 832 61 828 61v-2c18.806-4.889 38.653-5.439 58-6l2.958-.087c21.959-.556 21.959-.556 32.042 3.087l-1-2c-2.805-.915-2.805-.915-6.062-1.625-1.658-.39-1.658-.39-3.348-.79-.855-.192-1.71-.386-2.59-.585z"/><path fill="#D73E39" d="M661 778c2.715 2.394 4.047 4.826 5.566 8.094l1.455 3.093 1.542 3.313a627 627 0 0 0 23.56 44.977c11.832 20.572 23.086 41.475 34.229 62.426q2.24 4.205 4.492 8.406a543 543 0 0 1 12.912 25.799 476 476 0 0 0 6.994 14.33c9.168 18.132 17.718 36.69 25.25 55.562l.874 2.146c1.398 3.54 2.126 6 2.126 9.854-14.238.21-28.476.368-42.716.466-6.612.047-13.223.111-19.834.213-6.38.098-12.76.152-19.14.175q-3.653.025-7.304.098c-3.41.065-6.816.074-10.227.07l-3.052.098c-2.848-.038-5.04-.165-7.727-1.12-2.653-2.702-4.33-5.623-6-9l-1.532-2.635-1.109-2.127-1.289-2.429-1.32-2.496C654.09 988.69 648.971 980.76 643 973l-1.36-1.788c-5.274-6.92-10.72-13.6-16.617-20.005-1.767-1.928-3.461-3.895-5.148-5.894-8.304-9.502-17.372-18.5-27.305-26.29a123 123 0 0 1-4.953-4.109c-16.231-14.094-37.676-27.28-58.953-31.574-2.589-.33-5.058-.411-7.664-.34l-1-2 3.11-1.695c3.64-2.084 6.894-4.532 10.14-7.18 7.926-6.342 16.098-12.33 24.29-18.322q3.638-2.668 7.265-5.35A2329 2329 0 0 1 588 831.5c13.066-9.416 26.024-18.96 38.813-28.75 7.95-6.085 15.984-12.01 24.187-17.75l3.074-2.16q3.459-2.427 6.926-4.84M855 833h2l.043 2.23.144 2.957.106 2.918c.533 3.005.533 3.005 2.586 5.399 4.304 3.442 8.956 5.784 13.871 8.246q3.116 1.59 6.23 3.184l3.1 1.573c4.02 2.055 8.002 4.176 11.982 6.306 3.827 2.045 7.653 4.07 11.567 5.945C933.844 884.833 957.373 906.428 976 930q1.362 1.646 2.73 3.285c11.323 13.675 22.32 28.786 30.27 44.715v2c-35.884 6.174-72.25 9.629-108.5 12.813l-3.6.318c-19.974 1.753-39.844 3.103-59.9 2.869l-1.25-2.937c-3.84-8.948-7.937-17.723-12.381-26.388-1.336-2.61-2.66-5.225-3.984-7.841C810.795 941.88 801.735 925.33 792 909q-3.493-5.86-6.937-11.75l-1.597-2.655-1.43-2.454-1.27-2.14C780 888 780 888 780.24 885.887c2.788-6.923 12.761-12.981 18.568-17.543 7.478-5.767 15.174-11.224 22.942-16.594l2.851-1.99 2.696-1.838 2.386-1.638c2.505-1.388 4.476-1.98 7.317-2.284 2.797 1.004 2.797 1.004 5.75 2.563l3.168 1.671a125 125 0 0 1 10.242 6.567c1.934 1.371 1.934 1.371 4.84 2.199v-2l-1.64-.727c-2.97-1.602-5.471-3.547-8.11-5.648l-2.984-2.336L846 844v-4c1.898-1.922 1.898-1.922 4.375-3.75l2.46-1.86z"/><path fill="#D73E39" d="M540 890c5.49 2.362 10.742 5.168 16 8l3.535 1.844c25.142 13.624 49.019 35.343 66.582 57.781 1.77 2.231 3.628 4.295 5.57 6.375 12.145 13.618 21.768 28.934 30.313 45l1.146 2.082C664 1013 664 1013 664 1016H449c5.779-26.582 5.779-26.582 8.438-34.437l.9-2.736A680 680 0 0 1 461 971l.753-2.189A279 279 0 0 1 467 955l.927-2.27c9.365-22.56 22.195-47.343 41.085-63.445 8.463-5.47 22.15-2.488 30.988.715"/><path fill="#EAA986" d="M917 314c7.184 3.25 12.762 7.038 17.598 13.3 1.479 1.96 1.479 1.96 4.402 3.7-5.255-7.229-5.255-7.229-12-13l-3-1v-2c3.717.297 6.625.82 10 2.438 5.182 4.426 8.928 9.858 11.438 16.187L946 336h-6l1.328 1.117c5.03 4.6 8.846 9.745 12.61 15.383l1.409 2.097c9.075 13.854 16.48 28.719 23.966 43.466q1.985 3.904 3.974 7.806 1.224 2.4 2.441 4.802c1.761 3.458 3.563 6.85 5.55 10.182C993 424 993 424 993 427h2q.508-2.342 1-4.687l.563-2.637c.427-2.613.513-5.034.437-7.676l6-1 2-6 3 1-.48-1.64c-1.989-9.031-.526-18.541 2.039-27.31 4.164-12.559 12.853-23.153 22.441-32.05l3-1 2 1c-.38 2.927-.925 4.88-2.496 7.402l-1.941 2.536-2.153 2.863-1.167 1.541c-2.295 3.06-4.517 6.173-6.743 9.283l-1.35 1.867A273 273 0 0 0 1018 375v1l2.676-2.816c6.903-7.155 13.494-13.424 22.324-18.184l2.105-1.195c7.855-4.233 15.786-6.395 24.735-6.164 7.91.9 15.142 3.703 22.16 7.359v2l4 1v2c-2.313-.868-4.561-1.758-6.727-2.953-6.77-3.734-13.566-4.753-21.21-5.36-10.065.368-19.744 4.127-28.345 9.188-5.147 3.37-9.448 7.734-13.718 12.125l-2.125 2.168c-4.726 5.103-8.78 10.503-10.508 17.332-1.232 9.232.648 18.461 2.15 27.562.498 3.031.969 6.066 1.436 9.102 1.97 18.425 1.97 18.425 8.715 35.238a88 88 0 0 0 3.652 3.828c3.119 3.286 4.949 7.382 6.266 11.684 1.386 6.981.702 14.035-1.535 20.746-1.43 3.185-3.372 5.703-5.559 8.406-3.242 4.202-5.468 8.667-6.242 13.934l-.25 3h-2v-9l-2.344.438c-14.702 2.62-14.702 2.62-22.281.312-4.557-1.666-8.543-3.845-11.937-7.375-1.979-1.892-3.84-2.512-6.438-3.375-2.897-.24-2.897-.24-5.812-.125l-2.958.055-2.23.07v3c-3.92.24-6.816.061-10.562-1.187-3.766-1.986-6.487-3.728-9.438-6.813-1.65-2.936-2.54-5.664-3-9 .244-4.911 1.427-8.896 3.688-13.25 4.907-5.836 9.673-9.353 16.867-12.004 3.17-.967 6.146-1.46 9.445-1.746l-1-2-3.621.105c-15.952.33-15.952.33-21.758-2.148C945 461 945 461 942.688 459c-3.378-6.005-5.885-12.178-6.188-19.125.333-7.035 3.518-12.5 7.25-18.312 2.275-3.318 4.745-6.406 7.313-9.5 3.776-4.704 7.096-9.265 8.937-15.063.808-6.64.282-12.724-2-19-4.367 1.709-8.076 3.67-12 6.25-3.401 2.075-4.73 2.741-8.812 2.875-3.448-1.217-5.445-2.743-8.188-5.125a112 112 0 0 0-5-2l2.004 2.922 2.558 3.828 1.327 1.922c1.134 1.715 2.131 3.52 3.111 5.328-.383 2.216-.383 2.216-1 4h-2l-1.75-2.5L926 393c-3.168-.418-3.168-.418-6 0l.563-2.937c.076-1.987.076-1.987-.563-4.063-4.858-6.638-11.657-11.437-19-15-2.347-.868-4.548-1.467-7-2l1 2.313c1.534 5.656 1.622 11.152.605 16.93-.949 3.147-2.175 5.277-4.375 7.734-2.886 2.682-5.624 4.726-9.168 6.46-5.126.942-9.967 1.292-14.937-.437L865 401h-3c6.885 2.786 13.176 3.516 20.563 3.688l3.056.103q3.69.123 7.381.209l1 2c-7.57 2.406-17.324 1.812-25.066.316-9.02-2.23-17.484-5.274-24.446-11.597L842 393.313c-3.493-3.327-6.127-5.003-10.812-6.188l-2.77-.582c-2.901-.652-5.012-1.814-7.418-3.543l-3-2c-.687-2.625-.687-2.625-1-5l2-1-.437-2.5c.437-3.5.437-3.5 1.433-5.258 9.472-11.76 24.1-20.723 38.004-26.242 9.968-3.48 20.245-4.956 30.664-6.387l2.298-.33c1.663-.23 3.33-.428 4.999-.615L898 333c1.36-1.968 1.36-1.968 2-4l-3.594-.367-4.906-.508-2.597-.269c-6.78-.713-13.535-1.562-20.29-2.489-8.975-.912-16.212.262-24.613 3.633-10.725 5.133-20.003 11.634-28.937 19.438L812 351h-2l1-3h2l.73-1.742c5.517-9.81 18.713-18.017 28.352-23.75 9.043-5.132 17.706-8.381 27.918-10.508l2.676-.676c14.473-3.308 30.41-2.401 44.324 2.676"/><path fill="#D83F3A" d="M755 664c.063 3.25.063 3.25-1 7-2.699 2.002-5.846 2.908-9 4-11.793 4.036-11.793 4.036-21.785 11.23-1.477 1.866-1.477 1.866-1.653 5.02 2.954 10.232 11.514 18.97 18.932 26.208 7.196 6.898 14.73 13.306 22.506 19.542q1.79 1.474 3.574 2.953c7.914 6.535 15.996 12.766 24.287 18.815A749 749 0 0 1 806.5 770.5c7.64 5.88 15.385 11.609 23.16 17.309l2.173 1.6a481 481 0 0 0 4.502 3.263l2.224 1.613 2.005 1.438L842 797v2l-2.937.594c-9.892 2.149-18.384 5.526-27.24 10.402a288 288 0 0 1-5.038 2.692c-8.15 4.455-14.963 10.076-21.785 16.312l-2.844 2.59c-6.167 5.892-11.225 12.204-16.098 19.192l-1.43 2.007-1.247 1.803C762 856 762 856 759.95 856.768L758 857c-5.628-3.338-10.034-9.135-14.316-13.996-3.314-3.743-6.756-7.366-10.184-11.004-5.577-5.933-11.123-11.884-16.5-18l-1.312-1.487c-17.45-19.837-36.632-41.644-44.375-67.427-.363-2.42-.097-3.774.687-6.086 1.272-1.58 1.272-1.58 2.879-3.102l1.78-1.719 1.904-1.804c13.61-13.273 22.523-27.972 30.707-45.02 2.346-4.607 4.948-8.37 8.972-11.66C728.337 669.49 743.096 663.642 755 664"/><path fill="#63914C" d="M1148 958a43 43 0 0 1 4.75 6.063l1.32 1.934c4.054 6.018 7.794 12.221 11.45 18.486 1.487 2.53 2.992 5.048 4.5 7.565q2.218 3.698 4.428 7.402 1.113 1.86 2.229 3.717 1.574 2.626 3.14 5.259l1.857 3.106C1183 1014 1183 1014 1183 1016H845c-5-12-5-12-5-14 2.949-1.474 5.656-1.222 8.95-1.324q2.297-.082 4.596-.169c.83-.03 1.661-.06 2.517-.093 60.966-2.369 122.007-10.443 182.187-20.101l3.407-.547c22.199-3.583 44.3-7.644 66.198-12.769 2.439-.57 4.88-1.13 7.32-1.69 8.403-1.943 16.69-4.041 24.933-6.588 2.818-.7 5.01-1.058 7.892-.719"/><path fill="#E79C7B" d="M1115.125 421.563c2.96 1.571 3.86 2.415 5.75 5.312.578 1.816.578 1.816 1.125 4.125l.797 3.215c2.699 11.725 3.403 23.026 3.453 35.035.03 1.831.03 1.831.063 3.7.13 31.029-16.355 68.049-31.313 95.05-5.943 10.165-12.754 19.727-20 29l-1.28 1.642c-2.761 3.538-5.539 7.064-8.322 10.585a1385 1385 0 0 0-4.085 5.21 1239 1239 0 0 1-16.677 20.865 684 684 0 0 0-8.948 11.198c-7.433 9.267-15.385 16.188-26.188 21.25-18.923 7.347-43.888 5.86-63.625 3.063-18.969-3.016-36.846-9.356-54.875-15.813.8-4.382 2-6.963 4.68-10.484C897 643 897 643 898.938 641.563c2.833-.773 5.13-.808 8.062-.563 2.168 1.54 2.168 1.54 4.188 3.625 8.384 7.897 18.43 11.986 29.464 14.839 20.087 4.586 39.488 4.462 59.344-1.202 19.723-5.996 19.723-5.996 35.93-18.235 4.434-5.062 6.722-10.343 9.074-16.59q1.275-3.205 2.563-6.406l1.25-3.129c5.009-12.243 11.663-23.071 19.187-33.902 6.887-9.97 13.049-20.15 18.811-30.812 2.035-3.745 4.113-7.466 6.189-11.188l-3.176.219-4.137.281-2.091.145c-2.873.194-5.716.355-8.596.355l-2 3h-2l.36-2.195c.396-2.972.669-5.806.64-8.805-1.494-3.536-1.494-3.536-4-6l-2.013-1.325C1064 522 1064 522 1062.827 519.571a751 751 0 0 1-3.014-9.446l-1.077-3.242c-4.165-13.154-4.291-25.44-1.736-38.883 1.012-3.846 2.367-7.377 4-11l1.465-3.328c5.226-11.165 12.023-22.152 22.27-29.371 9.009-5.173 20.596-6.433 30.39-2.738"/><path fill="#63914C" d="M1000 711c4.834 1.515 7.973 4.266 11.688 7.563l1.874 1.64a1015 1015 0 0 1 3.728 3.287 415 415 0 0 0 4.39 3.81c20.114 17.51 35.788 39.632 48.746 62.803 3.19 5.6 6.738 10.74 11.91 14.674l2.039 1.16 2.086 1.215L1088 808l-2 5a358 358 0 0 1-5.312-2.687l-2.989-1.512C1075 807 1075 807 1073.33 804.738c-2.147-4.425-3.92-8.988-5.731-13.558-1.37-3.181-1.37-3.181-3.59-5.051-3.128-1.759-5.408-2.07-9.008-2.129-5.318 1.624-9.937 4.183-14 8l-2 3c-.01 2.603-.01 2.603 1 5 1.785 1.16 1.785 1.16 4.125 1.75 5.6 1.965 10.312 4.79 15.327 7.897 3.606 2.222 7.19 4.208 11.048 5.978 4.807 2.328 8.01 5.382 11.5 9.375l1.563 1.734c2.778 3.127 5.481 6.318 8.195 9.5l3.054 3.578 1.567 1.836a418 418 0 0 0 9.809 11.04c3.94 4.303 7.689 8.718 11.351 13.261q2.69 3.334 5.422 6.633c25.312 30.66 47.673 64.026 67.382 98.522 1.607 2.808 3.226 5.609 4.848 8.408 5 8.648 9.88 17.35 14.559 26.176l1.306 2.45 1.178 2.249c.343.652.686 1.303 1.038 1.975.728 1.638.728 1.638.728 3.638-8.25 1.516-16.906 2.724-25 0-6.185-5.214-9.12-13.298-12.362-20.522-2.72-5.777-6.056-11.163-9.388-16.603l-1.922-3.197c-4.745-7.865-9.779-15.36-15.328-22.678l-2.82-3.762a2695 2695 0 0 0-4.513-6.005 850 850 0 0 1-11.042-15.045c-10.418-14.463-20.897-28.775-32.253-42.52A515 515 0 0 1 1094 879c-7.046-8.826-14.112-17.642-21.428-26.246a551 551 0 0 1-2.728-3.235c-2.072-2.473-4.177-4.866-6.41-7.195-2.194-2.386-3.992-4.42-5.434-7.324.2-2.888.926-5.01 2.035-7.676 1.167-2.507 1.167-2.507 1.402-6.199L1061 818c-1.854-2.441-1.854-2.441-4-4v2c-6.551-2.507-12.751-5.658-18.934-8.948-1.853-.943-3.768-1.76-5.687-2.56-3.924-1.987-6.87-3.887-9.379-7.492-3.359-7.417-5.307-15.357-7.388-23.206-2.052-7.647-4.833-15.002-7.607-22.41-2.068-5.584-3.821-11.123-5.225-16.914-.85-2.69-2.04-4.831-3.53-7.22-1.3-2.187-1.3-2.187-2.25-4.25.074-4.448 1.168-7.969 3-12"/><path fill="#E0896B" d="m855.973 423.7 2.133.025C860 424 860 424 863 426c-1.474 4.128-2.965 8.025-5.062 11.875-2.263 4.403-3.698 9.16-3.938 14.125l2 2v3l1.813.875C860 459 860 459 863 461c1.21 2.645 1.21 2.645 2.375 5.813 1.365 3.362 2.537 6.066 4.688 9 7.102 5.289 14.162 9.901 23.093 11.03 8.251.454 14.92-.056 22.407-3.78A353 353 0 0 0 921 480c1.328-.676 2.66-1.347 4-2-3.034 11.594-7.514 20.453-15.922 29.05-7.76 7.605-16.567 13.576-26.054 18.82-3.906 2.212-6.626 4.31-9.024 8.13-.683 2.648-.683 2.648-.75 5.313l-.172 2.675L873 544h-2c-2.5-3.828-3.908-6.1-4.375-10.687.348-3.079.931-4.662 2.375-7.313l-3.562 1.375c-11.049 3.665-23.899 4.953-35.426 3.16-9.46-2.073-18.194-5.921-25.7-12.097-7.047-6.74-12.696-14.683-15.875-23.938-2.26-8.62-2.187-16.863-.375-25.562C791.22 457.79 797.94 449.105 806 441l1.566-1.672c7.079-6.875 17.893-11.548 27.246-14.328 6.945-1.487 14.087-1.388 21.16-1.3"/><path fill="#D73E39" d="M1090 809c9.65 2.19 18.459 5.96 27.5 9.875q2.17.93 4.34 1.855a896 896 0 0 1 20.835 9.228c3.174 1.422 6.39 2.674 9.638 3.917 6.303 2.467 12.308 5.297 18.324 8.41a150 150 0 0 0 6.695 3.211c8.739 3.976 8.739 3.976 11.918 7.942A92 92 0 0 1 1192 858l1.922 3.32c13.902 24.696 21.988 52.413 23.078 80.68h-2l-.629-2.316c-2.105-7.32-4.731-14.005-8.084-20.833C1204 914.177 1204 914.177 1204 912h-2l.576 1.579c2.138 6.092 3.506 12.168 4.694 18.507l.61 3.173q.642 3.337 1.277 6.677c1.099 5.767 2.221 11.528 3.343 17.29l.661 3.402c4.705 24.754 4.705 24.754 11.956 48.845.883 2.527.883 2.527.883 4.527-2.187.5-2.187.5-5 0-4.291-6.191-7.754-12.904-11.357-19.511-29.86-54.688-63.985-106.823-106.248-152.813-2.366-2.643-4.608-5.352-6.832-8.114a268 268 0 0 0-10.438-12.125l-1.408-1.554c-2.14-2.325-4.07-4.119-6.717-5.883v-2l9 1z"/><path fill="#D83F3A" d="M1056 841h2c1.453 1.59 1.453 1.59 3.25 3.938 3.773 4.841 7.644 9.587 11.563 14.312a769 769 0 0 1 14.28 17.788c2.937 3.762 5.955 7.437 9.032 11.087 4.364 5.204 8.462 10.556 12.495 16.018a967 967 0 0 0 4.857 6.462c7.597 10.058 15.048 20.196 22.227 30.558q1.344 1.902 2.74 3.764c1.235 1.655 2.401 3.361 3.556 5.073v3c-26.234 8.802-53.748 14.041-80.937 18.938l-2.398.434c-10.85 1.955-21.703 3.455-32.665 4.628-1.34-46.312 15.52-92.561 30-136"/><path fill="#63914C" d="m676 795 3 1a97 97 0 0 1 4.5 5.688q1.342 1.784 2.688 3.566l1.402 1.871c6.303 8.379 12.772 16.508 19.926 24.18a229 229 0 0 1 5.629 6.367c5.35 6.143 11.264 11.744 17.087 17.433l2.64 2.606 2.403 2.353L737 862v2l1.695.723c3.748 2.077 6.584 5.147 9.672 8.086 2.754 2.292 5.354 3.765 8.633 5.191 2.628.501 2.628.501 5 0 1.815-1.396 1.815-1.396 3-3l3 1c1.402 2.492 1.402 2.492 2.938 5.875 2.902 6.138 6.27 11.85 9.937 17.563l1.567 2.442q1.546 2.41 3.093 4.819C791.401 915.915 796.87 925.356 802 935l1.898 3.52a707 707 0 0 1 11.286 21.822 865 865 0 0 0 3.446 6.877 546 546 0 0 1 11.287 23.733q1.264 2.819 2.54 5.632l1.652 3.686 1.468 3.268c1.676 4.077 3.03 8.28 4.423 12.462h-54l-10-25c-4.786-11.358-9.619-22.647-14.934-33.766-1.278-2.679-2.546-5.363-3.816-8.047-5.28-11.123-10.697-22.14-16.5-33a808 808 0 0 1-6.25-12c-6.34-12.378-12.789-24.65-19.72-36.712-4.014-7.022-7.774-14.154-11.467-21.35-3.997-7.78-8.124-15.415-12.624-22.914-3.387-5.653-6.625-11.381-9.814-17.149l-1.473-2.641-1.347-2.448-1.204-2.18C676 797 676 797 676 795"/><path fill="#EEB695" d="M669 353c3.585.927 6.73 2.274 10 4l2.121 1.11c5.097 3.219 7.961 7.572 10.866 12.787 4.051 7.715 7.115 15.89 10.179 24.035.841 2.086 1.801 4.07 2.834 6.068h-3l-.312 3.688c-.237 2.794-.596 4.177-2.2 6.529-2.61 4.883-1.848 10.119-1.672 15.538.059 2.042.064 4.08.067 6.122.118 7.169.118 7.169 2.628 13.745 1.727 2 3.458 3.693 5.489 5.378a59 59 0 0 1 6 6c-.125 3.375-.125 3.375-1 6-3.736.764-6.348 1.072-10 0l-.367 2.852-.508 3.773-.492 3.727c-.589 3.394-1.512 6.4-2.633 9.648l-.437 3.75L696 491l-3 2c-1.844-.02-1.844-.02-4-1a85 85 0 0 1-5.5-5.687l-1.58-1.76a718 718 0 0 1-3.278-3.696 489 489 0 0 0-4.779-5.306c-17.1-19.034-26.007-41.713-31.461-66.502-2.472-12.607-2.364-25.963 1.633-38.225 2.34-6.04 4.964-11.552 9.965-15.824 4.717-2.927 9.627-2.57 15-2"/><path fill="#D73F3A" d="M1195 857c8.863 3.55 16.278 13.87 22.048 21.178 29.487 38.402 45.578 87.139 51.952 134.822v3h-37c-5.262-13.304-5.262-13.304-6-18 .847-4.055 2.348-6.84 5-10-1.812 2.5-1.812 2.5-4 5h-3c.643-3.934 1.853-7.285 3.438-10.937 1.718-3.976 3.24-7.937 4.562-12.063h-2l-.812 2.25c-1.14 2.64-2.282 4.606-4.188 6.75h-2l-.136-3.263c-.865-28.038-.865-28.038-4.864-55.737l-.593-2.793c-4.052-18.545-9.306-40.984-21.075-56.39L1195 859z"/><path fill="#EBAA87" d="M1110 524h3c-2.063 7.457-4.694 14.557-7.687 21.688l-1.338 3.188c-9.559 22.468-23.508 41.286-38.577 60.35a1385 1385 0 0 0-4.085 5.212 1239 1239 0 0 1-16.677 20.864 684 684 0 0 0-8.948 11.198c-7.433 9.267-15.385 16.188-26.188 21.25-18.923 7.347-43.888 5.86-63.625 3.063-18.969-3.016-36.846-9.356-54.875-15.813.8-4.382 2-6.963 4.68-10.484C897 643 897 643 898.938 641.563c2.833-.773 5.13-.808 8.062-.563 2.168 1.54 2.168 1.54 4.188 3.625 8.384 7.897 18.43 11.986 29.464 14.839 20.087 4.586 39.488 4.462 59.344-1.202 19.723-5.996 19.723-5.996 35.93-18.235 4.434-5.062 6.722-10.343 9.074-16.59q1.275-3.205 2.563-6.406l1.25-3.129c5.009-12.243 11.663-23.071 19.187-33.902 6.887-9.97 13.049-20.15 18.811-30.812 2.035-3.745 4.113-7.466 6.189-11.188l-3.21.254-4.165.308-2.117.17c-1.834.133-3.671.204-5.508.268l-2-1 1-8 3 1c11.698.778 11.698.778 22.938-2l2.277-1.125C1107 527 1107 527 1109 527z"/><path fill="#EAA986" d="M867.593 422.215c10.08.726 18.524 1.86 27.114 7.39 12.518 8.835 22.758 20.47 29.238 34.438 1.408 3.947 2.078 7.351 1.836 11.543C925 478 925 478 923.22 479.914c-2.331 1.62-4.655 2.872-7.219 4.086l-3.25 1.812c-8.06 2.553-16.71 2.894-24.98 1.114-6.574-2.198-12.293-5.976-17.708-10.239-3.616-4.713-6.186-10.059-8.062-15.687l-2.875-1.875C856 457 856 457 854 454.875c-1.057-3.038-1.046-4.321-.563-7.438 1.265-5.337 3.63-9.965 6.223-14.773 1.144-2.275 1.863-4.18 2.34-6.664l-4-3c3.127-1.563 6.154-.97 9.593-.785"/><path d="M884.29 344.84c8.356-.313 16.958.968 24.581 4.484 2.487 1.442 4.806 2.984 7.129 4.676.634.43 1.268.859 1.922 1.3 5.669 4.252 9.075 10.375 12.078 16.7v3h-2c-1.262-1.941-1.262-1.941-2.687-4.562-3.923-6.71-8.163-11.385-14.938-15.25A213 213 0 0 0 906 353l-2.5-1.25c-3.8-1.14-7.55-1.49-11.5-1.75l-2.465-.164C877.601 349.44 864.841 351.99 854 357a93 93 0 0 0-8 5c1.793 2.095 1.793 2.095 3.945 2.633l2.18.492L856 366v-3h-2v-2l3.25.563c3.154.367 4.848.482 7.75-.563l-1-3c9.632-1.482 18.79-1.423 28.375.313l2.018.356c5.484 1.078 9.763 2.86 14.134 6.347 2.5 2.318 4.994 4.643 7.473 6.984l1.848 1.617c4.23 3.86 7.426 8.371 10.652 13.07l1.389 1.983c1.267 1.904 1.267 1.904 3.111 5.33-.385 2.214-.385 2.214-1 4h-2l-1.75-2.5L926 393c-3.168-.418-3.168-.418-6 0l.563-2.937c.076-1.987.076-1.987-.563-4.063-4.858-6.638-11.657-11.437-19-15-2.347-.868-4.548-1.467-7-2l1 2.313c1.534 5.656 1.622 11.152.605 16.93-.949 3.147-2.175 5.277-4.375 7.734-2.886 2.682-5.624 4.726-9.168 6.46-5.126.942-9.967 1.292-14.937-.437L865 401h-3c6.885 2.786 13.176 3.516 20.563 3.688l3.056.103q3.69.123 7.381.209l1 2c-7.57 2.406-17.324 1.812-25.066.316-9.02-2.23-17.484-5.274-24.446-11.597L842 393.313c-3.493-3.327-6.127-5.003-10.812-6.188l-2.77-.582c-2.901-.652-5.012-1.814-7.418-3.543l-3-2v-3l1.813.938c4.216 2.048 7.535 2.228 12.187 2.062l3-1 1-3-8-1v-4l2 1c1.976.122 3.957.175 5.938.188l3.214.042c3.05-.014 3.05-.014 5.848-2.23l1-3h2v-2c-2.61-1.052-2.61-1.052-6-1-2.284 1.374-4.237 2.926-6.266 4.652L834 371h-2c1.328-3.047 2.633-4.797 5.273-6.805l1.982-1.51 2.12-1.56 2.18-1.613c10.407-7.545 21.188-12.535 34.008-14.2 2.24-.186 4.483-.315 6.726-.472"/><path fill="#D73F3A" d="M1000 711c4.834 1.515 7.973 4.266 11.688 7.563l1.874 1.64a1015 1015 0 0 1 3.728 3.287 415 415 0 0 0 4.39 3.81c20.114 17.51 35.788 39.632 48.746 62.803 3.19 5.6 6.738 10.74 11.91 14.674l2.039 1.16 2.086 1.215L1088 808l-2 5a358 358 0 0 1-5.312-2.687l-2.989-1.512C1075 807 1075 807 1073.33 804.738c-2.147-4.425-3.92-8.988-5.731-13.558-1.37-3.181-1.37-3.181-3.59-5.051-3.128-1.759-5.408-2.07-9.008-2.129-5.318 1.624-9.937 4.183-14 8l-2 3c-.044 2.596-.044 2.596 1 5 2.019 1.298 2.019 1.298 4.563 2 4.863 1.74 9.5 3.566 13.437 7 1 2.813 1 2.813 1 5h-2v2c-6.551-2.507-12.751-5.658-18.934-8.948-1.853-.943-3.768-1.76-5.687-2.56-3.924-1.987-6.87-3.887-9.379-7.492-3.359-7.417-5.307-15.357-7.388-23.206-2.052-7.647-4.833-15.002-7.607-22.41-2.068-5.584-3.821-11.123-5.225-16.914-.85-2.69-2.04-4.831-3.53-7.22-1.3-2.187-1.3-2.187-2.25-4.25.074-4.448 1.168-7.969 3-12"/><path fill="#D83F3A" d="M666 744h2l.996 2.719C677.283 768.727 690.851 787.177 706 805l2.758 3.281a516 516 0 0 0 17.724 19.875c2.856 3.047 5.667 6.116 8.393 9.282 2.653 3.078 5.47 5.93 8.371 8.773 1.865 1.902 3.59 3.887 5.317 5.914 2.9 3.373 5.933 6.14 9.437 8.875 3.893-1.557 6.061-4.014 8.813-7.125l1.342-1.504c2.42-2.72 4.792-5.479 7.158-8.246 16.356-18.693 35.575-33.787 59.199-42.066 3.239-.983 6.111-1.825 9.488-2.059 6.992 2.379 13.295 7.23 18.64 12.234 5.25 6.154 8.425 13.634 11.833 20.91 3.272 6.118 7.356 9.388 13.027 13.106q2.162 1.45 4.32 2.906l2.15 1.45c3.852 2.646 7.547 5.492 11.268 8.32 5.137 3.858 10.417 7.51 15.762 11.074v2c-4.449-1.326-8.096-3.102-12.062-5.5-9.321-5.49-19.14-9.94-28.938-14.5q-3.74-1.746-7.477-3.498a1360 1360 0 0 0-4.458-2.078c-4.954-2.313-4.954-2.313-6.065-3.424a77 77 0 0 1-.43-4.41l-.222-2.752a948 948 0 0 1-.422-5.719c-.49-5.902-1.436-10.724-3.926-16.119-2.032-2.372-3.122-3.049-6.125-4.25-5.267-1.02-9.966-.675-15.097.957a123 123 0 0 0-6.59 2.856l-2.368 1.08c-23.526 11.026-43.28 30.707-58.918 51.091l-2.027 2.516-1.758 2.266L762 872c-3.383.04-3.383.04-7-1-2.922-2.117-2.922-2.117-5.75-4.875l-1.542-1.484A452 452 0 0 1 743 860q-1.485-1.448-2.973-2.895c-4.658-4.58-9.122-9.25-13.359-14.222-1.767-1.995-3.63-3.84-5.543-5.696-3.952-3.89-7.389-8.099-10.855-12.421-2.096-2.553-4.271-4.974-6.52-7.391-16.123-17.707-33.978-40.405-40.441-63.887-.371-2.113-.371-2.113-.309-5.488 1.313-2.5 1.313-2.5 3-4"/><path fill="#EAA986" d="M894 369c7.327 1.163 12.217 3.362 18 8 3.345 2.762 6.461 5.464 9 9 .462 2.9.02 4.178-1 7l2.688-.875L926 392c2.242 1.779 3.378 3.568 5 6v2h-2c-.095.592-.19 1.183-.29 1.793-.71 2.207-.71 2.207-2.17 3.883-9.063 7.749-18.002 13.144-29.54 16.324l-2.195.684c-10.796 2.976-22.51 1.57-33.43.003l-2.548-.356c-5.542-.872-9.927-2.368-14.628-5.55C837.093 410.758 830.861 403.51 827 395c-.75-2.687-.75-2.687-1-5l1-3c3.15-.535 4.93-.713 8 0 2.945 2.008 5.537 4.267 8.219 6.613 7.75 6.651 15.987 9.8 25.781 12.387l1.93.54c2.092.465 3.934.59 6.074.593l2.244.004 2.314-.012 2.327.012c3.29-.006 5.969-.09 9.111-1.137l-1.845-.028c-22.327-.431-22.327-.431-31.155-4.972v-1c3.47.458 6.674.891 10 2 4.905.6 9.153.228 13.75-1.625 2.864-1.42 5.05-2.868 7.188-5.25 2.123-3.218 3.28-5.356 4.062-9.125.327-5.752.222-11.35-1-17"/><path d="M882 533c2.91-.145 5.72-.186 8.625-.125l2.43.027c1.982.024 3.963.06 5.945.098v2l-7 1v2l3.75.75c4.95 1.089 9.673 2.672 14.453 4.348 12.7 4.097 26.289 1.294 39.22-.389 8.254-1.064 16.423-1.899 24.753-1.959l2.07-.028c4.56.028 8.42.923 12.754 2.278 4.64.455 8.423-.31 12.875-1.5 7.686-2.003 13.33-2.07 21 0 7.922 2.124 15.8 2.347 23.805.41 3.931-1.542 7.243-4.058 10.722-6.422C1060 534 1060 534 1062.254 533.543c1.934.02 1.934.02 4.746.457-.613 2.962-1.254 4.38-3 7h-2v-3c-10.9 6.29-18.183 13.725-24.523 24.617l-1.477 2.57c-4.129 6.918-8.856 11.297-15.687 15.563-11.727 6.403-23.045 6.905-36.184 6.602-13.194-.573-29.418-3.429-40.845-10.399A185 185 0 0 1 939 574c1.781-.609 1.781-.609 4-1 1.883.935 3.762 1.879 5.613 2.874 4.571 2.157 9.483 3.168 14.387 4.313l3.355.788c14.298 3.223 28.109 4.416 42.422.209 8.466-3.118 15.792-7.863 21.582-14.817 3.111-4.488 5.384-9.408 7.641-14.367l-1.946.503c-22.553 5.774-43.151 10.057-66.367 6.567-5.47-.79-10.94-1.455-16.437-2.035l-2.285-.242q-4.648-.493-9.297-.968c-26.491-2.707-26.491-2.707-32.668-6.825l-1 2-2.625-2.062c-3.655-2.62-7.55-4.678-11.562-6.688l-1.837-.926c-2.935-1.445-5.727-2.813-8.976-3.324-2.187.38-2.187.38-4 1 .375-1.875.375-1.875 1-4z"/><path fill="#8E979B" d="M937 100v2h29l1 2-2.76.136c-34.297 1.741-63.158 6.635-92.908 25.102A189 189 0 0 0 863 135l-2.367 1.73c-4.894 3.7-9.46 7.72-13.98 11.864a208 208 0 0 1-4.479 3.969c-4.875 4.178-9.32 8.599-13.674 13.312l-4.184 4.484a3132.637 3132.637 0 0 1-12.879 13.766l-1.945 2.078c-5.818 6.195-11.696 12.261-18.156 17.793a337 337 0 0 0-5.172 4.54c-21.93 19.406-48.37 29.166-76.678 35.287q-3.922.851-7.84 1.723-5.306 1.177-10.616 2.346c-32.937 6.704-32.937 6.704-63.272 20.569C625 270 625 270 622 270l1-4h2l.723-1.594c8.784-16.548 22.735-30.45 38.402-40.406 21.276-12.701 43.73-19.81 67.574-26.115a394 394 0 0 0 6.446-1.785c.962-.276 1.925-.55 2.918-.834l2.535-.742c2.536-.553 4.814-.617 7.402-.524l-1 2c-2.458.958-2.458.958-5.738 1.953l-3.645 1.118-1.943.583q-2.995.902-5.986 1.82a999 999 0 0 1-17.395 5.17c-23.2 6.66-43.285 16.428-62.293 31.356l-2.906 2.238c-2.175 1.594-2.175 1.594-3.094 3.762l1.718-.747C671.191 233.564 695.164 225.637 720 227l-1 2c-2.81.683-2.81.683-6.578 1.297q-2.09.352-4.18.707l-2.223.368c-21.588 3.6-40.991 7.623-59.019 20.628 13.662-2.312 27.235-5.025 40.799-7.85l5.566-1.154c9.856-2.04 19.677-4.184 29.447-6.601l2.428-.597c17.903-4.512 34.415-12.084 48.76-23.798l3.086-2.469c7.897-6.46 15.142-13.575 22.351-20.781l1.433-1.429c5.07-5.071 10-10.204 14.67-15.646 1.829-2.099 3.773-4.052 5.773-5.988 2.267-2.195 3.92-4.036 5.687-6.687h2v-2c1.328-1.34 1.328-1.34 3.25-2.937 3.518-2.972 6.857-6.071 10.188-9.25 12.814-11.887 27.916-20.75 43.032-29.37a545 545 0 0 0 4.728-2.727C904.47 104.382 920.388 100 937 100"/><path fill="#D73F3A" d="m909 549 1.667.584c7.6 2.485 15.23 3.53 23.145 4.479q2.074.257 4.147.517c8.655 1.07 17.32 2.009 26.007 2.765 4.51.395 8.973.903 13.452 1.555 14.802 2.11 27.975-.598 42.434-3.646 6.022-1.26 12.072-2.29 18.148-3.254-2.042 7.24-5.407 13.58-10.5 19.125-6.041 5.71-13.85 10.198-21.937 12.25A93 93 0 0 1 1001 584l-3.102.398c-12.903 1.311-24.914-.754-37.398-3.773l-2.499-.596c-4.753-1.214-8.914-2.794-13.213-5.167-2.05-1.075-2.05-1.075-5.6-1.674-8.839-2.043-16.019-8.675-22.813-14.375l-1.868-1.549c-1.566-1.35-3.043-2.803-4.507-4.264-.673-2.173-.673-2.173-1-4"/><path d="M1069 359v2q3.063-.215 6.125-.437l3.445-.247c3.184-.293 6.285-.747 9.43-1.316v2l-3 1c2.145 1.755 2.145 1.755 5 3 3.622-.797 5.91-1.94 9-4 2.188.375 2.188.375 4 1a466 466 0 0 1-3.375 2.5l-1.898 1.406L1096 367h-2l2 3c3.558-.61 6.683-1.578 10-3-.42 2.432-.855 3.823-2.437 5.75L1102 374h-2v3l1.863-.621L1112 373c-.5 2.125-.5 2.125-2 5-2.53 2.204-5.223 4.12-8 6l4 2v1l-5 1v2h-2.75l-3.25 1c-1.24 1.901-2.047 3.773-2.848 5.895-1.593 2.91-3.395 4.267-6.152 6.105-3.34 1.23-3.34 1.23-6.937 2.188l-3.59.98c-4.827 1.156-9.378 1.97-14.348 1.894l-2.367-.027L1057 408v-2l3.078-.664c8.154-1.848 15.276-4.098 22.664-8.164C1085 396 1085 396 1087 396l.402-1.934.535-2.503.528-2.497L1089 387l1-1c-.348-2.844-.675-4.505-2-7-3.763-3.66-7.85-6.342-12.883-7.883-2.374-.48-4.709-.866-7.117-1.117l.973 2.05c2.018 5.794 1.632 11.921 1.027 17.95-1.582 5.125-3.795 8.824-7.625 12.563-2.999 1.815-5.125 2.421-8.633 2.64-13.633.165-13.633.165-18.867-1.887-3.256-2.286-4.971-5.416-6.879-8.843C1027 392 1027 392 1027 388a367 367 0 0 0-3.437 2.813l-1.934 1.582c-1.884 1.613-1.884 1.613-2.629 4.605l13 4-1 3c-9.996-2.31-9.996-2.31-14.187-5.187L1015 397c.378-2.92.908-4.855 2.496-7.36 11.163-13.746 24.124-22.944 40.504-29.64 3.7-1.14 7.133-1.074 11-1"/><path fill="#D73E39" d="M1023 802c7.65 3.742 15.228 7.578 22.688 11.688l2.068 1.114c2.64 1.473 5.022 2.996 7.264 5.03.98 2.168.98 2.168.694 5.326-.737 3.968-1.837 7.684-3.155 11.487l-.738 2.177q-.78 2.303-1.568 4.604c-1.386 4.055-2.749 8.117-4.112 12.18l-.825 2.451c-15.153 43.645-15.153 43.645-22.043 89.08L1023 949l-2 2a37364 37364 0 0 1-.052-37.796q-.007-8.782-.023-17.563c-.12-62.942-.12-62.942 2.075-93.641"/><path d="m1059.438 783.625 2.308.414c2.254.961 2.254.961 4.367 3.078 2.163 3.304 3.38 6.677 4.637 10.383 1.311 3.557 2.499 6.737 5.203 9.484 1.979 1.224 3.889 2.155 6.047 3.016l3.5 1.813L1088 813l-1 3c-6.75-.875-6.75-.875-9-2l2.172 2.148c6.417 6.422 12.525 13.145 18.203 20.227 3.532 4.393 7.264 8.524 11.125 12.625 5.446 5.797 10.53 11.788 15.5 18q1.49 1.805 2.984 3.605c7.54 9.113 14.564 18.506 21.409 28.148a524 524 0 0 0 4.716 6.474c18.838 25.566 34.947 52.735 50.368 80.457q3.62 6.503 7.296 12.976l1.832 3.227q1.74 3.06 3.485 6.119l1.558 2.744 1.38 2.422C1221 1015 1221 1015 1221 1016h-7l-.971-1.914c-7.642-15.009-15.682-29.682-24.293-44.157a1265 1265 0 0 1-5.158-8.796c-6.196-10.624-12.58-21.02-19.578-31.133l-1.777-2.581c-4.707-6.83-9.451-13.634-14.223-20.419l-1.78-2.532c-9.783-13.864-20.336-26.98-31.34-39.887a455 455 0 0 1-8.318-10.081c-4.373-5.379-9.05-10.435-13.777-15.5-2.2-2.36-4.356-4.752-6.473-7.187-.54-.613-1.082-1.225-1.64-1.856a106 106 0 0 1-3.531-4.383c-6.007-7.44-12.593-10.688-21.075-14.58-4.508-2.169-8.772-4.79-13.078-7.33-2.897-1.704-2.897-1.704-5.808-2.754L1039 800l-1.187-2.187c.187-2.813.187-2.813 1.195-4.555 3.167-4.032 6.515-6.424 11.16-8.531 3.512-1.393 5.582-1.836 9.27-1.102"/><path fill="#E18A6C" d="M1056 480c3.787 1.648 6.804 4.127 10 6.688 8.66 6.77 17.921 13.504 29 15.312 7.642.58 14.626.008 22-2 1.665-.34 3.331-.677 5-1-1.036 5.906-2.728 11.356-4.875 16.938l-.74 2.008c-.752 1.894-.752 1.894-2.385 5.054-2.008 1.254-2.008 1.254-4 2q-1.501 1.499-3 3c-4.487 2.783-9.086 4.055-14.332 4.324q-2.303.049-4.605.051l-2.26.005c-1.939-.04-3.873-.203-5.803-.38l-3-2-.312 3.188c-.667 3.698-1.438 5.842-3.688 8.812h-2l.36-2.195c.396-2.972.669-5.806.64-8.805-1.494-3.536-1.494-3.536-4-6l-2.013-1.325C1064 522 1064 522 1062.827 519.571a751 751 0 0 1-3.014-9.446l-1.077-3.242c-2.51-7.928-4.962-16.92-3.248-25.254z"/><path d="M663.875 372.938c6.726 2.286 11.818 6.466 16.688 11.562 5.098 5.926 9.022 12.49 12.437 19.5l1.333 2.617c4.306 9.178 4.216 17.335 3.94 27.313 0 3.474.087 6.654.727 10.07 1.897 3.25 4.146 5.577 7 8a59 59 0 0 1 6 6c-.125 3.375-.125 3.375-1 6-2.687.625-2.687.625-6 1-2.875-.937-2.875-.937-5-2v-2h-2c-2.137-2.07-3.636-4.045-4.703-6.844-2.546-9.745-1.659-20.281-.297-30.156l-2.25 1.063c-2.75.937-2.75.937-5.062.562L684 425l-2-7c-1.307 3.92-1.37 7.92-1 12 .75 2.873 1.806 5.57 2.938 8.313l1.652 4.175L687 446l1 3c-2.687.25-2.687.25-6 0-2.625-1.375-2.625-1.375-5-4-1.653-3.237-2.861-6.552-4-10l-.727-2.078c-1.378-4.522-1.495-8.665-.87-13.344 1.772-7.647 5.98-13.504 11.242-19.18L684 399l-1.812-.875C680 397 680 397 677 395a83 83 0 0 0-4.25-1.437c-4.043-1.297-7.875-2.832-11.75-4.563-3.624 14.583-3.74 26.403 0 41 2.901 9.877 6.472 18.256 13.625 25.75L677 458c2.313 2.688 2.313 2.688 4 5v2h2v2c-5.928-2.629-10.083-7.494-13.969-12.574A213 213 0 0 1 664 447c-.56-.842-1.121-1.684-1.7-2.55C661 442 661 442 661 438h-2c-5.648-15.148-5.254-30.045-5-46-2.224 1.925-2.224 1.925-3 5h-2c-1.2-4.405-1.773-8.464-1-13 1.849-3.816 4.24-6.791 7.746-9.2 2.714-1.335 5.122-1.797 8.129-1.863M1033 344c2.063.438 2.063.438 4 1-.38 2.927-.925 4.88-2.496 7.402l-1.941 2.536-2.153 2.863-1.167 1.541c-2.295 3.06-4.517 6.173-6.743 9.283l-1.35 1.867A273 273 0 0 0 1018 375v1l2.676-2.816c6.903-7.155 13.494-13.424 22.324-18.184l2.105-1.195c7.855-4.233 15.786-6.395 24.735-6.164 7.91.9 15.142 3.703 22.16 7.359v2l4 1v2c-2.313-.868-4.561-1.758-6.727-2.953-6.77-3.734-13.566-4.753-21.21-5.36-10.065.368-19.744 4.127-28.345 9.188-5.147 3.37-9.448 7.734-13.718 12.125l-2.125 2.168c-4.726 5.103-8.78 10.503-10.508 17.332-1.232 9.232.648 18.461 2.15 27.562.498 3.031.969 6.066 1.436 9.102 1.97 18.425 1.97 18.425 8.715 35.238a88 88 0 0 0 3.652 3.828c3.119 3.286 4.949 7.382 6.266 11.684 1.386 6.981.702 14.035-1.535 20.746-1.43 3.185-3.372 5.703-5.559 8.406-3.242 4.202-5.468 8.667-6.242 13.934l-.25 3h-2v-9l-2.344.438c-14.702 2.62-14.702 2.62-22.281.312-3.915-1.418-7.041-3.271-10.375-5.75 1.75-.562 1.75-.562 4-1 1.336.322 2.669.658 4 1 5.954.467 10.638-.523 16-3 4.812-2.46 9.106-5.175 12.168-9.743 3.617-6.388 6.2-13.279 6.77-20.632-.08-2.932-.08-2.932-.938-5.625-1.586-2.223-1.586-2.223-3.625-4.312-6.286-7.095-7.743-15.787-9.63-24.85-1.513-7.798-2.85-15.622-4.12-23.463l-.405-2.465c-2.38-14.679-3.752-28.521 1.014-42.896 4.699-12.353 13.572-21.82 22.766-31.014M917 314c7.184 3.25 12.762 7.038 17.598 13.3 1.479 1.96 1.479 1.96 4.402 3.7-5.255-7.229-5.255-7.229-12-13l-3-1v-2c3.717.297 6.625.82 10 2.438 5.182 4.426 8.928 9.858 11.438 16.187L946 336l-1.973-.38c-7.093-1.33-14.193-2.367-21.351-3.276l-3.47-.448q-5.445-.701-10.894-1.396-3.624-.466-7.248-.934-6.945-.894-13.89-1.777-5.585-.71-11.165-1.453l-2.203-.29q-2.743-.361-5.485-.732c-8.852-.838-16.049.367-24.321 3.686-10.725 5.133-20.003 11.634-28.937 19.438L812 351h-2l1-3h2l.73-1.742c5.517-9.81 18.713-18.017 28.352-23.75 9.043-5.132 17.706-8.381 27.918-10.508l2.676-.676c14.473-3.308 30.41-2.401 44.324 2.676"/><path fill="#8F989C" d="M908 50c4.548-.284 8.344-.051 12.645 1.695 3.738 2.071 7.01 4.737 10.345 7.39C937.228 64.043 943.802 68.542 951 72v2l2.203.758c3.037 1.349 5.07 2.914 7.547 5.117l2.36 2.055C965 84 965 84 965.667 86.148L966 88c1.479 1.73 1.479 1.73 3 3-2.312-.187-2.312-.187-5-1-1.812-2.437-1.812-2.437-3-5v-2l-1.937-.687c-2.507-1.075-4.565-2.218-6.875-3.626-17.935-10.065-40.661-11.904-60.777-11.87-31.937.399-63.342 9.686-90.79 25.933-11.5 7.083-22.429 14.666-32.879 23.223-3.999 3.265-8.107 6.374-12.242 9.465l-1.96 1.466a623 623 0 0 1-3.72 2.752q-1.867 1.38-3.703 2.802c-1.654 1.252-3.382 2.404-5.117 3.542h-4c1.306-2.958 2.577-4.762 5.098-6.777l1.902-1.536 2.063-1.624 2.156-1.721c2.253-1.79 4.516-3.567 6.781-5.342l2.127-1.68a400 400 0 0 1 30.999-22.112 469 469 0 0 0 4.491-2.938c29.574-18.787 65.697-28.368 100.442-30.454 7.411-.182 14.643.99 21.941 2.184v-2l-3.664-.367-4.961-.508-2.39-.238a277 277 0 0 1-14.684-1.938c-7.515-1.088-14.904-1.292-22.489-1.261h-2.029c-9.954.017-19.556.72-29.326 2.656C832 61 832 61 828 61v-2c18.806-4.889 38.653-5.439 58-6l2.958-.087c21.959-.556 21.959-.556 32.042 3.087l-1-2c-2.805-.915-2.805-.915-6.062-1.625-1.105-.26-2.21-.52-3.348-.79-.855-.192-1.71-.386-2.59-.585z"/><path fill="#E59B7A" d="M1041.625 340.5c1.452.212 2.912.387 4.375.5l2-1c3.64-.271 7.289-.232 10.938-.25l3.017-.062c8.318-.044 15.715 1.224 23.244 4.855 5.868 3.878 11.335 7.964 15.801 13.457l1 3c-3.249 1.913-6.468 3.666-10 5-3.5-.562-3.5-.562-6-2l-2-2 4-1v-2l-2.57.992c-3.632 1.067-6.533 1.21-10.305 1.133l-3.492-.055L1069 361v-2c-11.198.967-21.746 5.777-30.996 12.023-2.422 1.912-4.72 3.903-7.004 5.977l-2.39 2c-4.873 4.13-9.348 8.454-12.61 14-.667 2.141-.667 2.141-1 4h-2c-.34-2.608-.427-4.43 0-7 3.393-7.786 9.118-14.003 15-20l2.238-2.348c7.51-7.358 16.726-12.42 26.73-15.593A52 52 0 0 1 1064 351l3.75-.312c8.495.292 16.821 2.111 24.125 6.5 1.388.917 2.77 1.847 4.125 2.812l-1-2-3-1-1.352-1.43c-2.15-2.048-4.227-2.722-7.023-3.695l-2.836-1.008c-7.47-2.322-15.097-2.884-22.781-1.219-14.842 4.606-25.903 12.615-36.313 23.836-1.6 1.813-3.169 3.64-4.695 5.516l-1-2c4.923-7.632 10.1-14.833 15.8-21.895 2.354-3.322 3.735-6.326 5.2-10.105l-4-1v-3c3.105-.964 5.42-.972 8.625-.5"/><path fill="#EBAA87" d="M665.988 352.723c4.84.445 8.74 2.024 13.012 4.277l2.121 1.11c5.097 3.219 7.961 7.572 10.866 12.787 4.051 7.715 7.115 15.89 10.179 24.035.841 2.086 1.801 4.07 2.834 6.068h-3l-.312 3.688c-.45 3.723-1.472 6.229-3.688 9.312l-2-1a241 241 0 0 1-3.562-7.812c-4.713-10.361-10.575-19.58-19.532-26.848-2.958-2.08-5.413-3.305-8.906-4.34-2.947.102-2.947.102-6 1q-2.343.505-4.687 1a71 71 0 0 0-7.313 2c-1.234-3.701-1.378-6.091-1-10 1.873-4.715 4.305-8.7 8.188-12 4.492-3.194 7.356-3.341 12.8-3.277"/><path fill="#B42E2C" d="M1022.625 541.5c7.179 1.976 13.983 1.773 21.375 1.5-2.054 2.34-3.556 3.832-6.495 4.941l-2.802.621-3.132.72-3.321.718q-3.405.768-6.809 1.54l-3.347.746c-3.345.772-6.649 1.649-9.958 2.56-8.63 2.345-16.527 3.3-25.27 1.18-4.563-1.028-9.017-1.488-13.678-1.772l-5.012-.35q-3.863-.257-7.725-.506c-9.042-.592-18.008-1.31-26.951-2.808l-2.122-.339c-3.02-.546-5.257-1.172-7.847-2.85L918 546q9.57-1.087 19.147-2.136 3.246-.36 6.49-.728c33.515-3.804 33.515-3.804 45.363-.136 4.64.455 8.423-.31 12.875-1.5 7.596-1.98 13.187-2.118 20.75 0"/><path fill="#8F989C" d="M851 174h2c-1.448 5.09-3.686 9.142-6.5 13.563l-1.338 2.115C832.165 209.931 815.107 228.383 796 243l-1.784 1.393c-31.076 24.26-64.988 35.63-103.554 42.449-23.646 4.18-45.674 8.701-65.03 23.838-3.369 2.97-6.284 6.181-9.109 9.668L615 322h-2c1.526-5.425 5.108-9.1 9-13 15.072-13.662 33.583-19.495 53-24 5.588-1.156 11.215-2.09 16.844-3.024 39.174-6.556 71.933-19.22 102.967-44.448 4.144-3.42 8.186-6.946 12.189-10.528l1.92-1.712c8.098-7.266 15.434-14.638 22.08-23.288l3.938-4.75c5.146-6.43 9.567-13.357 14.062-20.25z"/><path fill="#8F989B" d="M937 100v2h29l1 2-2.76.136c-34.297 1.741-63.158 6.635-92.908 25.102A189 189 0 0 0 863 135l-2.367 1.73c-4.894 3.7-9.46 7.72-13.98 11.864a208 208 0 0 1-4.479 3.969c-4.875 4.178-9.32 8.599-13.674 13.312l-4.184 4.484-2.148 2.31c-3.564 3.831-7.147 7.644-10.73 11.456l-1.946 2.078A959 959 0 0 1 804 192l-1.878 1.976-1.837 1.891-1.625 1.683c-1.857 1.622-3.312 2.67-5.66 3.45-2.25-.875-2.25-.875-4-2l1.817-1.8q3.388-3.364 6.77-6.733 1.455-1.447 2.913-2.891c5.203-5.158 10.289-10.343 15.054-15.91 1.821-2.098 3.762-4.046 5.759-5.978 2.267-2.196 3.92-4.037 5.687-6.688h2v-2c1.328-1.34 1.328-1.34 3.25-2.937 3.518-2.972 6.857-6.071 10.188-9.25 12.814-11.887 27.916-20.75 43.032-29.37a545 545 0 0 0 4.728-2.727C904.47 104.382 920.388 100 937 100"/><path fill="#8D969A" d="M722 104h2c-1.395 3.25-2.968 5.074-5.687 7.313-6.235 5.318-11.45 10.79-16.438 17.312-8.063 10.482-17.358 19.483-27.73 27.668-2.19 1.678-2.19 1.678-4.145 3.707l-3-1q1.65-3.128 3.313-6.25l1.863-3.516c1.474-2.613 2.84-4.989 4.824-7.234h2v-2c-11.195 6.03-18.219 19.487-24.998 29.784l-1.877 2.825-1.68 2.562L649 177h-2c1.509-5.159 3.762-9.59 6.375-14.25l1.326-2.37A261.6 261.6 0 0 1 691 111l3 1-1.54 1.871c-7.956 9.331-7.956 9.331-13.46 20.129l1.582-1.218c10.039-7.703 20.082-15.12 30.938-21.634 2.535-1.521 4.921-3.17 7.304-4.921z"/><path fill="#F7C8A7" d="M859 233c-1.37 4.804-3.49 8.683-6.254 12.797l-1.272 1.92a943 943 0 0 1-2.675 4.004 834 834 0 0 0-3.996 6.029c-5.077 7.64-10.42 14.624-16.803 21.25l-1.865 2.007c-8.33 8.906-19.252 14.756-30.135 19.993h-2v-3h2l.707-1.672c1.633-2.94 3.686-5.119 5.98-7.578l2.735-2.96L808 283a514 514 0 0 0 7-8l2.488-2.89a520 520 0 0 0 15.72-19.265q1.272-1.638 2.555-3.266a316 316 0 0 0 3.577-4.684c3.135-3.412 6.355-5.493 10.347-7.77l2.05-1.219C856.703 233 856.703 233 859 233"/><path fill="#EAAA87" d="m1112 385 2 1v5l-1.715.344c-2.556.734-4.552 1.82-6.848 3.156-2.522 1.463-4.656 2.573-7.437 3.5l-2 3-4-1 2.125 1.938L1096 405c.045 3.292-.518 6.054-2 9-3.062 1.375-3.062 1.375-6 2l-1 3c-7.04 3.83-15.065 5.061-23 5l-3-1v-2l7-1-8-1v-2l-3.254-.77-4.309-1.043-2.134-.501c-4.684-1.144-8.99-2.507-13.303-4.686-.937-2.687-.937-2.687-1-5l3-1c1.974.46 3.948.928 5.906 1.453 10.626 2.776 21.243 1.97 31.817-.543 4.346-1.207 8.487-2.408 12.277-4.91 2.495-2.866 2.495-2.866 4-6l1.25-2.375.75-1.625h6l-1-3q2.936-.542 5.875-1.062l3.305-.598z"/><path fill="#F6C7A7" d="M1029 160c5.468 2.07 10.296 4.962 15.313 7.938l2.968 1.76c17.67 10.583 34.055 22.578 49.044 36.724 1.892 1.783 3.795 3.554 5.698 5.324q5.132 4.78 10.226 9.598 2.252 2.129 4.513 4.25l2.176 2.094 1.777 1.699c1.471 1.847 1.754 3.343 2.285 5.613l2 1 2 1q.544 1.99 1 4l3 1c1.347 1.56 1.347 1.56 2.707 3.578l1.52 2.25 1.585 2.422 1.625 2.462c5.838 9.012 12.051 19.2 12.743 30.128.127 5.73.021 10.83-2.18 16.16l-3 2 .438-1.687c2.115-8.696 1.944-16.017-.22-24.7-4.857-14.402-14.966-26.893-24.573-38.445L1120 234v-2l-3-1c-1.754-1.707-1.754-1.707-3.562-3.812l-1.817-2.083C1110 223 1110 223 1109.098 220.863L1108 219a166 166 0 0 0-5-2c-12.946-6.649-25.538-14.015-37-23l-1.939-1.515c-8.073-6.351-15.854-12.952-23.354-19.97-3.31-3.076-6.722-6.024-10.16-8.956L1029 162z"/><path fill="#F8F9F8" d="M894 369c7.327 1.163 12.217 3.362 18 8 3.345 2.762 6.461 5.464 9 9 .462 2.9.02 4.178-1 7l2.75-.75L926 392c2.375 1.813 2.375 1.813 4 4v2c-.648.105-1.297.21-1.965.32q-4.55.742-9.097 1.493l-3.343.545c-5.835.966-11.585 2.056-17.345 3.392-9.967 2.032-21.016 2.763-30.969.348-2.517-.912-4.901-1.875-7.281-3.098v-1c3.47.458 6.674.891 10 2 4.905.6 9.153.228 13.75-1.625 2.864-1.42 5.05-2.868 7.188-5.25 2.123-3.218 3.28-5.356 4.062-9.125.327-5.752.222-11.35-1-17"/><path fill="#8D969A" d="M1014 121c23.793-.89 46.425 6.437 67.402 17.2 7.13 3.825 13.898 8.208 20.598 12.738l2.126 1.433c1.664 1.155 3.275 2.385 4.874 3.629v2h2v2l1.734.223c2.266.777 2.266.777 4.407 2.773l2.109 2.441 2.14 2.434L1123 170v2h-2l-2.312-2.875c-7.826-9.403-19.223-16.1-29.688-22.125l-3.414-1.992c-7.304-4.142-14.809-7.441-22.649-10.446l-2.705-1.037c-4.4-1.635-8.54-2.978-13.232-3.525.895.508 1.79 1.016 2.71 1.54 7.15 4.067 14.262 8.185 21.29 12.46l-3 1a128 128 0 0 1-8.187-2.437l-2.272-.737c-1.85-.6-3.696-1.212-5.541-1.826v2l5 1-1 4 2.438.75c4.305 1.51 8.416 3.352 12.562 5.25-1.531.633-1.531.633-4 1a85 85 0 0 1-7.5-2.125l-2.166-.706c-10.379-3.443-19.975-7.879-29.549-13.135l-2.098-1.143-1.863-1.03c-1.92-.906-3.754-1.414-5.824-1.861v-2c6.205.483 12 1.333 18 3v-2l-12-2v-2q2.656-.04 5.313-.062l2.988-.036C1035 129 1035 129 1038 130v-4l-24-3z"/><path fill="#8B9294" d="m943.375 86.875 2.902-.012 2.809.004 2.501.004c2.551.136 4.923.57 7.413 1.129v2l-3.934-.105c-35.188-.65-72.092 5.894-103.181 23.028-6.662 3.806-13.31 7.785-19.096 12.847L830 128h-3l-.789 1.781c-1.29 2.364-2.653 3.86-4.59 5.723l-2.028 1.977-2.155 2.082c-5.478 5.376-10.558 10.761-15.301 16.796-2.425 2.997-5.01 5.823-7.637 8.641a196 196 0 0 0-10 11.563c-8.993 11.059-18.474 18.994-30.5 26.437l-2.82 1.781C749 206 749 206 747 206c.7-1.812.7-1.812 2-4 2.145-1.5 2.145-1.5 4.813-3 10.178-6.22 18.612-14.855 26.187-24 1.869-2.193 3.747-4.377 5.625-6.562a1176 1176 0 0 0 9.371-11.008c6.389-7.57 13.102-14.76 20.067-21.805l2.49-2.544 2.357-2.354 2.098-2.107C824 127 824 127 826.193 126.455L828 126l1-3a99 99 0 0 1 6.313-4.75l1.937-1.347A663 663 0 0 1 843 113l2.754-1.895c27.36-17.41 65.639-24.362 97.621-24.23"/><path fill="#E69B7A" d="M908.125 352.563c6.586 3.684 12.411 9.282 17.063 15.187C927 371 927 371 927.125 373.813L926 376c-2.57 1.137-2.57 1.137-5 2l-2.414-2.484q-1.605-1.635-3.211-3.266l-1.582-1.633c-4.036-4.086-8.036-7.588-13.504-9.629-11.718-2.972-23.3-4.168-35.289-1.988v2c-2.687 1.125-2.687 1.125-6 2-2.875-.875-2.875-.875-5-2v2h2v3c-5.957-.488-5.957-.488-8-1-1.762-1.543-1.762-1.543-3-3 8.831-6.799 18.737-10.45 29.688-12.312 10.998-1.399 23.08-1.69 33.437 2.875"/><path fill="#8C9599" d="M599 479h2q.756 3.874 1.5 7.75l.434 2.21c.655 3.433 1.066 6.532 1.066 10.04h2l-1-10h2l4 12 1.875-2 2.125-2h2l4 10 1-5h2l1 5h2l-.5-2c-1.316-7.896.046-15.213 1.5-23l2 1c.21 2.076.315 4.164.375 6.25.719 11.665 4.495 21.243 10.07 31.37.938 1.75 1.755 3.563 2.555 5.38-.406 2.215-.406 2.215-1 4-3.659-.993-5.891-2.664-8.55-5.258a454 454 0 0 1-3.763-3.867l-1.955-1.996A812 812 0 0 1 623 514c0 2.915.409 5.342 1 8.188l.563 2.73L625 527c-1.867-.777-1.867-.777-4-2-1.195-1.691-1.195-1.691-2.125-3.562L617 518l-2-1v3h-2a1268 1268 0 0 1-5.312-9.375l-1.514-2.637c-3.821-6.832-6.786-13.503-7.467-21.37l.106-2.743.082-2.82z"/><path fill="#EBAA87" d="m1016 424 3 1c1.014 1.677 2.02 3.36 2.946 5.087 1.269 2.303 2.749 4.438 4.251 6.593 7.808 11.234 14.318 23.289 20.803 35.32l1.244 2.083L1049 476l-1 4h-13l-2-4.375c-1.917-3.948-3.906-6.611-7-9.687-5.26-6.224-6.08-13.807-7.541-21.589-1.175-6.76-1.95-13.509-2.459-20.349"/><path fill="#8E979B" d="M981 48c7.05-.35 12.617-.192 19 3l1 3-1 1 2.45.586 3.237.789 3.2.773c2.817.771 5.43 1.707 8.113 2.852v1h-10l1 2c2.73.662 5.43 1.227 8.188 1.75 8.42 1.723 16.218 4.142 23.812 8.25l1 2c-4.153-.751-8.135-1.89-12.187-3.062-6.024-1.684-11.564-2.467-17.813-1.938l6 3c-1.61.59-1.61.59-4 1a99 99 0 0 1-6.25-1.437c-6.916-1.608-13.178-1.747-20.254-1.473-3.413-.088-5.51-.483-8.496-2.09l-1-2c5.36-2.257 9.198-3.363 15-3v-2l-26 2v-2c9.42-2.678 17.337-3.982 27-2-4.79-2.674-8.423-3.206-13.937-3.187-2.022.047-4.043.105-6.063.187v-2c5.57-1.592 10.211-2.207 16-2v-2l-8-1z"/><path fill="#828D99" d="M1003 139c6.386.683 12.554 1.883 18.813 3.313l2.955.67c5.847 1.363 11.44 2.954 17.017 5.2 2.179.804 4.178 1.202 6.465 1.567 9.785 1.985 19.188 8.603 27.117 14.426 2.547 1.765 5.167 3.32 7.856 4.857 31.072 17.845 54.39 45.908 72.313 76.4C1161.706 256.25 1168 268.235 1168 281h-2c-.26-1.276-.26-1.276-.523-2.578-6.378-27.5-24.4-52.772-43.436-73.168A1572 1572 0 0 0 1118 201l-2.316-2.512C1104.779 187.03 1091.642 177.894 1078 170l-3.246-1.98c-14.237-8.51-29.514-14.085-45.191-19.333l-1.921-.645c-8.137-2.72-16.286-5.098-24.642-7.042z"/><path fill="#EAA785" d="M940 555q6.168.58 12.335 1.169l4.325.41c7.826.743 15.621 1.543 23.403 2.671 10.965 1.415 21.421-.108 32.165-2.321 3.898-.768 6.935-1.051 10.772.071-8.18 8.414-8.18 8.414-13.687 10.188-3.974.867-7.962 1.21-12.016 1.468-2.323.221-2.323.221-4.285 1.375-2.542 1.224-4.138 1.167-6.95.969-12.724-1.32-25.278-5.833-37.25-10.187l-2.014-.72c-1.631-.619-3.22-1.349-4.798-2.093z"/><path fill="#FBFBFA" d="M1068 370c3.27-.273 5.877-.382 9 .68 4.823 2.28 9.612 5.134 13 9.32.938 3.875.938 3.875 1 7h-2l.055 1.723c-.223 2.899-.656 4.704-2.055 7.277-6.977 4.936-15.634 8.345-24 10-3.625.188-3.625.188-6 0v2c-1.875-.375-1.875-.375-4-1l-2-2 1.793-.297c3.683-.697 6.725-1.435 10.02-3.265 3.184-3.549 5.012-6.796 6.187-11.438.505-6.721.549-13.403-1-20"/><path fill="#9DA5A5" d="m784 285-1 3c-17.31 14.547-44.76 20.954-66.45 25.105-8.725 1.508-17.57 2.415-26.376 3.325-18.438 1.977-35.97 6.49-51.174 17.57-10.396 8.186-17.196 17.87-22.25 30l-.75 2h-2c1.03-7.917 4.497-14.464 9.082-20.941 9.592-12.078 20.293-20.025 34.543-25.747 12.61-4.824 25.287-6.335 38.625-7.75 28.534-3.06 57.613-10.138 82.61-24.792C782 285 782 285 784 285"/><path fill="#EBAA87" d="M792 504h2a105 105 0 0 1 3.5 5c5.415 7.591 11.608 12.803 20 16.875 9.68 4.032 19.398 5.133 29.809 3.838 7.264-1.026 14.508-2.218 21.691-3.713l-.496 1.703c-.533 2.428-.603 4.566-.567 7.047l.028 2.422L868 539l-1.86.43c-2.215.513-2.215.513-4.39 1.695-3.755 1.195-6.956.494-10.75-.125a459 459 0 0 0-5-.562l-2.312-.254L842 540v-2l-3.113-.734c-17.479-4.197-17.479-4.197-23.887-7.266l-1-2-2.191.273L809 528c-6.905-5.143-12.315-12.25-16-20-.652-2.29-.652-2.29-1-4"/><path fill="#8E979B" d="M1059.57 102.212c7.552 2.335 15.052 4.99 21.43 9.788l1 3c-3.382-1.04-6.524-2.25-9.688-3.812-7.672-3.518-16.151-5.162-24.312-7.188l4 4-2 1 2.59 1.023 3.347 1.352c1.103.44 2.205.882 3.34 1.336L1062 114l1 2a249 249 0 0 1-12.188-1.937c-12.635-2.32-24.925-4.159-37.812-4.063v-2c5.635-1.205 11.145-1.113 16.875-1.062l2.953.013q3.585.018 7.172.049l-3.867-.805-5.008-1.07-2.55-.527-2.442-.528-2.254-.476C1022 103 1022 103 1020 101h19c-13.71-3.134-25.97-4.537-40-4v-2c19.31-5.358 42.064 1.788 60.57 7.212"/><path fill="#E7D3C2" d="M959 88c12.506 3.088 12.506 3.088 16 6l.438 2.063L976 98c2.996 1.305 2.996 1.305 6 2v2h-3l1.5 1.875L982 106v2l1.625.813L992 113l-1 2-7-1 2.25 1.25c2.652 1.687 4.617 3.459 6.75 5.75l-2 4 5 1v2l-3 1 6 3v3l-4 1 3 5-6-1-1 5h-3l1-6-7-1v-2a375 375 0 0 1 6-4l1-2-2.375-.812L984 128l-2-3h4v-2l-4-1-1-7-7-2 1-2h5v-2l-9-2v-3l-5-1v-1l6-2-3-4 1-2c-.71-.182-1.42-.364-2.152-.55l-2.785-.763-2.778-.738L960 91z"/><path fill="#E9A986" d="m969 585 3.738.492c5.82.645 11.6.655 17.45.633l3.193.012c5.016-.007 9.671-.258 14.619-1.137 2.875.938 2.875.938 5 2-.988 3.458-2.11 5.11-4.687 7.688-3.06 2.645-6.412 3.421-10.313 4.312-2.964.31-5.896.38-8.875.375l-2.396.004c-6.09-.11-10.43-1.238-15.729-4.379l1-3-3-1z"/><path fill="#EBAA87" d="M661 389q3.21 1.069 6.418 2.148 2.493.824 5.008 1.579c4.633 1.417 7.958 2.89 11.574 6.273-1.343 2.93-2.871 5.21-5 7.625l-1.562 1.79A101 101 0 0 1 674 412a101 101 0 0 1-8.125-.375l-2.285-.172A677 677 0 0 1 658 411l-1 4c-.246-7.817-.108-15.415 2-23z"/><path fill="#A27E30" d="m1057 377 9 1c.359 5.422.67 10.427-1.687 15.438-1.91 3.303-4.073 5.485-7.313 7.562-3.773 1.258-7.087 1.473-11 1-4.84-1.335-8.84-2.979-12.625-6.312-1.375-2.688-1.375-2.688-1.75-6.375L1032 386l2-2c1.95.152 1.95.152 4 1 1.457 1.629 1.457 1.629 2.813 3.563 1.483 1.917 1.483 1.917 3.187 3.437 3.543.75 3.543.75 7 0l2.813-.437L1056 390c1.159-2.946 1.774-5.845 2-9z"/><path fill="#8F989C" d="M762 100h2v2a189 189 0 0 1-7.25 5.438c-9.33 6.826-17.594 14.367-25.75 22.562-.73.718-1.46 1.436-2.21 2.176-3.556 3.51-7.035 7.032-10.29 10.824-6.144 7.138-12.93 14.354-20.5 20h-2c1.592-4.93 4.459-8.622 7.563-12.687l1.632-2.151c14.05-18.33 31.321-31.17 50.305-43.975l1.905-1.292A136 136 0 0 1 762 100"/><path fill="#B79035" d="m889 375 3 1c.393 4.26.68 8.265-.902 12.305-1.852 3.134-3.995 5.59-6.535 8.195-5.747 2.42-11.427 2.215-17.563 1.5-3.879-1.77-5.782-3.787-8.812-6.75-2.04-3.03-2.563-4.186-3-7.625L855 380c2.125-.437 2.125-.437 5 0 1.688 1.645 3.068 3.383 4.473 5.273 1.748 1.976 3.05 2.83 5.527 3.727 2.268.14 2.268.14 4.563-.187l2.316-.231c2.172-.452 2.172-.452 3.808-1.879 1.46-1.893 2.064-3.484 2.75-5.765.747-2.125.747-2.125 1.563-3.938 2-1.562 2-1.562 4-2"/><path fill="#8D969A" d="M975 139v2l-2.754 1.102-1.814.725-4.07 1.627a2764 2764 0 0 0-9.784 3.929 900 900 0 0 1-17.777 6.972c-10.862 4.12-21.618 8.228-32.043 13.368-2.29 1.06-4.294 1.795-6.758 2.277.97-2.325 1.765-3.804 3.717-5.429l2.072-1.305 2.326-1.478 2.51-1.538 2.611-1.604A870 870 0 0 1 921 155l2.026-1.24c11.812-7.136 24.63-9.53 38.052-12.161 2.54-.52 5.039-1.11 7.547-1.763C972 139 972 139 975 139"/><path fill="#8E979B" d="M960 134v2l-1.912.491c-7.835 2.07-15.49 4.556-23.15 7.196l-1.921.662C922.409 148.02 912.082 152.06 902 157l-3.004 1.441c-6.428 3.285-12.132 7.43-17.872 11.777-2.942 2.226-5.711 4.31-9.124 5.782 2.224-4.998 5.732-7.69 10-11 3.988-2.87 8.054-5.624 12.133-8.363 2.969-2 5.791-4.127 8.617-6.324C918.477 139.373 940.973 134 960 134"/><path d="M884.29 344.84c8.356-.313 16.958.968 24.581 4.484 2.487 1.442 4.806 2.984 7.129 4.676.634.43 1.268.859 1.922 1.3 5.669 4.252 9.075 10.375 12.078 16.7v3h-2c-1.262-1.941-1.262-1.941-2.687-4.562-3.923-6.71-8.163-11.385-14.938-15.25A213 213 0 0 0 906 353l-2.5-1.25c-3.8-1.14-7.55-1.49-11.5-1.75l-2.465-.164C877.9 349.45 864.412 351.662 854 357c-6.347 3.917-12.478 8.24-18.348 12.84L834 371h-2c1.328-3.047 2.633-4.797 5.273-6.805l1.982-1.51 2.12-1.56 2.18-1.613c10.407-7.545 21.188-12.535 34.008-14.2 2.24-.186 4.483-.315 6.726-.472"/><path fill="#9DA5A7" d="M790 287h2c-1 3-1 3-2.496 4.508l-1.942 1.617c-2.298 1.934-4.55 3.864-6.718 5.945-20.416 19.507-48.649 32.137-75.782 38.868-7.457 1.76-14.38 2.778-22.062 2.062l2-3c2.879-.59 2.879-.59 6.563-.937 28.233-3.24 54.581-15.354 77.437-32.063 3.73-2.926 7.37-5.951 11-9a912 912 0 0 1 5.563-4.562l2.44-2.004z"/><path fill="#8F989C" d="M729 112h2c-1.391 3.235-2.947 5.057-5.654 7.287-4.16 3.525-8.033 7.255-11.881 11.115l-2.068 2.065q-2.145 2.145-4.288 4.293a3400 3400 0 0 1-6.51 6.504l-4.197 4.2c-.638.638-1.277 1.274-1.935 1.93-6.927 6.963-13.237 14.433-19.46 22.024-2.745 3.29-5.569 6.025-9.007 8.582v-3a118 118 0 0 1 5.313-6.312c4.233-4.812 8.33-9.68 12.25-14.75 4.495-5.798 9.16-11.426 13.93-17q2.548-2.988 5.015-6.043c5.81-6.749 13.29-11.871 20.554-16.958l1.698-1.194c1.387-.953 2.811-1.853 4.24-2.743"/><path fill="#D59071" d="m1112 385 2 1v5l-1.715.344c-2.556.734-4.552 1.82-6.848 3.156-2.522 1.463-4.656 2.573-7.437 3.5l-2 3-4-1v3l-2.125.734c-4.486 1.585-8.855 3.157-13.062 5.391-5.044 2.614-9.845 3.742-15.5 4.125-3.21-.242-5.435-.855-8.313-2.25v-2l-2.195-.148c-5.22-.404-9.903-.865-14.805-2.852l1-2 3.297.656c14.952 2.88 27.702 3.185 42.45-1.535 3.97-1.558 5.953-2.752 8.69-6.121l1.563-3 1.25-2.375.75-1.625h6l-1-3q2.936-.542 5.875-1.062l3.305-.598z"/><path fill="#ADB2B4" d="M707 297v2l-2.193.212c-24.266 2.392-48.287 5.046-68.932 19.226-10.08 7.498-16.917 15.588-22.875 26.562l-1 3h-2c.867-7.01 3.834-12.37 8-18 7.373-8.936 15.762-15.59 26-21l2.629-1.418C665.415 298.261 686.35 296.752 707 297"/><path fill="#9CA4A6" d="m811 140 1 3c-1.395 4.196-4.7 7.35-7.562 10.625l-1.63 1.884c-3.83 4.412-7.739 8.749-11.671 13.07-2.257 2.557-4.385 5.193-6.512 7.858-9.06 11.09-18.54 19.084-30.625 26.563l-2.82 1.781C749 206 749 206 747 206c.7-1.812.7-1.812 2-4 2.145-1.5 2.145-1.5 4.813-3 10.178-6.22 18.612-14.855 26.187-24 1.869-2.193 3.748-4.377 5.625-6.562l3.11-3.63L792 161l1.717-2.003q2.576-3.002 5.158-5.997c.523-.61 1.046-1.22 1.584-1.85 3.36-3.891 6.867-7.553 10.541-11.15"/><path fill="#9DA5A7" d="m699 281 2 4-2.76.471c-38.627 6.478-38.627 6.478-72.607 25.209-3.37 2.97-6.285 6.181-9.11 9.668L615 322h-2c1.526-5.425 5.108-9.1 9-13 14.25-12.918 31.765-19.078 50.208-23.4 8.859-1.903 17.836-3.244 26.792-4.6"/><path fill="#C5C3C0" d="m777 313 2 1c-34.3 59.2-34.3 59.2-53 70-3.754 1.251-7.104 1.488-11 1-3.87-1.2-6.904-2.953-9.836-5.754-1.511-1.7-2.924-3.34-4.164-5.246v-2l3 1a210 210 0 0 1 4 5l2 1v2c8.274.639 8.274.639 16.36-.762 2.107-1.24 3.819-2.603 5.64-4.238l2.352-2.031c9.804-9.107 16.31-20.607 23.03-32.037 5.943-9.99 12.603-19.665 19.618-28.932"/><path fill="#ACB1B3" d="M1100 182c16.45 7.345 30.186 25.803 40.607 40.037C1152.6 238.939 1164.53 257.282 1168 278v3h-2l-.523-2.578c-6.383-27.522-24.413-52.71-43.416-73.153A853 853 0 0 0 1118 201l-2.633-2.758c-4.386-4.493-8.724-8.516-13.969-11.988L1100 185z"/><path d="M912 500h2c-2.744 6.123-7.683 10.248-12.96 14.238-4.459 3.125-8.957 6.133-13.626 8.934l-1.765 1.06a474 474 0 0 1-4.872 2.846c-2.98 2.063-4.813 3.878-6.777 6.922-.683 2.648-.683 2.648-.75 5.313l-.172 2.675L873 544h-2c-2.417-3.7-3.87-6.173-4.562-10.562.562-3.438.562-3.438 2.632-6.41 2.976-3.398 6.3-5.07 10.367-6.903q2.145-1.023 4.286-2.055l2.168-1.038c8.74-4.277 16.824-9.198 24.218-15.563z"/><path fill="#EBAA87" d="m1084 425 1 2-3.25 4.188-1.922 2.492a113 113 0 0 1-4.328 5.132L1074 441l.516 1.738c.696 3.254-.255 5.493-1.266 8.637-.345 1.1-.69 2.202-1.047 3.336-2.379 6.503-2.379 6.503-4.203 9.289l-6 1-4 13h-2c1.691-15.421 7.21-28.347 16-41 3.594-4.606 7.24-8.596 12-12"/><path fill="#120A08" d="M1082.992 350.832c3.114 1.21 6.046 2.625 9.008 4.168v2l4 1v2c-2.313-.868-4.561-1.758-6.727-2.953-6.77-3.734-13.566-4.753-21.21-5.36-10.065.368-19.744 4.127-28.345 9.188-9.246 6.051-18.54 15.378-23.718 25.125l-2-1c.188-2.687.188-2.687 1-6a125 125 0 0 1 5-5l2.727-2.867c6.212-6.49 12.343-11.756 20.273-16.133l2.113-1.203c12.606-6.77 24.329-7.397 37.88-2.965"/><path fill="#8F989C" d="M949 125v2l-3.05.559c-11.163 2.233-20.626 6.285-30.762 11.373-3.097 1.512-6.25 2.819-9.438 4.13-6.343 2.666-12.347 5.805-18.375 9.106C878.473 157 878.473 157 876 157l1-3c2.015-1.483 2.015-1.483 4.68-3.04l2.976-1.746 3.219-1.839 3.287-1.89c14.145-8.042 27.852-15.08 43.838-18.485l3.008-.676C941.82 125.507 945.075 125 949 125"/><path d="M708 479c3.006.188 5.196.483 7.75 2.125 1.955 2.932 2.67 5.396 3.25 8.875-.652 2.703-1.616 4.528-3 7-2 1-2 1-5.375 1.313-3.625-.313-3.625-.313-6-1.813-1.896-2.916-2.455-5.098-2.73-8.535.105-1.965.105-1.965 1.355-4.84C705 481 705 481 708 479"/><path fill="#F7C8A7" d="M1017 474c2.499 1.169 4.673 2.497 7 4v2l-1.74.519q-3.944 1.176-7.885 2.356l-2.738.816-2.676.801-2.6.775c-1.973.613-3.921 1.304-5.861 2.014L998 488c-2.375-1.375-2.375-1.375-4-3 .063-2.187.063-2.187 1-5 3.049-3.04 6.467-4.787 10.438-6.375 4.16-.73 7.492-.762 11.562.375"/><path fill="#ADB2B4" d="M1103 214c4.828 2.156 8.002 5.672 11.688 9.375l2.087 2.04 1.987 1.983 1.811 1.803c1.554 1.96 1.875 3.4 2.427 5.799l2 1 2 1q.544 1.99 1 4l3 1c1.347 1.56 1.347 1.56 2.707 3.578l1.52 2.25 1.585 2.422 1.625 2.462c5.838 9.012 12.051 19.2 12.743 30.128.127 5.73.021 10.83-2.18 16.16l-3 2 .438-1.687c2.115-8.696 1.944-16.017-.22-24.7-4.857-14.402-14.966-26.893-24.573-38.445L1120 234v-2l-3-1c-1.754-1.707-1.754-1.707-3.562-3.812l-1.817-2.083C1110 223 1110 223 1108.95 220.816L1108 219c-2.538-1.283-2.538-1.283-5-2z"/><path fill="#EBAA87" d="m681 417 2 1c.73 2.314 1.401 4.648 2 7l8-1v23l-4 1-3-2a93 93 0 0 1-3.187-7.625l-.827-2.082c-2.225-5.947-2.538-10.98-1.486-17.293zM1086 354l3 2-1 3c-4.353 1.95-8.147 2.221-12.875 2.125l-3.492-.055L1069 361v-2h-6l-1-3-10-1c2-2 2-2 4.102-2.633 10.662-2.08 19.392-1.277 29.898 1.633"/><path fill="#FDFDFC" d="M952 560c5.244.535 10.334 1.442 15.5 2.5 13.755 2.783 27.33 4.317 40.95.156 2.622-.674 4.855-.773 7.55-.656l-1 3c-5.553 2.625-11.702 3.365-17.773 3.691-2.263.188-2.263.188-4.207 1.336-2.547 1.227-4.14 1.172-6.957.973-11.59-1.16-23.08-5.248-34.063-9z"/><path fill="#9DA5A7" d="m822 165 3 1-2 4-.871 1.938c-1.21 2.209-2.49 3.59-4.317 5.312a109 109 0 0 0-7.125 7.563c-10.18 11.768-10.18 11.768-15.738 15.601L793 201c-2.122-.963-2.122-.963-4-2l1.817-1.8q3.388-3.364 6.77-6.733 1.455-1.447 2.913-2.891c5.204-5.16 10.32-10.333 15.066-15.92 2.03-2.345 4.208-4.498 6.434-6.656"/><path fill="#8F989C" d="m942 120.938 2.875.027L947 121v2l-2.812.375c-9.943 1.442-19.697 3.577-29.446 5.979q-2.091.514-4.184 1.02C899.32 133.098 888.51 136.243 879 143h-2l1-3c16.043-11.604 35.066-16.026 54.352-18.633 3.25-.327 6.384-.47 9.648-.43"/><path fill="#9BA4A6" d="M599 443h2c-.956 4.233-2.53 8.195-4.062 12.246-2.253 6.618-2.13 13.018-2.125 19.942l-.002 3.491c.058 9.551.822 18.875 2.189 28.321h-2a801 801 0 0 1-1.937-5.562l-1.09-3.13c-3.368-11.454-3.334-25.323-.793-36.968 1.66-6.631 3.963-12.65 7.82-18.34"/><path fill="#E7D3C2" d="m883 194 3 1-1.582 1.695a244 244 0 0 0-13.043 15.43C858.431 228.735 858.431 228.735 851 233h-3c1.659-3.925 4.307-6.935 7.063-10.125l1.485-1.733q2.22-2.577 4.452-5.142l2.445-2.828c4.009-4.553 8.122-8.72 12.758-12.633 2.403-2.058 4.595-4.269 6.797-6.539"/><path d="M985.313 496.813c3.15 1.29 5.573 2.461 7.687 5.187-.312 2.688-.312 2.688-1 5l-2.062-.875c-6.743-2.582-12.192-3.4-19.375-3.25l-2.506.027c-2.02.024-4.038.06-6.057.098v-4c8.064-4.216 14.638-5.505 23.313-2.187"/><path fill="#F0D9C3" d="M736 406c2 2 2 2 2.53 3.964l.4 2.403.466 2.668.479 2.84c1.282 7.222 2.77 13.984 5.39 20.848C746 441 746 441 746 445h2l.734 2.09c2.175 6.098 4.54 12.038 7.266 17.91-2.4-.979-3.835-1.8-5.492-3.82-8.451-14.085-14.73-32.143-15.64-48.578.007-1.868.068-3.735.132-5.602z"/><path fill="#B8BEBD" d="M615 304h2c-1.513 4.312-3.789 7.915-6.312 11.688C599.417 332.959 596.284 348.636 595 369h-2c-.565-15.736.962-30.63 8-45 4.004-7.11 8.518-13.943 14-20"/><path fill="#8B9294" d="M699 137c1.125 1.75 1.125 1.75 2 4-1.124 3.77-3.91 6.079-6.687 8.75-5.348 5.249-10.226 10.738-15.012 16.496l-1.461 1.749a534 534 0 0 0-2.846 3.438c-2.74 3.286-5.561 6.014-8.994 8.567v-3a118 118 0 0 1 5.313-6.312c4.251-4.833 8.37-9.723 12.312-14.813 4.98-6.418 10.134-12.668 15.375-18.875"/><path fill="#C6443E" d="M1038 552c-1.86 6.594-4.695 12.75-9.625 17.563L1026 571h-3l-.375-2.875L1022 565l-2-2 1.313-1.46c.556-.633 1.113-1.264 1.687-1.915l1.688-1.898L1026 556v-2a909 909 0 0 1 4.313-1l2.425-.562C1035 552 1035 552 1038 552"/><path fill="#C0C7C8" d="m654 321 3 1c-2.388 2.687-4.864 4.082-8.062 5.688-11.313 6.059-20.455 14.472-27.25 25.375-2.406 4.188-4.162 8.359-5.688 12.937h-2c1.03-7.917 4.497-14.464 9.082-20.941 7.966-10.032 16.893-17.817 28.527-23.286z"/><path fill="#E9A886" d="m1112 385 2 1v5l-1.715.344c-2.556.734-4.552 1.82-6.848 3.156-2.522 1.463-4.656 2.573-7.437 3.5l-2 3c-2.625.188-2.625.188-5 0 0-3.196.547-4.417 2-7.187l1.125-2.168L1095 390h6l-1-3q2.936-.542 5.875-1.062l3.305-.598z"/><path fill="#0B0807" d="M1018 601v2c-9.176 3.106-18.23 3.726-27.812 4.188q-2.234.122-4.467.248c-5.91.322-11.8.612-17.721.564v-2c16.362-3.462 33.272-5.132 50-5"/><path fill="#E79C7B" d="m860 433 2 1-.879 5.957c-.26 2.246-.26 2.246.879 5.043.07 2.573.094 5.116.063 7.688l-.014 2.126q-.02 2.594-.049 5.186c-6-3-6-3-7.75-4.937C853 452 853 452 853.078 449.762c1.061-6.318 3.517-11.382 6.922-16.762"/><path fill="#8F989C" d="m700 312 1 3c-.79.105-1.581.21-2.396.32-3.64.49-7.278.991-10.917 1.493l-3.767.501c-6.67.928-13.083 2.087-19.542 4.009-2.443.695-4.882 1.21-7.378 1.677l-1-3c8.56-3.327 16.842-5.535 25.938-6.812l2.65-.375A101 101 0 0 1 700 312M751 328l2 1c-12.03 13.15-26.556 21.765-43.406 27.336C707 357 707 357 703 357v-3l2.063-.375c15.657-3.331 27.997-11.57 40.365-21.381A217 217 0 0 1 751 328"/><path fill="#8B9294" d="M981 48c7.05-.35 12.617-.192 19 3l1 3c-2.917 1.897-5.068 2.91-8.558 3.248-2.944.047-5.874.014-8.817-.06l-3.098-.042Q976.763 57.093 973 57v-2c5.57-1.592 10.211-2.207 16-2v-2l-8-1z"/><path fill="#E99B77" d="M867 470c3.761.624 6.19 2.348 9.25 4.563l2.703 1.94L881 478l-1 3 2.875-.062C886 481 886 481 888 482v2l14 2-1 2c-9.355-.321-16.763-1.762-24.773-6.715-6.755-4.577-6.755-4.577-9.227-8.285z"/><path fill="#9DA5A7" d="M1055 88c1.95 1.688 1.95 1.688 3 3-3.854-.406-7.084-1.379-10.625-2.875-12.403-5.13-24.659-6.302-37.937-6.187l-3.057.013q-3.69.018-7.381.049v-2c19.274-3.212 38.352-.195 56 8"/><path fill="#8B9295" d="m646 509 2 1c.71 1.855.71 1.855 1.375 4.188 1.328 4.227 2.913 7.313 5.625 10.812l2 1-1-8h2l.77 2.266 1.043 2.984 1.019 2.953c1.112 2.662 2.42 4.532 4.168 6.797v2l4 1v2c-7.33-2.574-13.326-7.917-18.5-13.625-2.374-2.957-3.701-5.621-4.5-9.375-.125-3.375-.125-3.375 0-6"/><path fill="#FDFDFC" d="M848 382h2l.664 1.688c2.4 5.775 5.383 10.476 9.336 15.312-3.539-.346-5.844-.907-8.922-2.742l-2.828-2.133-2.86-2.117C843 390 843 390 841 387a466 466 0 0 1 3.375-2.5l1.898-1.406z"/><path fill="#FADCB7" d="M709 481c2.5.563 2.5.563 5 2 1.438 2.813 1.438 2.813 2 6-.875 2.875-.875 2.875-2 5-3.375.125-3.375.125-7 0-2-2-2-2-2.812-4.312C704 487 704 487 705.313 484.25 707 482 707 482 709 481"/><path fill="#F5AC96" d="M1023 557c-4.75 4.875-4.75 4.875-7 6-1.412.203-2.83.365-4.25.5-3.614.368-7.173.858-10.75 1.5l-1-5c7.136-2.775 15.46-4.95 23-3"/><path fill="#947326" d="m889 375 3 1c.401 4.354.683 8.343-1.008 12.445-1.225 2.047-2.311 3.86-3.992 5.555h-3l2-6-1.562-1.125L883 385c.245-2.998.653-5.307 2-8 1.875-1.187 1.875-1.187 4-2"/><path d="m944 487 2 1c.401 1.719.746 3.451 1.063 5.188.848 3.305 1.451 5.316 3.851 7.769 4.71 3.196 9.696 5.279 15.086 7.043v2c-3.92.24-6.816.061-10.562-1.187-3.766-1.986-6.487-3.728-9.438-6.813a31.1 31.1 0 0 1-3-9c.313-3.562.313-3.562 1-6"/><path fill="#EEB695" d="m1077 530 2.813.875c4.983 1.435 10.08 2.257 15.187 3.125l-1 4q-3.937.29-7.875.563l-2.262.17c-1.952.131-3.908.203-5.863.267l-2-1z"/><path fill="#FDFDFC" d="M1025 388h2l.805 2.047 1.07 2.703 1.055 2.672A85 85 0 0 0 1033 402a493 493 0 0 1-5.812-1.312l-3.27-.739c-2.918-.949-2.918-.949-4.805-2.554L1018 396a564 564 0 0 1 3.375-4l1.898-2.25z"/><path fill="#070403" d="M618 985c2.157.753 3.725 1.715 5.31 3.362a190 190 0 0 1 4.378 5.45l1.583 2.007c4.85 6.209 9.354 12.63 13.729 19.181l-4 1-1.098-1.617a7396 7396 0 0 0-5.027-7.383l-1.727-2.543c-3.176-4.656-6.42-9.22-9.882-13.668-1.313-1.855-2.303-3.734-3.266-5.789"/><path fill="#EFF1EA" d="M916 391q3.001.49 6 1l2.688.375c2.312.625 2.312.625 4.125 2.063L930 396v2l-17 2-1-3h2z"/><path fill="#8F989C" d="m638 300-1 3a107 107 0 0 1-6.125 4.25c-6.248 4.169-11.666 8.437-15.875 14.75h-2c1.523-5.415 5.1-9.12 9-13 10.417-9 10.417-9 16-9"/><path fill="#92735F" d="M931 398v2l-1.677.244c-17.845 2.49-17.845 2.49-35.323 6.756l-3-3q6.372-1.299 12.75-2.563 2.164-.433 4.326-.874c7.686-1.566 15.034-2.986 22.924-2.563"/><path fill="#E7D3C2" d="m740 380 2 1 .06 1.997c.491 17.598.491 17.598 2.94 35.003h-2c-6.372-25.191-6.372-25.191-3.508-36.34z"/><path fill="#99A1A2" d="M615 304h2c-1.525 4.353-3.832 8.002-6.375 11.813-3.237 4.93-6.155 9.817-8.625 15.187h-2c.378-4.933 1.34-8.16 4.043-12.299l1.207-1.764 1.16-1.775c2.62-3.947 5.406-7.652 8.59-11.162"/><path d="M1064 521c2.563.063 2.563.063 6 1 2.904 1.959 5.117 4.036 7 7 .46 2.937-.016 5.217-1 8-1.437 3-1.437 3-3 5h-2l.36-2.195c.396-2.972.669-5.806.64-8.805-2-4.075-4.689-6.925-8-10"/><path fill="#9DA5A7" d="m899 141 2 4-8.125 4.313-2.305 1.224C878.38 157 878.38 157 876 157l1-3c2.133-1.534 2.133-1.534 4.91-3.137l2.998-1.748 3.154-1.803 3.167-1.837q3.878-2.25 7.771-4.475"/><path fill="#972D27" d="m909 549 6 2v3c5.884 7.054 15.828 12.914 24 17v2c-4.909-1.361-8.686-3.574-12.75-6.562l-1.833-1.333C913.446 557.01 913.446 557.01 909 552z"/><path fill="#8F989C" d="M901 93v2a1499 1499 0 0 1-11.187 3.063l-3.198.892-3.095.83-2.841.778c-2.875.469-4.883.184-7.679-.563 2.627-1.751 4.145-2.458 7.09-3.254l2.377-.65 2.47-.659c.812-.22 1.623-.442 2.46-.67Q890.694 93.87 894 93l2.076-.633C898 92 898 92 901 93"/><path fill="#130E0C" d="m973 595 29 1-1 2c-3.917 1.306-7.667 1.224-11.75 1.25l-2.383.063c-5.388.035-9.058-.87-13.867-3.313z"/><path fill="#8F989C" d="m701 372 3 1a210 210 0 0 1 4 5l2 1v2q3.406.039 6.813.063l3.832.035c3.351.064 3.351.064 6.355-1.098l1 3c-3.598 1.799-6.853 2.438-10.887 2.309-3.864-.565-6.944-2.06-10.113-4.309-2.258-2.157-4.295-4.378-6-7z"/><path fill="#100B09" d="m1088 416-1 3c-7.04 3.83-15.065 5.061-23 5l-3-1v-2l3.184-.332c7.666-.849 16.526-4.668 23.816-4.668"/><path fill="#9BA09E" d="M707 297v2q-5.841.72-11.688 1.392c-1.974.23-3.947.474-5.92.717l-3.779.43-3.475.413c-3.273.05-5.227-.517-8.138-1.952v-1c3.437-.342 6.874-.672 10.313-1 .957-.095 1.914-.19 2.9-.29 6.616-.623 13.143-.827 19.787-.71"/><path fill="#ADB2B4" d="M1012 64c19.331 4.391 19.331 4.391 28 9l1 2c-4.73-.847-9.315-2.143-13.937-3.437l-2.381-.659c-4.27-1.19-8.49-2.457-12.682-3.904z"/><path fill="#F0DCCA" d="m931 314 2.875 1c2.896 1.102 2.896 1.102 5.125 1l1.625 3.375c2.152 4.335 4.638 8.422 7.203 12.523C949 334 949 334 949 336h-3l-1.137-2.195c-2.869-5.42-5.57-10.398-9.863-14.805-2.15-1.373-2.15-1.373-4-2z"/><path fill="#724C41" d="m858 420 2.938.219c9.704.684 19.335.897 29.062.781l1 2c-3.518 1.173-6.713 1.192-10.375 1.188l-2.137-.003c-6.542-.075-13.144-.498-19.488-2.185z"/><path fill="#110D0B" d="m1051 320 2 1-18 18c.888-3.699 1.946-7.346 3-11h3v-2l2.188-.75c3.06-1.36 5.28-3.08 7.812-5.25"/><path fill="#9DA5A7" d="m799 89 2 3a806 806 0 0 1-4.687 3.375l-2.637 1.898C791.1 98.935 788.96 100.206 786 101c-2.312-.875-2.312-.875-4-2q3.687-2.22 7.375-4.437l2.117-1.276 2.031-1.22 1.873-1.127A62 62 0 0 1 799 89"/><path fill="#EADECF" d="M959 88c12.506 3.088 12.506 3.088 16 6q.544 1.99 1 4c1.984 1.284 1.984 1.284 4 2-3.25.813-3.25.813-7 1-2.437-2.437-2.437-2.437-4-5l1-2c-.71-.182-1.42-.364-2.152-.55l-2.785-.763-2.778-.738L960 91z"/><path d="M939 318c1.809.281 1.809.281 4 1 4.475 4.29 6.831 9.449 8.555 15.313L952 336l-3 1-1.172-2.379c-2.795-5.638-5.626-11.203-8.828-16.621"/><path fill="#67161C" d="m1021 542 3.063.5c6.601.848 13.294.578 19.937.5-3.378 3.79-3.378 3.79-6.113 4.715-3.92.397-7.06.52-10.762-.965-2.55-1.428-4.307-2.505-6.125-4.75"/><path fill="#C8B4AA" d="M1062 315h4l1 2 4-1v2a459 459 0 0 1-5.566 3.36c-3.779 2.546-6.958 5.694-10.235 8.847L1053 332h-3v-2c1.54-1.55 1.54-1.55 3.625-3.312l2.195-1.868L1058 323l1.867-1.57c1.373-1.15 2.752-2.29 4.133-3.43z"/><path fill="#932925" d="m939 545-3 1-1 2h-2l3 3c-6.56-.39-11.945-1.421-18-4v-1c7.027-.666 13.94-1.118 21-1"/><path fill="#A89A92" d="m919 313 5 1v3l1.781.328c3.824 1.158 6.389 3.94 9.219 6.672 2.438 2.75 2.438 2.75 4 5v2c-4.136-1.59-7.232-4.605-10-8v-2l-2.187-.812c-2.828-1.194-5.314-2.403-7.813-4.188z"/><path fill="#C6CCCD" d="m625 343 2 1c-1.462 3.05-3.144 5.883-4.937 8.75-2.619 4.314-4.47 8.47-6.063 13.25h-2c.56-4.527 1.744-8.004 3.813-12.062.5-1.002 1.002-2.004 1.519-3.036 1.661-2.89 3.518-5.36 5.668-7.902"/><path fill="#EBAA87" d="M1104 362v3h2v2c-2.329 1.478-4.505 2.854-7 4-2.375-.062-2.375-.062-4-1l-1-3q1.932-1.257 3.875-2.5l2.18-1.406C1102 362 1102 362 1104 362"/><path fill="#15100F" d="M1018 601v2c-11.522 3.444-11.522 3.444-17 3l-2-4q3.062-.255 6.125-.5l3.445-.281c3.156-.202 6.27-.257 9.43-.219"/><path fill="#120A08" d="m880.11 404.902 2.285.01 2.355.026 2.402.013q2.925.02 5.848.049l1 2c-2.777.787-5.226 1.12-8.11 1.098l-2.285-.01-2.355-.026-2.402-.013q-2.925-.02-5.848-.049l-1-2c2.777-.787 5.226-1.12 8.11-1.098"/><path fill="#9DA5A7" d="M599 479h2l1.438 7.688.408 2.185A738 738 0 0 0 605 500h-3c-2.608-7.155-3.39-13.402-3-21"/><path d="M947 319c1.75.625 1.75.625 4 2 2.919 3.778 4.91 7.34 6 12-.375 2.875-.375 2.875-1 5-2.92-2.92-3.615-6.405-4.902-10.273-1.069-2.655-2.362-4.481-4.098-6.727z"/><path fill="#C4B3AB" d="M954 76c2.704.716 4.619 1.63 6.633 3.586 2.445 2.799 4.179 4.85 5.367 8.414 1.5 1.667 1.5 1.667 3 3-2.312-.187-2.312-.187-5-1-1.812-2.437-1.812-2.437-3-5v-2l-2.375-.687L956 81c-1.312-2.625-1.312-2.625-2-5"/><path fill="#969E9E" d="m677 164 2 1c-1.574 3.64-3.81 6.298-6.437 9.25l-2.372 2.703L668 179h-3a221 221 0 0 1 12-15"/><path fill="#8F989C" d="M701 337v2c-5.967 1.326-11.926 1.088-18 1l2-3c2.426-.547 2.426-.547 5.313-.75l2.863-.234c2.765-.016 5.142.34 7.824.984M662 338c2.697-.073 5.367-.092 8.063-.062l2.298.013q2.82.02 5.639.049v3q-3.406.079-6.812.125l-3.833.07L664 341l-3-2z"/><path fill="#979CA7" d="M790 287h2c-1 3-1 3-2.672 4.684l-2.078 1.753-2.172 1.844A327 327 0 0 1 778 301l-3-2q2.625-2.158 5.25-4.312l2.953-2.426c4.92-3.98 4.92-3.98 6.797-5.262"/><path fill="#EBAA87" d="M1111 376h2l1 6c-2.614 1.609-4.122 2.005-7.25 2.125L1104 384c1-3 1-3 3.938-5.687z"/><path fill="#FDFDFC" d="M875 371c2.563.688 2.563.688 5 2 .813 2.125.813 2.125 1 4-2.25.625-2.25.625-5 1-2.312-.937-2.312-.937-4-2 .375-1.937.375-1.937 1-4z"/><path fill="#170807" d="M618 985c2.846 1.097 4.247 2.265 6.36 4.531l2.39 2.969 2.422 2.969L631 998v2h-3c-1.973-2.266-1.973-2.266-4.062-5.25l-2.098-2.953c-1.468-2.232-2.727-4.376-3.84-6.797"/><path fill="#B8A89E" d="M1054 319h2c-1.458 3.395-3.338 5.523-6 8.063-2.374 2.274-4.163 4.182-6 6.937h-2c1.423-4.486 3.662-7.038 7-10.312l2.688-2.676z"/><path fill="#9DA5A7" d="M657 163c-1.32 3.573-2.895 6.64-5 9.813l-1.562 2.394L649 177h-2c1.415-4.836 3.337-8.755 6-13 2-1 2-1 4-1"/><path fill="#3C2C25" d="M670 454h3c3.03 2.726 5.762 5.585 8 9v2h2v2c-3.37-1.462-5.607-3.338-8.187-5.937l-2.106-2.09C671 457 671 457 670 454"/><path fill="#A0A09F" d="m713 403 3.25 1.875L720 407l2.063 1.188c2.59 1.086 5.164 1.434 7.937 1.812l-1 2c-3.1-.014-5.986-.251-9-1-2.697-1.666-4.98-3.55-7-6z"/><path fill="#816527" d="m1057 377 9 1v7c-1.937-.312-1.937-.312-4-1l-1-3h-3z"/><path fill="#C6443E" d="m1067 788 3 1c1.605 2.504 1.605 2.504 3.188 5.563l1.605 3.066L1076 800h-5a1151 1151 0 0 1-2-4.875l-1.125-2.742C1067 790 1067 790 1067 788"/><path fill="#A52626" d="M978 542c6.497-.295 12.622.827 19 2-3 2-3 2-6.687 2.313-4.57-.094-8.138-1.524-12.313-3.313z"/><path fill="#7C6457" d="M1016 397c3.66.69 7.224 1.568 10.813 2.563l2.957.816 2.23.621-1 3c-1.754-.4-3.503-.82-5.25-1.25l-2.953-.703c-3.112-1.165-4.64-2.56-6.797-5.047"/><path fill="#A8AEB0" d="M702 355v3h-15v-2c5.025-.625 9.925-1.13 15-1"/><path fill="#363434" d="m736 392 3 1h-2l-.262 1.824C736 397 736 397 734.293 398.52l-2.106 1.293-2.082 1.332L728 402c-2.262-.363-2.262-.363-4-1l2.371-1.46 3.067-1.915 3.058-1.898c2.584-1.485 2.584-1.485 3.504-3.727"/><path fill="#3E2F09" d="m1065 374 1 4-3.812.125-2.145.07C1058 378 1058 378 1055 376h2v-2c3.053-.981 4.947-.981 8 0"/><path fill="#ADB2B4" d="M1040 83c6.618 1.58 12.262 3.302 18 7l-3 1c-3.066-.89-3.066-.89-6.562-2.25l-3.504-1.328L1042 86z"/><path fill="#FDFDFC" d="M1054 375c-.3 1.673-.636 3.34-1 5l-1 1c-1.666.04-3.334.043-5 0 .375-2.437.375-2.437 1-5 2-1 2-1 6-1"/><path fill="#8F989C" d="M657 338v3l-12 2 1-3c3.448-2.52 6.866-2.159 11-2"/><path fill="#070403" d="m678 1003 3 1c1.133 1.707 1.133 1.707 2.125 3.813l1.008 2.082c.833 2.022 1.397 3.972 1.867 6.105h-3a914 914 0 0 1-1.937-4.25l-1.09-2.39A36.7 36.7 0 0 1 678 1003"/><path fill="#9BA1A3" d="M752 608h2c-1.012 2.424-1.915 3.923-3.875 5.703L748 615.25l-2.125 1.578L744 618h-2c1-3 1-3 2.996-4.824l2.442-1.864 2.433-1.886z"/><path fill="#987666" d="m1068 358 14 1v2h-13z"/><path fill="#E7D3C2" d="M946 320c2.976 2.663 4.828 4.566 6.313 8.313L953 331h-3c-3.125-5.078-3.125-5.078-4-7z"/><path fill="#291C17" d="M1022 513h2l-2 13h-2a444 444 0 0 1-.125-5.375l-.07-3.023L1020 515z"/><path fill="#EFB796" d="M1102 362h2v3h2v2l-5 2c-.625-2.375-.625-2.375-1-5z"/><path fill="#E2C0A5" d="m799 293 2 4c-1.25 1.438-1.25 1.438-3 3-2.187.688-2.187.688-4 1v-3h2l.938-1.937C798 294 798 294 799 293"/><path fill="#BC2F33" d="M911 865c3.999.615 6.804 2.603 10 5v2c-3.405-.929-5.688-1.729-8.375-4.062L911 866z"/><path fill="#C4B3AB" d="M665 382c2.063.438 2.063.438 4 1-.687 1.938-.687 1.938-2 4-2.625.75-2.625.75-5 1 1.875-4.875 1.875-4.875 3-6"/><path fill="#3E370F" d="M886 371c2 .25 2 .25 4 1l1 3-3 2h-3a100 100 0 0 1 0-5z"/><path fill="#8F989C" d="M998 81c-3.162 2.108-4.507 2.338-8.187 2.625l-2.731.227L985 84v-2q2.404-.544 4.813-1.062l2.707-.598C995 80 995 80 998 81"/><path fill="#602421" d="m909 549 6 2v3l1 3c-2.862-1.283-5.025-2.53-7-5z"/><path fill="#F0DCCA" d="m970 95 10 4v1c-3.25.813-3.25.813-7 1-2.437-2.437-2.437-2.437-4-5z"/><path fill="#B62F2D" d="m1213 930 1 2h2l1 10h-2c-1.138-4.266-2-7.565-2-12"/><path fill="#5F4A3E" d="m902 403-2 3c-2.937.875-2.937.875-6 1-1.875-1.437-1.875-1.437-3-3 3.724-.693 7.21-1.111 11-1"/><path fill="#988D7A" d="m910 400 3 2-10 3-1-3c5.957-1.758 5.957-1.758 8-2"/><path fill="#15100F" d="M1064 534h3c-.613 2.962-1.254 4.38-3 7h-2q.45-3.008 1-6z"/><path fill="#3A2C25" d="M886 533h13v2c-3.798.926-6.02.995-9.875.063L886 534z"/><path fill="#7A685F" d="m1057 324 2 2a243 243 0 0 1-2.812 3l-1.583 1.688L1053 332h-3v-2c1.531-1.508 1.531-1.508 3.5-3.125l1.969-1.633z"/><path fill="#67433A" d="m1087 353 5 2v2l4 1v2c-3.44-1.242-6.252-2.557-9-5z"/><path fill="#F0DCCA" d="m1040 329 2 1-6 9-1-3c.996-1.824.996-1.824 2.438-3.687l1.433-1.887z"/><path fill="#8F989C" d="M752 200c2.188.375 2.188.375 4 1a466 466 0 0 1-3.375 2.5l-1.898 1.406L749 206h-2c.813-1.875.813-1.875 2-4z"/><path fill="#8B9294" d="M722 104h2c-.687 1.813-.687 1.813-2 4-2.625 1.75-2.625 1.75-5 3l-1-3a187 187 0 0 1 6-4"/><path fill="#C5C3C0" d="M701 372c3 1 3 1 5.25 3.375L708 378l-1 3a483 483 0 0 1-3-3.375l-1.687-1.898L701 374z"/><path fill="#B5A196" d="M876 213h3l-1 3a95 95 0 0 1-5 4l-2-1c3.613-4.687 3.613-4.687 5-6"/><path fill="#2C2726" d="M716 639h2q-.212 2.688-.437 5.375l-.247 3.023C717 650 717 650 716 652l-1-1a98 98 0 0 1-.125-5.5l-.008-3.031L715 640z"/><path fill="#932925" d="M930 567c3.083 1.199 6.063 2.477 9 4v2c-3.403-1.059-6.014-2.009-9-4z"/><path fill="#B8A8A1" d="m883 194 3 1-5 6-3-2z"/><path fill="#565353" d="M949 125v2c-3.473 1.158-6.36 1.069-10 1l1-2c3.144-.85 5.708-1 9-1"/><path fill="#A2816E" d="m1058 810 6 2-4 4z"/><path fill="#7B6251" d="M769 578c1.75.188 1.75.188 4 1 2.25 2.563 2.25 2.563 4 5h-4c-2.25-2.437-2.25-2.437-4-5z"/><path fill="#0D0D0D" d="m1172 363 1 2a125 125 0 0 1-4 6h-2c1.186-3.375 2.276-5.647 5-8"/><path fill="#AE9D94" d="m1062 320 3 1-6 5v-4z"/><path fill="#212020" d="M757 321h2c-1.285 2.867-2.571 4.976-5 7h-2c1.285-2.867 2.571-4.976 5-7M670 786l4 2v3h2l-1 3c-3.906-4.492-3.906-4.492-5-6z"/><path fill="#442E29" d="M939 573c2.01.262 4.012.602 6 1l2 2v2c-3.375-1.186-5.647-2.276-8-5"/><path fill="#6C7A8C" d="m670 153 2 1-1 5-4 1z"/><path fill="#707B82" d="M683 134h2c-.687 1.875-.687 1.875-2 4-2.625 1.25-2.625 1.25-5 2l1-3c1.938-1.687 1.938-1.687 4-3"/><path fill="#DABBA2" d="M1029 160c2.915 1.074 4.778 1.778 7 4l-2 2a105 105 0 0 1-5-4z"/><path fill="#434744" d="m1047 103 8 2-1 3c-2.375-.812-2.375-.812-5-2z"/><path fill="#212020" d="m1116 121 5 2-2 1zM1121 124l4 2h-3z"/><path fill="#FEFEFE" d="m1107 117 3 1ZM1104 116l3 1ZM1130 389l2 1Z"/><path d="m601 269 2 1Z"/><path fill="#FEFEFE" d="m603 268 2 1ZM605 267l2 1Z"/><path fill="#212020" d="m1114 120 2 1ZM1112 119l2 1ZM1110 118l2 1Z"/></svg>