<svg xmlns="http://www.w3.org/2000/svg" width="1800" height="726"><path fill="#E8552C" d="M743 11c3.003 1.083 4.32 2.356 6.488 4.773q1.424 1.791 2.824 3.602l1.556 1.976c5.025 6.42 9.885 12.964 14.758 19.5 5.839 7.814 11.834 15.397 18.437 22.587C791.64 68.66 795.983 73.69 799 80c.854 4.795.895 9.35.725 14.206-.079 2.32-.103 4.635-.115 6.957-.04 5.757-.158 11.512-.294 17.267a737 737 0 0 0-.205 14.647c-.024 2.263-.107 4.519-.191 6.78-.144 7.235-.144 7.235 2.055 14.055 2.614 4.06 5.745 7.56 9.025 11.088a223 223 0 0 1 3.145 3.98c6.08 7.405 12.5 13.197 20.231 18.813 9.892 7.351 18.759 16.008 27.679 24.477 3.794 3.6 7.657 7.113 11.558 10.597 7.574 6.768 14.956 13.642 22.094 20.871a117 117 0 0 0 6.23 5.7c3.352 2.864 6.468 5.926 9.563 9.062 3.656 3.7 7.384 7.242 11.336 10.625 2.784 2.412 5.509 4.888 8.226 7.375l1.584 1.449c2.71 2.494 5.355 5.029 7.917 7.676 3.582 3.652 7.554 6.775 11.535 9.98 3.906 3.223 7.623 6.63 11.347 10.06a266 266 0 0 0 6.617 5.835c4.14 3.568 7.882 7.498 11.641 11.46 2.051 2.086 2.051 2.086 4.11 2.66 2.531.44 4.91.509 7.481.513l3.278.013h3.605l3.842.01q5.307.013 10.612.016 5.763.007 11.525.022 11.442.023 22.883.036 9.516.012 19.032.03l2.771.005 5.596.01a107962 107962 0 0 0 78.792.107 263602 263602 0 0 0 152.957.133l3.39.002c36.28.025 72.56.079 108.84.148a69826 69826 0 0 0 127.653.133l3.14.001c16.687.007 33.373.041 50.06.086q25.15.065 50.3.043c9.965-.009 19.93.005 29.895.051q9.982.042 19.965.004a899 899 0 0 1 11.378.022c4.087.037 8.172.013 12.26-.018l3.563.063c3.307-.055 6.16-.243 9.369-1.05 3.771-2.262 6.869-4.928 10-8 .54-.498 1.08-.996 1.635-1.51 1.323-1.241 2.596-2.534 3.865-3.83l2.746-2.78 2.754-2.817q2.776-2.831 5.563-5.653l2.44-2.496C1768 297 1768 297 1770 296c2.177-.155 4.358-.25 6.54-.316l3.944-.127 4.141-.12 4.164-.13q5.105-.16 10.211-.307c64.25 128.5 1 287.333 1 431H892c2.005-5.014 3.204-6.457 7.125-9.875l2.988-2.648a227 227 0 0 1 5.18-4.329c5.267-4.3 8.918-8.906 11.707-15.148 1.524-4.94 1.148-9.413.125-14.437-2.074-6.686-6.286-10.69-11.125-15.563a417 417 0 0 1-3.059-3.422C895.135 649.372 895.135 649.372 883 641c-3.203-.474-4.95-.668-8 0-3.107 1.469-5.763 3.372-8.5 5.438l-2.263 1.66C858.773 652.196 854.066 656.48 850 662l-2.023 2.707c-1.736 2.397-3.445 4.761-4.977 7.293v2l2.823.152q5.282.288 10.562.593 2.268.128 4.535.25c9.478.51 18.722 1.339 28.08 3.005-1.635 4.49-3.883 7.248-7.312 10.5l-2.864 2.781L876 694a836 836 0 0 0-10.238 10.379 3527 3527 0 0 1-4.526 4.605 637 637 0 0 0-3.08 3.162 624 624 0 0 1-4.52 4.608l-2.696 2.76c-3.453 2.92-6.653 5.076-10.94 6.486-4.698.573-9.378.53-14.103.492q-2.163.005-4.326.014c-3.966.012-7.932 0-11.898-.017-4.313-.014-8.627-.004-12.94.002q-11.34.012-22.682-.014c-11.243-.024-22.485-.026-33.727-.022q-28.368.006-56.734-.032-28.092-.037-56.182-.043l-3.527-.001-17.734-.004c-41.879-.008-83.758-.035-125.637-.073a252077 252077 0 0 0-129.737-.086l-62.357-.024C192.277 726.154 96.139 726.074 0 726V297c2.856-1.428 5.277-1.12 8.47-1.114h2.01c2.197 0 4.394.009 6.59.016l4.565.005q6.013.006 12.025.024 6.132.014 12.266.02 12.038.016 24.074.049c1.613 3.808 2.24 6.586 2.195 10.738l-.02 3.233-.05 3.341-.027 3.4Q72.062 320.858 72 325c3.38.76 6.498 1.125 9.96 1.125l2.973.008 3.25-.007 3.479.004q4.796.004 9.59-.002 5.213-.002 10.423.004 9.14.005 18.277 0 13.589-.003 27.178.002 24.264.007 48.53.002 21.233-.004 42.464-.002h2.842l11.421.001q53.594.003 107.188-.005 47.65-.007 95.303 0a452029 452029 0 0 0 118.4.004h2.835q21.225-.002 42.45.002 24.123.004 48.245-.003 13.512-.004 27.026 0 9.012.005 18.023-.003 5.145-.004 10.288 0c3.683.004 7.367 0 11.05-.004l3.271.007 2.95-.008h2.556c2.097.003 2.097.003 4.028-1.125.938-5.416 1.16-10.74 1.168-16.227l.01-2.276q.007-2.362.007-4.725c.003-2.398.02-4.796.04-7.194q.005-2.308.005-4.617l.022-2.15c-.02-4.313-.673-7.8-2.252-11.811l-2.59-.367-3.347-.508-3.34-.492L743 274c-1.238-2.476-1.205-4.273-1.311-7.043l-.125-3.162-.117-3.428-.128-3.55c-.39-11.566-.467-23.123-.464-34.695l-.01-6.75q-.014-9.027-.012-18.052-.002-5.651-.006-11.303-.013-18.732-.012-37.465v-4.049q-.002-16.34-.023-32.681-.023-16.852-.02-33.706.001-9.434-.014-18.866-.014-8.84-.003-17.681.003-3.242-.007-6.485c-.008-2.948-.003-5.896.005-8.844l-.016-2.593c.027-4.613.498-8.304 2.263-12.647"/><path fill="#FDFDFD" d="M437 361a88 88 0 0 1 5.055-.13l3.266-.009 3.554.006 3.62-.003q3.8 0 7.597.006c3.891.005 7.782 0 11.674-.007q3.68 0 7.359.004l3.554-.006 3.266.01 2.891.002L491 361l1 1c.102 2.89.14 5.757.133 8.648l.004 2.74c.002 2.996-.005 5.991-.012 8.987l-.003 3.083c-.022 21.856-.499 43.696-1.122 65.542h2l.719-2.062c1.56-3.578 3.602-6.718 5.781-9.938l1.344-2c3.644-5.364 7.518-10.511 11.52-15.613 2.434-3.107 4.797-6.265 7.152-9.433 6.164-8.288 12.496-16.386 19.285-24.177l1.485-1.714a294 294 0 0 1 3.092-3.49c2.811-3.185 5.108-6.285 7.142-10.022 2.567-4.52 5.05-8.665 9.48-11.551 7.16-2.012 14.773-.955 22.079-.305 4.319.336 8.619.488 12.948.59l2.295.055 4.55.104c3.609.09 7.216.212 10.823.337l3.688.127L619 362l1 3c-2.221 6.957-6.626 12.098-11.55 17.316-2.611 2.86-4.989 5.851-7.325 8.934l-1.257 1.656-2.563 3.382a710 710 0 0 1-6.68 8.587l-1.383 1.76a1346 1346 0 0 1-8.625 10.822 944 944 0 0 0-15.605 19.976 1810 1810 0 0 1-14.168 18.328 634 634 0 0 0-3.238 4.185 129 129 0 0 1-3.419 4.182c-1.575 1.908-2.995 3.705-4.187 5.872.235 2.72.235 2.72 2 5l1.594 2.918 1.906 3.27a666 666 0 0 1 8.126 14.41c4.69 8.55 9.667 16.851 14.9 25.077 4.917 7.757 9.756 15.564 14.618 23.356q2.566 4.1 5.145 8.192c8.338 13.284 16.13 26.855 23.843 40.508 2.48 4.34 5.035 8.634 7.605 12.921C621 608 621 608 621 610h2l-.016-3.11a979535 979535 0 0 1-.557-111.815 267108 267108 0 0 1-.242-48.62 29429 29429 0 0 1-.164-36.129q-.02-5.216-.046-10.432-.03-5.83-.044-11.659-.011-3.036-.03-6.072c-.012-6.788.238-13.427 1.099-20.163 35.524-.864 71.03-1.092 106.563-1.062l3.185.002q19.626.018 39.252.06c.176 3.791.339 7.583.5 11.375l.145 3.098c.519 12.531.355 24.944.355 37.527h-95v50l17.684-.035 11.06-.014q8.787-.008 17.574-.026 7.08-.016 14.16-.02 2.707-.003 5.415-.01 3.78-.01 7.558-.009l2.284-.01c1.756.003 3.51.058 5.265.124l1 1c.093 1.627.117 3.258.114 4.887v3.199l-.016 3.387-.003 3.094c-.006 3.832-.02 7.664-.033 11.495L760 516h-82v48l18.46-.07q5.812-.015 11.622-.028c6.14-.012 12.28-.026 18.42-.053q7.431-.032 14.862-.039 2.826-.005 5.652-.021c2.651-.015 5.303-.017 7.954-.016l2.328-.022c5.992.023 10.569 1.022 16.702 2.249v51q-35.182.035-70.366.052-16.341.007-32.682.023-14.267.015-28.533.02-7.533 0-15.065.01c-9.998.014-19.996.008-29.993-.064q-7.224-.05-14.447-.004c-2.902.01-5.803-.011-8.705-.043a285 285 0 0 0-5.832.043c-3.307-.056-6.178-.193-9.377-1.037-3.575-2.725-5.567-5.891-7.292-9.995-1.115-3.277-1.87-6.649-2.708-10.005h-2l-2-7h-2l-1.07-2.002c-4.298-7.965-8.898-15.72-13.602-23.451l-1.695-2.828-1.535-2.533C524 556 524 556 524 553h-2l-1-5h-2l-1-5h-2l-.96-2.062c-3.1-6.44-6.518-12.558-10.29-18.625l-1.322-2.143c-1.102-1.75-2.26-3.463-3.428-5.17l-2-1-.342 2.214c-.68 2.88-1.73 4.801-3.192 7.358-3.886 8.39-3.065 17.234-2.92 26.28q.019 2.865.03 5.73c.024 4.994.078 9.987.139 14.981.08 7.07.121 14.142.167 21.212q.037 5.641.103 11.282l.05 5.11.034 2.373c.015 1.82-.021 3.64-.069 5.46l-1 1c-1.688.094-3.38.117-5.07.114h-3.276l-3.564-.016-3.628-.005c-3.841-.005-7.683-.018-11.524-.03q-3.897-.009-7.792-.014A12264 12264 0 0 1 437 617c-.776-3.466-1.148-6.717-1.221-10.266l-.07-3.14-.06-3.414-.07-3.648q-.072-3.871-.137-7.742a2647 2647 0 0 0-.223-11.224c-.305-16.209-.118-32.375.258-48.582.485-21.114.609-42.217.586-63.336l-.003-2.301c-.01-10.864-.031-21.727-.055-32.59-.024-11.114-.047-22.228-.058-33.342q-.008-6.646-.029-13.293-.008-3.099-.011-6.198-.005-3.772-.02-7.545v-3.325l-.007-2.903L436 362zM364.008 371.07c9.81 5.491 18.04 12.003 25.992 19.93l2.531 2.512c8.146 8.21 14.838 16.35 20.469 26.488.507.89.507.89 1.023 1.8 11.771 20.902 16.513 45.063 16.33 68.91-.578 23.372-5.729 47.111-17.832 67.298-12.43 20.09-27.403 37.204-48.384 48.539-20.395 9.79-41.395 12.68-63.778 11.215C284.41 615.89 269.217 610.28 255 603v-2h-3l-1-2-3-1c-1.648-1.672-1.648-1.672-3.375-3.75-2.007-2.368-3.99-4.615-6.187-6.812-2.458-2.458-4.687-5.024-6.91-7.692-1.533-1.81-1.533-1.81-3.442-3.535C223.42 571.266 220.314 564.9 217 559l-1.86-3.266c-4.412-8.541-6.998-17.55-9.515-26.796-.346-1.255-.692-2.51-1.05-3.802-2.192-8.405-3.29-16.46-3.575-25.136l-.1-2.963c-.526-21.866.657-43.972 10.1-64.037l.848-1.852c4.698-10.21 10.267-19.273 17.152-28.148l1.29-1.672c5.118-6.59 5.118-6.59 7.71-9.328h2l1-3c1.528-1.407 1.528-1.407 3.508-2.855l2.217-1.625 2.4-1.707 2.464-1.758c16.257-11.402 34.199-19.101 54.036-21.805 19.891-1.493 40.753 2.42 58.383 11.82"/><path fill="#FEFEFE" d="M1118.023 367.848c18.856 8.344 35.032 21.063 47.407 37.57 14.36 19.717 22.088 40.724 25.132 64.758 2.583 24.577.788 52.143-9.347 75.008-9.7 20.617-23.857 40.163-42.465 53.566-15.19 10.006-32.427 17.882-50.75 19.25-11.096.482-22.144.592-33-2l-3.457-.777c-12.401-3.026-29.325-7.575-38.918-16.41L1010 596a993 993 0 0 0-4.687-4.062c-17.052-15.39-29.617-36.433-36.825-58.139-7.16-22.796-7.974-49.34-3.488-72.799 3.188-14.164 7.702-27.443 15-40l1.152-2.03c5.6-9.776 11.943-17.971 19.848-25.97l2.133-2.352c10.81-11.632 26.194-21.465 41.306-26.453 24.951-7.463 49.491-6.44 73.584 3.653"/><path fill="#FDFDFD" d="M1501.004 14.816C1512.599 20.548 1526.624 29.25 1534 40c.371 3.012.371 3.012 0 6-2.8 6.597-8.525 11.894-13.386 17.041-4.125 4.374-7.936 8.908-11.677 13.62-3.825 4.618-3.825 4.618-5.937 6.339-4.341-.595-7.34-3.254-10.75-5.812C1481.445 69.33 1469.373 63.954 1456 62c-14.253-1.098-25.998.563-39.047 6.352-10.182 5.148-18.774 12.257-25.176 21.722-9.111 15-12.302 31.1-12.746 48.461-.207 17.436 3.144 33.91 11.528 49.332 5.682 9.475 12.877 16.82 22.332 22.563 14.512 7.329 29.128 8.389 45.109 7.57 11.89-1.196 22.385-4.876 32.188-11.633 1.92-1.383 1.92-1.383 3.812-3.367.245-2.648.373-5.199.414-7.852l.059-2.345c.06-2.476.106-4.952.152-7.428l.117-5.031q.143-6.173.258-12.344l-1.7.02c-5.856.067-11.712.112-17.569.145q-3.274.022-6.55.061c-3.145.037-6.29.054-9.435.067-.97.015-1.94.03-2.94.047-5.73.001-9.713-.672-14.806-3.34-.84-9.857-1.155-19.607-1.125-29.5l-.012-3.992.004-3.852.004-3.443c.127-3.151.54-6.118 1.129-9.213 5.729-1.91 12.113-1.411 18.125-1.562l2.386-.065c28.484-.742 56.998-.46 85.489-.373 1.068 22.334 1.188 44.652 1.185 67.008 0 5 .014 10.001.031 15.002q.015 5.833.013 11.666 0 2.77.013 5.54c.01 2.558.007 5.116 0 7.674.007.752.012 1.503.018 2.278-.024 4.055-.4 7.207-2.26 10.832-12.661 16.052-34.177 28.784-52.908 36.385-9.228 3.574-18.287 6.22-28.092 7.615l-3.68.55c-20.236 2.443-42.39.957-61.42-6.734-20.068-8.614-37.832-21.86-51.187-39.185-15.711-21.1-25.542-44.866-28.693-70.99-1.986-18.52-1.202-36.302 1.98-54.641l.341-2.122c3.282-19.536 14.166-39.19 26.534-54.448 5.251-6.354 10.6-12.353 17.125-17.43l2.594-2.098c17.162-13.448 36.379-22.06 57.949-25.46 24.877-2.934 50.67-.274 73.46 10.374M517 5c6.822 3.315 11.538 8.17 16.809 13.55l4.243 4.275q2.953 2.982 5.896 5.975 5.143 5.218 10.303 10.417 2.738 2.764 5.466 5.536l2.539 2.569 2.197 2.23c2.082 2 4.196 3.895 6.38 5.78 4.04 3.511 7.83 7.216 11.59 11.024l2.102 2.117q2.237 2.253 4.472 4.51 3.54 3.573 7.089 7.136 10.08 10.128 20.14 20.277a6032 6032 0 0 0 12.36 12.435q2.35 2.361 4.69 4.732c2.18 2.206 4.37 4.403 6.56 6.598l1.937 1.974c3.493 3.477 6.609 5.924 11.227 7.865l-.089-2.722c-.757-23.803-1.1-47.587-1.096-71.402 0-4.566-.014-9.133-.031-13.7q-.015-5.356-.013-10.716 0-2.53-.013-5.061c-.01-2.328-.007-4.655 0-6.983l-.005-3.989c.238-3.308.634-5.54 2.247-8.427 2.851-.95 4.62-1.127 7.576-1.13l2.802-.009 3.02.006 3.113-.003q3.26 0 6.521.006c3.323.005 6.645 0 9.968-.007q3.168 0 6.336.004l3.009-.006 2.82.01 2.47.002c2.533.136 4.892.574 7.365 1.127.913 2.739 1.125 4.326 1.126 7.142l.008 2.57-.007 2.822.005 2.999c.004 3.332 0 6.664-.003 9.996l.006 7.15q.005 8.724 0 17.446a20093 20093 0 0 0 0 20.356q.004 19.289-.006 38.577-.005 16.5.001 32.998a58195 58195 0 0 1 .004 42.474v2.04q-.002 7.07.002 14.14.004 9.564-.005 19.127 0 3.49.002 6.981c.011 13.43-.26 26.78-1.133 40.182-4.518-1.654-7.354-3.936-10.689-7.333l-1.653-1.646a1240 1240 0 0 1-5.369-5.404l-3.762-3.768a3340 3340 0 0 1-7.873-7.913q-5.012-5.053-10.043-10.087-4.82-4.831-9.634-9.67l-1.834-1.838c-11.61-11.658-11.61-11.658-16.854-17.835-1.663-1.943-3.45-3.73-5.289-5.506-2.439-2.355-4.684-4.794-6.875-7.375C623.441 193.08 617.159 187.092 611 181c-14.901-14.74-14.901-14.74-21-22a1187 1187 0 0 0-4.625-5.187l-2.164-2.418c-2.34-2.534-4.767-4.963-7.211-7.395l.003 2.012q.033 24.197.049 48.395.007 11.7.023 23.403.015 10.196.02 20.39 0 5.403.01 10.804c.009 4.014.009 8.027.009 12.04l.01 3.645-.004 3.293.003 2.88L576 273l-1 1c-1.81.094-3.625.117-5.438.114h-3.518l-3.83-.016-3.896-.005q-5.136-.006-10.273-.024-5.239-.014-10.477-.02-10.284-.016-20.568-.049c-.6-67.07-1.107-134.14-1.123-201.213q-.002-7.485-.01-14.972-.009-10.063-.001-20.126 0-3.69-.002-7.38-.003-5.021.007-10.042l-.007-2.959.009-2.718.001-2.337c.14-2.49.585-4.82 1.126-7.253M1108 7c4.5 1.242 7.04 3.707 10.24 6.926l1.967 2.023 2.073 2.094c2.185 2.208 4.36 4.425 6.533 6.645q3.245 3.299 6.5 6.59 2.02 2.046 4.03 4.101c3.816 3.876 7.759 7.522 11.877 11.073 2.09 1.817 4.075 3.714 6.034 5.67.71.707 1.42 1.416 2.15 2.146l2.159 2.17 2.17 2.158 2.146 2.15 1.893 1.896c1.769 1.872 3.433 3.77 5.1 5.73 5.768 6.624 12.09 12.734 18.304 18.937l4.126 4.128a11328 11328 0 0 0 8.605 8.6 9829 9829 0 0 1 11.04 11.044q4.249 4.252 8.5 8.5 2.038 2.036 4.073 4.076 2.833 2.835 5.673 5.665l1.701 1.708c2.788 2.835 2.788 2.835 6.106 4.97l-.006-1.897q-.066-22.834-.098-45.668-.014-11.042-.047-22.085-.03-9.622-.037-19.246-.003-5.096-.023-10.193c-.015-3.79-.017-7.58-.016-11.371l-.022-3.424.008-3.124-.005-2.718C1241 14 1241 14 1243 11c10.07-2.246 21.599-1.153 31.87-1.13 2.916.005 5.831 0 8.747-.007q2.778 0 5.555.004l2.645-.006c2.061.008 4.123.068 6.183.139l1 1c.094 1.38.12 2.764.117 4.147l.002 2.709-.014 2.992-.002 3.126q-.007 5.155-.027 10.312-.007 3.625-.012 7.25c-.014 7.488-.038 14.976-.064 22.464l-.021 6.702c-.046 14.096-.111 28.193-.18 42.289q-.044 8.868-.085 17.736-.078 16.646-.16 33.293l-.18 38.027A678413 678413 0 0 1 1298 280c-4.994-3.604-9.61-7.316-13.938-11.695l-1.624-1.619a1728 1728 0 0 1-5.223-5.24l-3.682-3.684a4674 4674 0 0 1-7.678-7.701 5105 5105 0 0 0-9.79-9.81 7834 7834 0 0 1-7.59-7.603q-1.803-1.808-3.608-3.615c-5.617-5.624-11.18-11.244-16.346-17.291-2.556-2.928-5.316-5.641-8.083-8.367l-1.803-1.792A3573 3573 0 0 0 1213 196c-15.169-15.004-15.169-15.004-21-22q-1.477-1.73-2.957-3.457l-1.418-1.666c-7.279-8.552-14.68-16.932-22.625-24.877l-1 128c-5.626 2.25-5.626 2.25-9.388 2.243l-2.53.01-2.695-.023h-2.814q-2.94-.006-5.882-.024c-2.983-.018-5.965-.02-8.947-.02l-5.732-.018-2.678-.003c-5.196-.04-10.19-.419-15.334-1.165-1.896-5.606-2.283-10.525-2.247-16.419l-.008-2.815c-.005-3.103.003-6.206.012-9.309l-.006-6.69c-.005-6.054.003-12.108.013-18.163.01-6.355.007-12.71.007-19.066q.002-16.035.023-32.07.021-16.425.02-32.85v-4.071q.001-19.725.016-39.449.003-5.642.003-11.285.002-8.934.017-17.867.004-3.252.004-6.502c-.002-11.025.135-22.028.593-33.045l.117-2.896c.21-4.576.544-8.998 1.436-13.503M453.5 9.813l3.73.019c9.281.078 18.518.428 27.77 1.168.958 2.874 1.15 4.77 1.205 7.761l.06 3.01.051 3.346.064 3.597q.083 5.016.153 10.03.044 3.201.092 6.401c.427 29.913.516 59.828.556 89.743q.01 5.49.027 10.983.025 8.784.021 17.57.001 3.255.013 6.51c.074 22.565-.836 43.99-12.3 64.022-9.615 14.992-22.686 25.254-38.06 33.75C416.083 278.07 393.802 278.957 371 278c-5.8-.495-11.359-1.591-17-3l-3.316-.773c-12.836-3.434-25.138-9.824-34.713-19.082A226 226 0 0 1 312 251l-2.195-2.324c-9-10.393-16.038-24.224-18.805-37.676-3.877-23.509-3.152-47.631-3.134-71.371q.002-6.682-.002-13.366-.003-11.186.006-22.373.006-12.936-.002-25.871-.007-11.145-.003-22.29.003-6.64-.001-13.282-.004-6.219.005-12.438 0-2.285-.002-4.569-.002-3.108.006-6.215l.001-3.518C288 13 288 13 289 11h55c1.563 5.472 2.25 8.63 2.258 14.056l.011 2.045c.01 2.242.006 4.484.002 6.726l.016 4.846q.017 5.205.018 10.412c.002 5.499.02 10.997.04 16.496.05 13.66.08 27.322.102 40.983.017 10.613.04 21.225.083 31.838q.032 8.183.028 16.365c.001 3.41.015 6.819.033 10.228q.008 2.353 0 4.705c-.03 10.625.562 20.906 4.952 30.765 3.78 5.683 7.442 10.172 13.457 13.535 9.832 4.606 20.343 4.843 31 4 7.095-1.28 13.705-3.499 19.29-8.176 5.446-5.808 8.889-13.126 10.71-20.824 1.283-8.927 1.152-17.952 1.158-26.949q.007-2.37.015-4.739.017-5.07.026-10.139.018-8.017.053-16.036c.062-15.192.116-30.385.15-45.577q.027-12.612.087-25.223.034-6.663.04-13.328.002-6.257.044-12.514.01-2.295.005-4.59c-.003-2.089.011-4.177.03-6.266l.01-3.54c.424-3.438 1.333-5.333 3.382-8.099 6.472-3.329 15.46-2.264 22.5-2.187"/><path fill="#FEFEFE" d="M784 361h57v101h60l-.035-20.57-.014-12.907q-.008-10.241-.026-20.482-.016-8.258-.02-16.514-.003-3.15-.01-6.299a3360 3360 0 0 1-.009-8.826l-.01-2.627c.007-4.374.244-8.468 1.124-12.775q11.508-.037 23.016-.055 3.92-.008 7.837-.02c3.746-.013 7.491-.018 11.237-.023l3.564-.015h3.275l2.9-.007L956 361l1 1a57 57 0 0 1 .126 4.087l.008 2.685-.007 2.984.005 3.144c.004 3.505 0 7.01-.003 10.514l.006 7.503q.005 9.157 0 18.315-.003 7.44-.001 14.878v2.135l.001 4.293q.004 20.151-.006 40.302-.005 17.31.001 34.619a63830 63830 0 0 1 .004 44.43v2.127q-.002 7.434.002 14.87.004 9.996-.005 19.993 0 3.681.002 7.362.002 5-.006 10.003l.007 2.984-.008 2.685v2.335L957 616l-1 1c-1.683.099-3.37.128-5.055.13l-3.266.009-3.554-.006-3.62.003q-3.8 0-7.597-.006c-3.891-.005-7.782 0-11.674.007q-3.68 0-7.359-.004l-3.554.006-3.266-.01-2.891-.002L902 617l-1-1c-.124-2.1-.178-4.206-.205-6.31l-.03-2.002q-.047-3.31-.081-6.622l-.063-4.651q-.066-4.913-.124-9.824-.073-6.173-.158-12.344a11811 11811 0 0 1-.184-14.194c-.181-14.02-.155-28.03-.155-42.053l-58-1 .035 21.621.014 13.522q.008 10.742.026 21.484.016 8.655.02 17.312.003 3.31.01 6.62.01 4.62.009 9.24l.01 2.794A218 218 0 0 1 842 616l-1 1c-1.75.094-3.502.117-5.254.114h-3.397l-3.697-.016-3.762-.005q-4.959-.007-9.918-.024-5.057-.014-10.115-.02-9.929-.017-19.857-.049l-.013-1.644a106247 106247 0 0 0-.458-56.651c-.376-45.667-.376-45.667-1.091-91.33a3181 3181 0 0 1-.563-57.75l-.008-3.629q-.007-5.134 0-10.27l-.006-2.921c.034-10.636.655-21.147 1.139-31.805M1199 361a94 94 0 0 1 5.254-.114h3.397l3.697.016 3.762.005q4.959.007 9.918.024 5.058.014 10.115.02 9.928.017 19.857.049l-.006 2.535q-.066 30.614-.098 61.228-.014 14.805-.047 29.61-.03 12.913-.037 25.825-.003 6.83-.023 13.659-.02 6.445-.015 12.89 0 2.349-.012 4.698c-.28 18.923-.28 18.923 5.113 36.762 2.846 4.537 6.55 7.45 11.258 9.945 7.03 3.192 14.262 3.485 21.867 2.848 6.051-1.164 11.176-3.073 16-7 4.048-3.954 5.848-7.419 7.386-12.831 1.305-6.732 1.044-13.613 1.03-20.445l.027-5.201c.023-4.681.028-9.362.03-14.044.006-4.902.03-9.805.05-14.708.04-9.274.063-18.548.082-27.822.033-16.637.09-33.275.154-49.912q.032-8.76.047-17.52.011-5.43.03-10.86.006-2.528.008-5.054.003-3.435.018-6.868l.008-3.891.13-2.844 1-1a88 88 0 0 1 5.055-.13l3.266-.009 3.554.006 3.62-.003q3.8 0 7.597.006c3.891.005 7.782 0 11.674-.007q3.68 0 7.359.004l3.554-.006 3.266.01 2.891.002L1373 361l1 1c.101 2.24.13 4.483.134 6.725l.007 2.157q.007 3.604.004 7.21l.01 5.149q.014 7.02.012 14.042.002 4.393.006 8.786.014 15.348.012 30.695.001 14.265.026 28.528.019 12.265.018 24.53-.002 7.316.013 14.631.014 6.904.003 13.81-.003 2.514.007 5.029c.028 8.33-.184 16.544-1.13 24.828l-.23 2.035C1371.32 562.52 1366.948 574.65 1360 585c-3.363 4.298-7.12 8.17-11 12l-2.062 2.059c-11.027 10.314-24.79 15.096-39.137 18.757-19.303 3.686-40.104 1.825-58.738-4.129-11.548-4.105-20.55-10.369-28.602-19.597-9.558-11.65-15.219-24.74-19.461-39.09l-.937-3.156c-3.219-11.759-3.216-23.753-3.153-35.867l.012-4.41c.016-5.522.047-11.045.078-16.567l.038-7.298a25381 25381 0 0 1 .35-54.402q.067-9.336.124-18.67.057-9.09.125-18.178.04-5.393.072-10.785.036-5.95.086-11.9l.017-3.591.03-3.242.02-2.832c.045-.693.09-1.387.138-2.102z"/><path fill="#FDFDFD" d="M1697 12c12.505 5.97 23.15 13.173 31.168 24.707 8.07 12.006 8.07 12.006 9.266 18.734 0 .7.002 1.4.004 2.121l.058 2.13c-.838 3.9-3.283 6.947-5.9 9.883a258 258 0 0 1-4.893 4.917l-1.799 1.79c-1.88 1.87-3.767 3.731-5.654 5.593l-3.848 3.82A4273 4273 0 0 1 1706 95c-2.66-3.409-4.341-6.803-6.125-10.75-2.666-5.51-5.43-9.727-10.316-13.574C1679.89 64.344 1669.463 60.95 1658 60c-7.88-.321-15.685.385-22.91 3.703-3.515 2.181-5.897 4.812-8.09 8.297-1.764 3.528-2.168 6.428-2 10.313.658 4.586 2.57 7.845 5.137 11.644 3.107 3.407 6.55 5.525 10.824 7.211l3.414 1.02 1.987.606c4.357 1.307 8.74 2.508 13.136 3.678 20.305 5.407 40.05 10.738 56.502 24.528l2.602 2.148c9.89 8.516 16.77 17.586 21.398 29.852 5.167 16.793 5.782 35.055 2.035 52.223-3.094 11.29-7.544 20.645-15.035 29.777l-1.574 2.102c-8.808 11.137-23.341 19.373-36.37 24.691-20.345 7.736-42.384 8.728-63.807 5.574-14.092-2.298-27.432-7.563-38.749-16.367a197 197 0 0 1-4.5-4l-2.172-1.93c-7.65-7.16-12.703-16.094-15.828-26.07-.596-2.74-.851-5.178-1-8l1-3c1.91-1.407 1.91-1.407 4.418-2.855l2.785-1.627 2.985-1.706 3.008-1.746c2.93-1.698 5.866-3.384 8.804-5.066l4.574-2.633q4.704-2.7 9.426-5.367l2 2h3c1.656 1.941 1.656 1.941 3.5 4.563 5.031 6.502 10.797 10.287 18.227 13.683 10.773 4.238 22.187 5.865 33.656 4.29 7.797-1.424 14.399-3.498 20.617-8.536 3.118-3.207 4.745-6.32 6.313-10.5 1.171-5.966.905-10.369-1-16.125-1.227-3.089-2.38-5.468-4.313-8.187-8.251-6.017-17.427-9.215-27.25-11.625a4907 4907 0 0 1-6.852-1.782l-3.473-.894c-37.97-9.831-37.97-9.831-52.425-22.887l-2-1.687c-8.509-7.711-14.14-18.152-17.937-28.875-4.242-14.056-5.668-28.871-3-43.375 3.244-13.466 9.606-27.463 19.062-37.688 11.86-11.04 26.614-18.847 42.309-22.598L1634 6l2.91-.684c19.837-4.045 41.64-1.482 60.09 6.684M1473.938 358.688l3.607.014c15.693.207 30.523 2.212 44.451 9.966A136 136 0 0 1 1530 374l1.922 1.36c7.933 6.186 13.677 15.23 18.203 24.093 2.328 6.777 2.328 6.777 1.875 10.547-1.735 2.981-4.077 5.194-6.562 7.563l-4.141 4.171-2.154 2.127c-3.408 3.401-6.679 6.925-9.956 10.452l-1.793 1.902-1.664 1.773-1.456 1.548c-1.49 1.648-1.49 1.648-3.274 4.464l-3-1c-.785-1.7-1.56-3.407-2.238-5.152-.799-2.068-.799-2.068-2.45-4.66L1512 431v-2h-2l-1.562-2.125c-3.37-3.975-6.764-6.557-11.438-8.875-10.673-3.674-20.969-5.176-32.227-3.527-4.762.986-8.878 2.168-12.773 5.152-2.958 2.943-4.952 6.124-6.469 10.008-.764 3.405-.422 5.987.598 9.3 1.062 2.52 2.209 4.752 4.106 6.745 8.028 6.011 19.077 7.854 28.659 10.145 12.803 3.081 25.292 6.22 37.106 12.177l3.207 1.602c11.153 6.041 21.025 14.164 28.148 24.707 7.337 12.007 11.518 24.484 11.932 38.612.173 14.735-1.816 30.752-8.783 43.903-8.098 13.41-19.485 24.304-32.902 32.285-12.592 6.873-26.026 10.038-40.29 10.578l-2.914.115c-19.701.653-38.16-2.389-56-11.068-7.331-4.05-13.644-9.683-19.398-15.734v-2h-2c-12.091-22.038-12.091-22.038-13.46-31.023L1384 557c1.993-1.864 3.63-3.064 5.938-4.437l1.948-1.225a379 379 0 0 1 4.475-2.743c3.035-1.835 6.047-3.706 9.06-5.575q3.382-2.076 6.766-4.145l3.33-2.049 3.151-1.896 2.821-1.712C1424 532 1424 532 1428 532l.848 2.527c3.037 8.525 6.395 14.997 13.004 21.215 6.918 5.37 15.646 7.036 24.148 8.258 8.62.96 16.402.232 24.527-2.852 2.915-1.353 5.234-2.831 7.473-5.148l1-2h2c1.787-6.254 2.718-11.827 1.605-18.293-.874-3.368-1.852-5.892-4.234-8.469-8.305-6.66-18.892-9.077-28.996-11.676q-3.475-.922-6.95-1.851c-4.436-1.183-4.436-1.183-8.877-2.355-16.778-4.468-32.44-12.466-44.896-24.653-9.655-10.123-14.899-21.412-18.652-34.703-1.19-5.217-1.191-10.233-1.187-15.562l-.002-2.97c.05-7.015.571-13.621 2.189-20.468h2l.563-3.812c2.049-8.983 7.925-15.895 14-22.563 3.602-3.88 7.25-7.396 11.437-10.625h2v-2c10.086-5.341 19.981-9.913 31-13l1.987-.564c6.63-1.697 13.134-1.782 19.95-1.748M1569 361c1.936-.097 3.876-.122 5.815-.12l3.829-.004 4.24.01h4.433q6.038.001 12.074.013c4.201.006 8.403.006 12.604.008q11.942.005 23.884.021 13.592.016 27.185.022 27.967.016 55.936.05v52h-97v51l13-1a246 246 0 0 1 7.519-.13l3.99-.009 4.163.006q2.188 0 4.376-.003 4.537-.002 9.076.006 5.826.006 11.651-.004 4.497-.005 8.992 0 2.151 0 4.302-.002c1.988-.003 3.977.002 5.965.007l3.428.002L1701 463l1 1c1.79 10.75.898 21.913.563 32.75L1702 516l-79 1-1 47c7.864.09 7.864.09 15.887.184q5.051.06 10.103.123 7.977.099 15.955.19 6.449.073 12.897.156 2.43.03 4.863.056c12.461.135 24.833.698 37.295 1.291v51q-27.513.035-55.025.052-12.776.007-25.552.023-11.14.015-22.28.02-5.893 0-11.788.01-5.557.012-11.115.008-2.993.002-5.984.011c-15.433-.017-15.433-.017-20.256-1.124-1-2-1-2-.886-4.216l.312-2.947c.884-10.396.744-20.81.763-31.236l.026-7.065q.027-7.571.045-15.142.029-10.947.07-21.894a65285 65285 0 0 0 .124-37.68l.105-34.498q.054-17.73.119-35.458.042-11.902.071-23.806.021-7.376.05-14.753.012-3.435.018-6.868.01-4.665.032-9.33v-2.783c.013-2.109.076-4.217.151-6.324zM111.453 9.873l1.993-.005c2.209-.004 4.418 0 6.626.003l4.746-.006q6.448-.005 12.898 0c4.495.003 8.99 0 13.485 0q11.324-.004 22.647.005 13.1.007 26.2-.002 11.24-.007 22.477-.003 6.717.003 13.433-.001 6.314-.004 12.627.005 2.32 0 4.64-.002 3.162-.002 6.322.006l3.578.001C266 10 266 10 269 11c1.22 2.44 1.12 3.999 1.114 6.725v2.972l-.016 3.217-.005 3.287c-.005 3.475-.018 6.95-.03 10.424q-.008 3.528-.014 7.055-.017 8.66-.049 17.32c-5.974 1.991-12.728 1.412-19 1.562l-2.521.066c-13.002.327-26 .407-39.006.4l-2.294-.002q-11.517-.006-23.035-.054-4.364-.017-8.727-.027-3.056-.012-6.11-.033l-3.678-.01-3.234-.016L160 64l-1 1a75 75 0 0 0-.205 4.612l-.061 3.014-.05 3.19c-.02.963-.038 1.925-.057 2.916-.068 3.61-.128 7.22-.19 10.83L158 114h95v55l-95 1c.326 18.53.326 18.53.658 37.06.22 12.606.39 25.21.4 37.819l.006 3.287c-.01 8.274-.081 16.609-1.064 24.834l-1 1c-1.503.098-3.01.128-4.516.13l-2.914.009-3.175-.006-3.249.003q-3.413 0-6.827-.006-5.21-.005-10.423.007-3.313 0-6.626-.004l-3.145.006c-4.82-.016-9.387-.124-14.125-1.139a201 201 0 0 1-1.127-21.718l-.005-3.09c-.004-3.387 0-6.773.003-10.159l-.006-7.32q-.005-8.877 0-17.755.003-7.213.001-14.426v-2.079l-.001-4.18q-.004-19.56.006-39.121.005-16.786-.001-33.573a60277 60277 0 0 1-.004-43.182v-2.066q.002-7.21-.002-14.421-.004-9.693.005-19.384 0-3.564-.002-7.127-.002-4.85.006-9.697l-.007-2.875.008-2.615V15.95C101 14 101 14 102 11c3.368-1.123 5.902-1.126 9.453-1.127M934.554 10.839l2.863-.03 3.103-.012 3.184-.017q3.34-.015 6.68-.02c3.404-.01 6.808-.04 10.212-.073l6.486-.015 3.084-.038c4.074.013 7.153.089 10.954 1.637C983 14 983 14 983.605 15.775c.452 2.549.557 4.963.598 7.552l.06 3.296.049 3.625.062 3.859q.083 5.318.151 10.635l.093 6.81c.546 39.523.535 79.047.51 118.572-.004 8.063 0 16.126.004 24.19q.007 11.873.003 23.744-.003 7.001.001 14.003.004 6.506-.005 13.01 0 2.367.002 4.732c.029 22.712.029 22.712-2.133 29.197-4.771-1.148-7.546-3.035-11.025-6.317l-1.823-1.78-1.958-1.872c-7.667-7.364-15.152-14.915-22.632-22.469a5934 5934 0 0 0-8.308-8.37l-1.853-1.88c-2.898-2.913-5.824-5.69-8.98-8.324-3.86-3.33-7.272-6.983-10.717-10.73-7.853-8.529-16.076-16.657-24.34-24.785-4.575-4.506-9.133-9.03-13.694-13.55a5839 5839 0 0 0-17.33-17.11 3182 3182 0 0 1-14.111-13.96q-2.673-2.649-5.365-5.28a966 966 0 0 1-7.445-7.375l-2.246-2.165c-4.787-4.845-4.787-4.845-5.84-8.084-.28-2.043-.28-2.043-.333-5.949l-.178-3.351-.075-3.337-.09-3.822-.079-4.06-.042-2.095q-.109-5.476-.203-10.953c-.067-3.757-.151-7.513-.24-11.27-.065-2.905-.117-5.81-.164-8.715a545 545 0 0 0-.092-4.155 503 503 0 0 1-.102-5.813l-.065-3.332c.381-3.579 1.557-5.991 3.33-9.097 4.607 2.072 7.947 4.487 11.625 7.937.51.479 1.021.957 1.548 1.449 6.989 6.585 14.029 13.24 20.264 20.551 6.82 7.99 14.467 15.404 22.473 22.192 2.81 2.515 5.441 5.19 8.09 7.871 3.761 3.807 7.568 7.427 11.668 10.871 2.07 1.889 4.004 3.833 5.945 5.852l1.995 2.059a351 351 0 0 1 3.938 4.153c1.757 1.817 3.457 3.515 5.454 5.065 3.271 1.044 3.271 1.044 6 1l-1-3a86 86 0 0 1-.14-4.807l-.018-3-.003-3.286-.015-3.465q-.021-5.685-.027-11.372l-.017-7.888q-.015-7.216-.019-14.433-.007-10.617-.05-21.234c-.025-6.133-.033-12.267-.035-18.4q-.004-3.912-.024-7.825c-.017-3.646-.015-7.292-.008-10.938l-.028-3.275c.023-4.23.05-7.324 1.781-11.224 2.566-2.966 4.388-2.983 8.157-3.014"/><path fill="#E8552C" d="M783 384q.221 7.431.427 14.862.07 2.509.146 5.017c.302 10.161.454 20.31.427 30.476-.021 7.904.028 15.798.219 23.7l.209 8.718c.647 27.7.657 55.396.635 83.102l-.003 3.162q-.018 19.481-.06 38.963l-4 2 .016 1.683c.13 16.153-.417 32.15-1.016 48.317H566l-8-18c-1.67-3.433-3.34-6.819-5.125-10.187l-1.367-2.597c-5.242-9.806-11.09-19.245-16.946-28.692a845 845 0 0 1-6.062-9.961l-1.008-1.68C521.572 562.975 515.8 552.978 510 543c-2.476.545-4.037 1.025-6.187 2.438-1.892 2.31-1.892 2.31-2.199 4.438-.669 7.284-.806 14.561-.874 21.872q-.034 3.428-.077 6.857-.088 7.292-.163 14.582-.09 8.438-.192 16.874a2847 2847 0 0 0-.068 6.671l-.05 4.206-.039 3.63c-.221 6.485-.72 12.958-1.151 19.432h-48v-27l40-1-.246-18.25q-.055-5.77-.096-11.54c-.041-6.086-.09-12.173-.186-18.26-.077-4.915-.118-9.829-.136-14.744a410 410 0 0 0-.076-5.587c-.252-12.833 1.603-22.284 7.74-33.619l3 1c1.395 1.87 1.395 1.87 2.813 4.297l1.57 2.656L507 524.75l1.617 2.75q1.5 2.553 2.988 5.112c.987 1.69 2.015 3.355 3.07 5.002C516 540 516 540 516 543h2l1 5h2l1 5h2l.837 1.768c3.934 8.11 8.64 15.656 13.43 23.28l1.846 2.98 1.681 2.679C543 586 543 586 543 589h2l2 7h2l1.172 2.16c3.528 6.493 3.528 6.493 7.203 12.903C559 614 559 614 559 616l2.159-.003c23.047-.032 46.093.074 69.14.205q7.61.043 15.221.084 14.332.079 28.663.16l32.7.18L774 617v-51c-6.66-.605-12.99-1.146-19.62-1.098l-2.38.005q-2.52.006-5.042.018-3.99.019-7.983.024-8.456.018-16.913.051-9.842.037-19.684.056-3.93.01-7.857.032l-4.806.01-2.2.015c-3.428 0-6.154-.273-9.515-1.113v-48h82l-1-52-17.21.035-10.774.014q-8.556.008-17.113.026-6.896.016-13.79.02-2.636.003-5.271.01-3.681.01-7.363.009l-2.217.01c-5.034-.01-5.034-.01-7.262-1.124v-50h95l-1-28c3.873-.968 7.036-1.076 11-1"/><path fill="#FEFEFE" d="M173.875 360.938q2.94.008 5.879.013 7.123.017 14.246.049.07 35.571.104 71.143.014 16.518.047 33.037.03 14.406.037 28.813.003 7.62.023 15.24.02 7.19.015 14.38 0 2.62.012 5.243c.078 18.484-1.526 34.927-9.863 51.769-3.81 6.66-8.987 11.98-14.375 17.375l-1.996 2.031c-9.66 9.14-22.25 14.718-35.004 17.969-6.606 1.1-13.125 1.183-19.812 1.188l-3.08.037c-14.324.027-28.016-3.502-40.858-9.85-8.015-4.658-14.696-11.483-19.625-19.312C43.628 579.084 38 565.722 38 553c8.905-4.668 17.997-8.863 27.188-12.937l3.366-1.506c1.049-.46 2.097-.922 3.176-1.397l2.857-1.261C77 535 77 535 80 535l.7 2.852c1.86 7.992 1.86 7.992 6.05 14.898L89 555v2c1.995.682 3.997 1.344 6 2l2.168.8c7.717 2.657 15.402 3.246 23.45 1.696 3.671-1.082 6.46-2.546 9.695-4.621 3.365-3.6 5.19-7.201 6.687-11.875.912-4.53 1.124-8.824 1.12-13.441l.003-2.206q0-3.641-.01-7.282l.001-5.234q-.001-7.094-.013-14.187-.007-7.418-.008-14.834-.004-14.04-.021-28.08-.016-15.988-.022-31.974-.016-32.88-.05-65.762c11.967-1.13 23.867-1.117 35.875-1.062"/><path fill="#FDFDFD" d="m1025.883 10.839 3.003-.03 3.239-.012 3.329-.017q3.484-.015 6.97-.02c3.562-.01 7.123-.041 10.685-.073q3.383-.009 6.766-.015l3.239-.038 3.003.01 2.644-.011c2.239.367 2.239.367 3.836 1.634C1074 14 1074 14 1074.507 15.93l.173 2.168.194 2.423c.202 3.969.264 7.923.253 11.896l.005 2.742c.004 3.009 0 6.018-.003 9.027l.006 6.503q.004 8.815 0 17.631c-.003 6.176 0 12.352 0 18.527q.004 15.58-.005 31.16-.007 17.925.002 35.85.007 15.446.003 30.892-.003 9.199.001 18.398.004 8.677-.005 17.355 0 3.153.002 6.306c.014 15.085-.43 30.122-1.133 45.191-3.65 1.536-6.35 2.25-10.325 2.243l-3.144.01-3.36-.023h-3.468q-3.621-.006-7.242-.024c-3.711-.019-7.422-.02-11.133-.02q-3.515-.008-7.031-.018l-3.384-.003-3.105-.02-2.747-.011L1017 274l-1-1c-.977-6.053-1.144-11.967-1.134-18.089l-.007-2.996q-.007-4.947-.004-9.895l-.01-7.113q-.014-9.645-.012-19.289 0-6.027-.006-12.055-.014-19.947-.012-39.896v-4.3420000000000005q-.002-17.43-.023-34.86-.023-17.919-.02-35.838.001-10.05-.014-20.103-.014-9.45-.003-18.903.003-3.465-.007-6.931c-.008-3.158-.003-6.316.005-9.474l-.016-2.758c.034-6.262.417-12.765 3.263-18.458 2.922-.974 4.838-1.137 7.883-1.161M743 11c3.003 1.083 4.32 2.356 6.488 4.773q1.424 1.791 2.824 3.602l1.556 1.976c5.025 6.42 9.885 12.964 14.758 19.5 5.839 7.814 11.834 15.397 18.437 22.587 10.898 12.334 10.898 12.334 12.676 19.567.279 3.223.317 6.358.261 9.593l.033 3.782c.03 3.49.009 6.977-.02 10.467-.022 3.78.002 7.559.02 11.339.026 7.038.02 14.077-.002 21.115-.03 9.376-.031 18.752-.019 28.128l.003 2.04.011 8.313c.047 32.406.027 64.812-.026 97.218-3.378 1.69-7.21 1.163-10.926 1.168l-2.723.01q-2.865.007-5.732.007c-2.882.002-5.763.02-8.644.04-21.005.065-21.005.065-28.975-2.225-1.238-2.476-1.205-4.273-1.311-7.043l-.125-3.162-.117-3.428-.128-3.55c-.39-11.566-.467-23.123-.464-34.695l-.01-6.75q-.014-9.027-.012-18.052-.002-5.651-.006-11.303-.013-18.732-.012-37.465v-4.0489999999999995q-.002-16.34-.023-32.681-.023-16.852-.02-33.706.001-9.434-.014-18.866-.014-8.84-.003-17.681.003-3.242-.007-6.485c-.008-2.948-.003-5.896.005-8.844l-.016-2.593c.027-4.613.498-8.304 2.263-12.647"/><path fill="#E9552C" d="M333.75 421.188c5.122 2.13 9.788 4.51 14.25 7.812v2l1.75.75c2.58 1.433 4.311 3.034 6.25 5.25v2h2c8.746 11.45 13.08 24.84 15 39 .276 3.776.335 7.527.313 11.313l-.018 3.046c-.215 13.255-3.14 25.828-9.295 37.641-6.069 9.75-13.91 18.025-23.824 23.906-9.029 4.539-17.659 6.418-27.707 6.305-9.966-.606-19.017-3.961-27.469-9.211-11.252-8.548-18.473-19.157-24-32-5.04-14.587-5.604-30.938-2.75-46.062 3.268-14.058 8.877-26.305 18.258-37.36 6.96-7.2 15.517-12.813 25.129-15.652 10.343-2.476 22.07-2.188 32.113 1.262M1098 423c10.594 5.682 18.83 13.288 25.313 23.375 7.034 12.017 10.999 25.71 11.687 39.625l.16 2.95c.407 14.375-2.657 28.24-9.16 41.05-2.723 4.265-5.71 8.159-9 12l-1.71 2.05c-5.9 6.49-13.986 10.99-22.227 13.825-8.693 2.646-17.112 2.983-26 1-11.325-3.164-19.832-8.558-28.063-16.875l-1.895-1.793c-7.795-7.972-12.49-19.14-15.605-29.707-3.414-14.052-2.817-30.237.52-44.242 1.593-5.295 3.578-10.281 5.98-15.258l1.117-2.39c4.313-8.508 10.987-15.837 18.79-21.301 15.55-9.719 32.89-11.427 50.093-4.309"/><path fill="#923824" d="M957 383c6 0 6 0 8 1l-.007 2.7q-.03 12.601-.045 25.204-.007 6.478-.023 12.957-.016 6.254-.02 12.508-.003 2.385-.01 4.768a1926 1926 0 0 0-.009 6.686l-.006 3.842c.105 2.927.533 5.482 1.12 8.335-.249 2.835-.563 5.62-.937 8.438-3.054 26.032-1.262 51.58 8.687 75.968 8.364 19.35 21.667 38.431 38.25 51.594l3 2v2l2.105.297c3.437.835 6.096 2.271 9.207 3.953 7.605 3.968 15.438 6.48 23.688 8.75l1.938.544c15.812 4.24 34.293 4.038 50.095-.005 17.284-4.737 32.68-12.36 45.967-24.539l2.73-2.484c15.509-14.787 27.786-33.982 33.88-54.576 4.5-16.383 5.702-32.546 5.515-49.44q-.016-2.42-.027-4.84A2263 2263 0 0 0 1190 467c2.526 2.363 3.888 3.665 5 7l1-2h2l-.007 2.114q-.03 9.95-.045 19.9a5566 5566 0 0 1-.023 10.225c-.014 3.935-.018 7.87-.023 11.804l-.015 3.641c0 6.883.296 13.653.956 20.506.229 4.102-.438 7.734-1.468 11.685l-.566 2.309A320 320 0 0 1 1195 561l-1.031 3.816c-5.207 17.24-14.55 32.389-25.969 46.184l-1.395 1.69c-11.152 13.31-24.453 22.947-40.699 29.103-19.283 6.831-38.767 8.685-58.906 5.207-17.605-3.518-33.298-10.685-46.863-22.492-17.613-16.79-29.688-39.304-41.137-60.508l-2.035-3.734c-1.672-3.08-3.32-6.172-4.965-9.266l-1.281-2.293c-2.501-4.618-3.344-8.458-3.719-13.707h-2v109h-51l-1-27 43-1z"/><path fill="#913824" d="m498 514 3 1c1.395 1.87 1.395 1.87 2.813 4.297l1.57 2.656L507 524.75l1.617 2.75q1.5 2.553 2.988 5.112c.987 1.69 2.015 3.355 3.07 5.002C516 540 516 540 516 543h2l1 5h2l1 5h2l.837 1.768c3.934 8.11 8.64 15.656 13.43 23.28l1.846 2.98 1.681 2.679C543 586 543 586 543 589h2l2 7h2l1.172 2.16c3.528 6.493 3.528 6.493 7.203 12.903C559 614 559 614 559 616l2.159-.003c23.047-.032 46.093.074 69.14.205q7.61.043 15.221.084 14.332.079 28.663.16l32.7.18L774 617v-25l7 2c.158 16.708-.38 33.283-1 50H566l-8-18c-1.67-3.433-3.34-6.819-5.125-10.187l-1.367-2.597c-5.242-9.806-11.09-19.245-16.946-28.692a845 845 0 0 1-6.062-9.961l-1.008-1.68C521.572 562.975 515.8 552.978 510 543c-2.476.545-4.037 1.025-6.187 2.438-1.892 2.31-1.892 2.31-2.199 4.438-.669 7.284-.806 14.561-.874 21.872q-.034 3.428-.077 6.857-.088 7.292-.163 14.582-.09 8.438-.192 16.874a2847 2847 0 0 0-.068 6.671l-.05 4.206-.039 3.63c-.221 6.485-.72 12.958-1.151 19.432h-48v-27l40-1-.246-18.25q-.055-5.77-.096-11.54c-.041-6.086-.09-12.173-.186-18.26-.077-4.915-.118-9.829-.136-14.744a410 410 0 0 0-.076-5.587c-.252-12.833 1.603-22.284 7.74-33.619"/><path fill="#E9552C" d="M620 409h3v201h-2l-1.031-1.866c-12.104-21.863-24.597-43.472-38.047-64.54-3.716-5.823-7.351-11.696-10.964-17.584a606 606 0 0 0-8.74-13.83l-1.853-2.882a397 397 0 0 0-3.58-5.46l-1.594-2.494-1.431-2.182L553 497c.924-3.396 2.43-5.833 4.688-8.496l1.604-1.924 1.708-2.017c4.95-5.941 9.595-11.99 13.928-18.397.978-1.421 2.019-2.799 3.072-4.166h2l1-4h2l.703-1.617c1.69-3.104 3.841-5.763 6.047-8.508l2.973-3.742 1.602-2.015c2.98-3.769 5.919-7.57 8.862-11.368 4.405-5.675 8.834-11.324 13.36-16.902 1.226-1.56 2.353-3.197 3.453-4.848"/><path fill="#923925" d="M434 471h2c.97 20.644 1.092 41.259.804 61.922q-.054 3.953-.093 7.904c-.04 3.743-.099 7.486-.164 11.229l-.03 3.43-.069 3.179c-.02 1.37-.02 1.37-.043 2.768-.489 3.098-1.683 4.969-3.405 7.568a566 566 0 0 0-2.65 5.417c-8.209 17.01-18.853 32.282-32.163 45.708l-1.596 1.614c-3.297 3.235-6.618 5.892-10.591 8.261h-2v2c-18.935 11.101-37.696 16.33-59.625 16.5-17.843-.15-34.45-3.826-50.167-12.488-17.143-10.146-30.114-26.602-39.927-43.66C228 580.823 228 580.823 228 577c3 1 3 1 4.824 2.777l1.863 2.16 1.887 2.153L238 586v2l1.625.625c3.295 1.908 5.969 4.423 8.375 7.375v2l4 1v2h3v2l2.246.363c2.694.623 4.44 1.452 6.817 2.824C282.23 615.53 302.859 617.948 323 617c10.49-.773 20.143-3.509 30-7l3.188-1.121C368.79 604.036 379.358 596.353 389 587l1.969-1.746c14.16-13.029 25.551-32.688 31.339-50.864 4.938-17.049 6.915-33.396 6.565-51.083l-.033-3.116-.051-2.806C429 475 429 475 431 472l1 4z"/><path fill="#913824" d="m1374 385 9 3 .013 2.596q.155 31.3.326 62.6.084 15.135.158 30.272.065 13.197.14 26.394.04 6.984.072 13.968.03 6.582.071 13.163.014 2.408.023 4.816c.029 7.45.07 14.84 1.005 22.243 1.269 12.873-4.217 28.426-9.343 40.05-5.734 11.346-13.895 21.968-24.09 29.648-10.025 6.557-21.62 11.076-33.375 13.25l-2.96.555c-5.992.816-12.068.67-18.102.695-1.852.03-1.852.03-3.74.063-15.858.066-30.295-3.912-44.26-11.375-11.143-6.821-19.629-16.718-25.964-28.06C1216 595.433 1216 595.433 1216 589h2a122 122 0 0 1 3.938 5c6.078 7.554 12.894 12.79 21.75 16.75 19.352 7.469 40.733 9.417 61.25 6.481 14.662-2.532 28.315-8.022 40.062-17.231 10.694-8.93 17.467-19.592 22.715-32.383 5.078-14.292 5.43-29 5.49-44.002l.03-4.557q.04-6.135.068-12.27.035-6.43.076-12.86.074-12.154.138-24.31.076-13.845.16-27.692.17-28.462.323-56.926"/><path fill="#E8552C" d="m1383 429 3 1 1 8h2l.262 2.535c1.687 13.975 5.523 26.868 13.738 38.465 10.092 12.996 22.88 20.699 37.883 27.156 6.417 2.559 13.142 4.244 19.804 6.031a3316 3316 0 0 1 11.186 3.08c19.852 5.521 19.852 5.521 27.127 11.733 2.282 2.795 3.67 4.956 4.75 8.375.694 7.29.125 11.917-2.75 18.625h-2l-.625 1.75c-1.494 2.445-3.06 3.818-5.504 5.3-7.347 3.728-14.612 4.488-22.789 4.298-8.965-.61-18.574-2.336-26.27-7.16-6.376-4.927-10.39-10.56-13.843-17.81-1.13-2.772-1.733-5.393-1.969-8.378-6.239 2.458-11.87 5.699-17.625 9.125l-2.94 1.737c-6.605 3.938-12.92 8.113-19.072 12.724L1386 557l-3-1z"/><path fill="#923824" d="M200.25 385.438 202 386c.83 12.976 1.159 25.9 1.13 38.903-.005 2.952 0 5.904.007 8.857q0 2.849-.004 5.697l.006 2.642c-.017 4.414-.25 8.555-1.139 12.901h2l-.184 1.655c-2.01 18.594-2.515 37.016-1.084 55.676.199 2.776.35 5.284-.232 8.019-.564 2.992-.516 5.633-.379 8.673l.148 3.56.168 3.792c2.042 53.567 2.042 53.567-10.03 76.676-6.407 10.682-14.719 19.628-25.489 25.941-6.899 3.725-14.383 5.957-21.918 8.008l-2.922.809c-15.394 3.466-31.77 1.357-46.762-2.84-10.495-3.403-20.173-8.863-27.738-17.016C59.04 617.387 53.995 604.874 50 592c3 1 3 1 4.578 2.637l1.672 2.05c7.75 9.02 15.947 13.53 27.2 17.543 15.59 5.017 34.68 5.97 50.769 2.586C149.37 612.368 161.7 605.066 173 594c.626-.59 1.253-1.18 1.898-1.79 7.184-7.378 12.717-18.739 15.522-28.633 2.59-11.509 2.883-23.25 2.899-34.99l.03-4.706q.038-6.305.056-12.61c.015-4.414.042-8.827.068-13.24q.068-12.5.116-25c.039-9.496.088-18.993.138-28.49q.154-29.27.273-58.541c2.39-.678 3.775-1.044 6.25-.562"/><path fill="#913824" d="m1554 507 .813 1.938L1556 511l3 1a75 75 0 0 1 2.188 7.563l.537 2.154c.436 1.758.857 3.52 1.275 5.283l2-1c.312-2.55.513-5.004.625-7.562l.117-2.155c.095-1.76.177-3.522.258-5.283h2v90l-2-1c-.594-2.649-.742-5.292-1-8l-1.437 3.625c-6.324 14.19-16.722 28.363-28.563 38.375-12.877 8.65-28.96 13.713-44.383 14.871L1488 649l-2.992.16c-19.165.519-37.737-3.228-54.684-12.258-9.549-5.464-16.561-12.518-22.324-21.902-4.376-7.721-7.98-15.661-11-24h2a63 63 0 0 1 2.938 3.5c7.04 8.235 15.994 13.699 26.062 17.5 20.315 7.05 42.44 9.103 63.722 5.466 15.537-3.178 29.294-10.07 41.278-20.466 8.957-7.972 16.09-17.572 20-29 5.435-19.06 6.604-36.628 2-56a485 485 0 0 1-1-5"/><path fill="#923925" d="M1724.688 592.438 1727 593q.037 6.073.055 12.146.012 3.038.033 6.077c.04 10.95-.463 21.846-1.088 32.777-30.095.602-60.187 1.102-90.289 1.122q-3.901.003-7.804.01c-16.667.028-33.256-.366-49.907-1.132l-1-27h142v-24c3-1 3-1 5.688-.562M842 517l28.938-.062 9.148-.028 7.129-.008 3.78-.015h3.567l3.116-.007L900 517l1 1c.087 1.927.107 3.857.098 5.785l-.01 3.545-.025 3.732-.014 3.745q-.018 4.597-.049 9.193c-6.036.883-11.874 1.134-17.969 1.098l-2.79-.005c-2.914-.005-5.827-.018-8.741-.03q-2.98-.009-5.96-.014-7.27-.017-14.54-.049l.007 3.752q.03 17.46.045 34.92.007 8.978.023 17.955.016 8.655.02 17.312.003 3.31.01 6.62.01 4.62.009 9.24l.01 2.794A218 218 0 0 1 851 644l-1 1c-1.572.1-3.148.13-4.723.133l-3.039.006-3.3-.014-3.358-.006c-11.545-.059-23.049-.567-34.58-1.119l-1-27 41-1z"/><path fill="#923824" d="M783 384q.219 7.596.427 15.192.072 2.57.146 5.14c.352 12.226.49 24.437.427 36.668l-2-1c-2.93-.093-5.835-.126-8.764-.114h-2.75c-3.008 0-6.017.009-9.025.016l-6.247.005q-8.23.006-16.463.024-8.394.014-16.79.02c-10.987.01-21.974.029-32.961.049v23l-9 1-2-1v-50h95l-1-28c3.873-.968 7.036-1.076 11-1M333.75 421.188c5.122 2.13 9.788 4.51 14.25 7.812v2l1.75.75c2.58 1.433 4.311 3.034 6.25 5.25v2h2c8.3 10.865 12.495 23.332 14.738 36.73C373 478 373 478 373 482h-2l-.664-2.309c-2.522-8.213-5.335-14.925-11.664-20.882-7.594-6.325-14.829-10.064-24.465-12.27-8.5-1.429-16.858-1.04-25.16 1.29-10.127 3.894-19.252 10.573-26.285 18.784-7.63 9.681-13.896 20.422-16.332 32.617-1.193 10.465-1.873 21.702 1.57 31.77-3.806-3.101-5.133-7.554-6.86-11.982-4.992-13.271-5.635-28.245-3.605-42.252 2.895-15.5 8.726-29.112 18.973-41.188 6.96-7.2 15.517-12.813 25.129-15.652 10.343-2.476 22.07-2.188 32.113 1.262"/><path fill="#923924" d="M622 373c1.124 3.371 1.13 5.944 1.133 9.496l.004 3.881-.007 2.02c-.005 2.03 0 4.06.007 6.09l-.004 3.884-.004 3.56c-.107 2.556-.376 4.642-1.129 7.069h-2l-.656 1.566c-1.9 3.442-4.36 6.335-6.844 9.372q-1.64 2.026-3.277 4.054l-1.652 2.046a471 471 0 0 0-6.634 8.524 1168 1168 0 0 1-12.36 15.858c-1.957 2.48-3.824 4.95-5.577 7.58h-2l-1 4h-2l-.621 2.027c-1.88 4.054-4.575 7.134-7.442 10.536-4.968 5.981-9.7 12.055-14.23 18.375L554 495h-2l-1.437-3.062c-1.474-3.007-3.11-5.845-4.903-8.668l-1.258-2.002a236 236 0 0 0-2.58-3.987c-1.19-1.89-1.19-1.89-2.822-5.281 1.108-3.02 2.97-5.478 4.871-8.055l1.723-2.34 1.843-2.48 1.904-2.571a753 753 0 0 1 15.337-19.889c1.807-2.276 3.598-4.565 5.39-6.853 4.777-6.1 9.602-12.16 14.45-18.204q5.054-6.31 10.044-12.67l1.346-1.715q3.566-4.547 7.12-9.106l1.507-1.93q1.428-1.826 2.85-3.658c5.457-6.979 5.457-6.979 9.115-8.716C619 373 619 373 622 373"/><path fill="#923925" d="M1098 423c10.594 5.682 18.83 13.288 25.313 23.375 5.582 9.536 9.988 20.817 10.87 31.938.004 1.563-.077 3.127-.183 4.687h-2l-.34-1.766c-1.956-8.131-6.055-14.096-11.66-20.234-6.956-6.207-15.246-11.209-24.312-13.613-9.086-1.308-19.382-1.35-28.149 1.523-10.451 4.486-19.049 11.884-25.913 20.893-7.887 10.983-12.8 22.747-14.626 36.197-.303 5.763.012 11.32 1 17h-2q-1.227-3.56-2.437-7.125l-.698-2.016c-4.629-13.686-4.275-29.979-1.678-44.109 1.568-6.577 3.877-12.668 6.813-18.75l1.117-2.39c4.313-8.508 10.987-15.837 18.79-21.301 15.55-9.719 32.89-11.427 50.093-4.309M1719 388h8q.037 10.654.055 21.307.008 3.628.02 7.255.017 5.201.023 10.403l.015 3.298v3.034l.007 2.685L1727 438l-1 1c-2.86.125-5.697.186-8.559.205l-2.72.03q-4.47.047-8.944.081l-6.183.063q-8.156.082-16.31.153-8.316.077-16.63.161-16.327.161-32.654.307l1 23-13 1v-51h97z"/><path fill="#923924" d="M957 383c6 0 6 0 8 1l-.007 2.7q-.03 12.601-.045 25.204-.007 6.478-.023 12.957-.016 6.254-.02 12.508-.003 2.385-.01 4.768a1926 1926 0 0 0-.009 6.686l-.006 3.842c.105 2.927.533 5.482 1.12 8.335-.249 2.835-.563 5.62-.937 8.438-1.857 15.868-1.467 31.557.313 47.419l.284 2.616.27 2.289c.07 2.238.07 2.238-.418 4.567-.503 2.624-.635 4.971-.632 7.638l-.004 2.953.01 3.204v3.401c0 3.707.009 7.413.016 11.12l.005 7.713q.005 9.11.021 18.221.017 11.392.023 22.786c.01 13.545.03 27.09.049 40.635h-51l-1-27 43-1z"/><path fill="#923925" d="M1497 417c4.05 2.277 7.679 4.743 11 8 1.29 2.25 1.29 2.25 2 4h2c1.473 2.047 1.473 2.047 3.063 4.75l1.597 2.672c1.168 2.248 1.872 4.106 2.34 6.578h2c1.4-1.346 1.4-1.346 2.875-3.187 3.759-4.426 7.674-8.683 11.628-12.934a386 386 0 0 0 10.974-12.367L1548 413h2l.55 3.078.367 2.002q.398 2.186.78 4.373c.816 4.523 2.02 8.642 3.553 12.985.754 2.882.754 2.882.75 5.562-2.35 3.814-5.48 6.286-9 9q-1.918 1.644-3.812 3.313c-.96.815-.96.815-1.938 1.648a121 121 0 0 0-5.312 5.14l-1.626 1.663a368 368 0 0 0-3.188 3.325c-1.32 1.36-2.717 2.642-4.124 3.911h-3l-.41-2.09c-1.442-6.293-3.375-11.02-7.563-15.969-4.743-4.542-10.709-7.293-17.027-8.941-9.954-2.031-20.086-1.537-29.898.934-4.818 1.656-8.939 4.162-13.102 7.066-4.295-2.497-7.282-4.972-10.016-9.152-1.652-3.101-2.045-5.33-1.984-8.848 1.085-4.234 2.892-7.623 5.629-11.023 3.64-3.602 7.137-5.517 12.059-6.914 11.886-2.38 24.017-1.61 35.312 2.937"/><path fill="#B73721" d="M800 154a151 151 0 0 1 3.425 3.408 68 68 0 0 0 3.44 3.231c2.102 2.021 3.655 3.843 5.135 6.361.947 4.512.83 8.89.703 13.484q-.017 2.026-.027 4.053a775 775 0 0 1-.168 10.938c-.072 3.818-.104 7.637-.14 11.455-.075 7.222-.186 14.443-.31 21.664-.138 8.224-.237 16.45-.332 24.674-.198 16.912-.45 33.822-.726 50.732h-53l-1-22-2-6-2-1h47l-1-2c-.1-2.054-.13-4.112-.133-6.168l-.004-2.033c-.002-2.329.005-4.658.012-6.986l.003-2.47c.041-33.781.652-67.565 1.122-101.343"/><path fill="#923925" d="M760 486h8c1 11.828 1.12 23.573 1.063 35.438q-.008 2.715-.014 5.431-.017 6.566-.049 13.131c-8.607 1.233-17.176 1.127-25.848 1.098l-4.871-.005q-6.37-.006-12.739-.024-6.516-.014-13.032-.02-12.756-.016-25.51-.049l1 2a75 75 0 0 1 .098 4.57l-.01 2.715-.025 2.84-.014 2.863q-.02 3.507-.049 7.012h9v2q-3.625.04-7.25.063l-2.066.025c-3.487.017-6.27-.235-9.684-1.088v-48h82z"/><path fill="#923A26" d="M1703 486q3.518.378 7 1l1 1c.093 1.627.117 3.258.114 4.887v3.199l-.016 3.387-.003 3.094c-.006 3.832-.02 7.664-.033 11.495L1711 540l-76 1v23h-13q-.037-10.012-.055-20.026-.008-3.408-.02-6.818a4167 4167 0 0 1-.023-9.777l-.015-3.1v-2.851l-.007-2.523.12-1.905 1-1c2.464-.095 4.9-.126 7.365-.114h2.336c2.56 0 5.119.009 7.678.016l5.31.005q7 .006 14.001.024 7.138.014 14.277.02 14.017.016 28.033.049l-.016-2.646q-.025-4.845-.039-9.69-.008-2.099-.02-4.198a1698 1698 0 0 1-.023-6.025l-.016-3.665L1702 487z"/><path fill="#923824" d="M1405 484c3.231 1.422 5.36 3.168 7.875 5.625 5.739 5.2 12.242 8.898 19.125 12.375l2.282 1.172c8.401 4.08 17.183 6.437 26.156 8.89 31.153 8.612 31.153 8.612 38.562 14.938 2.282 2.795 3.67 4.956 4.75 8.375.341 3.58.368 7.026.25 10.625l-1 2c-4.098-1.31-7.993-2.851-11.937-4.562-7.24-3.025-14.72-5.123-22.264-7.237-33.379-9.379-33.379-9.379-42.424-17.889A113 113 0 0 1 1422 513l-2.312-2.965c-5.97-8.159-10.392-16.916-14.688-26.035"/><path fill="#8F3E29" d="M1255 385c6.152.684 6.152.684 8 1l1 1c.103 2.09.134 4.183.138 6.275l.009 2.009q.011 3.356.01 6.713l.016 4.794q.017 5.175.026 10.349c.01 5.454.031 10.908.053 16.361.062 15.512.116 31.024.15 46.536q.027 12.84.087 25.68c.021 4.533.037 9.066.04 13.598q.003 6.398.044 12.794.01 2.348.005 4.696c-.003 2.138.011 4.275.03 6.412l.01 3.625c.424 3.502 1.298 5.342 3.382 8.158 2.572 2.275 2.572 2.275 5 4-3.768-.777-6.274-2.205-9.328-4.496-4.04-3.633-5.713-8.29-7.36-13.317-2.59-8.407-2.46-17.428-2.441-26.143l-.006-3.174q-.004-5.163.002-10.327 0-3.641-.003-7.282-.002-7.637.006-15.274.006-9.659-.004-19.317c-.04-51.749-.04-51.749 1.134-74.67"/><path fill="#923925" d="M849 384v79l-8-1v-77c5-1 5-1 8-1"/><path fill="#8F3D28" d="m492 384 8 1a35326 35326 0 0 1 .573 23.874q.105 4.372.208 8.743l.067 2.694c.06 2.563.106 5.126.152 7.689l.072 2.736.047 2.674.053 2.394c-.3 3.835-1.926 6.128-4.047 9.321l-1.105 1.742c-.935 1.428-1.97 2.788-3.02 4.133h-2c-.206-46.384-.206-46.384 1-67"/><path fill="#C84924" d="m1554 507 .813 1.938L1556 511l3 1a75 75 0 0 1 2.188 7.563l.537 2.154c.436 1.758.857 3.52 1.275 5.283l2-1c.312-2.55.513-5.004.625-7.562l.117-2.155c.095-1.76.177-3.522.258-5.283h2v90l-2-1c-1.46-7.36-1.06-15.097-.937-22.562.076-8.191-.283-16.115-1.347-24.233-.866-6.759-.913-13.389-.716-20.205h-2l-1 4h-1c-.08-.589-.16-1.178-.244-1.785q-.561-4.076-1.131-8.153l-.383-2.806A189 189 0 0 0 1554 507"/><path fill="#C45033" d="M435 437h2v34h-3l-.375 2.438L433 476l-2 1c-2-2-2-2-2.518-3.816l-.369-2.176-.404-2.387c-.13-.824-.262-1.647-.397-2.496l-.431-2.473-.393-2.394-.358-2.183C426 457 426 457 427 453l3 8 .367-1.828.508-2.422.492-2.39c.633-2.36.633-2.36 1.664-4.298 1.236-2.63 1.388-4.922 1.594-7.812l.227-2.984z"/><path fill="#CA7558" d="M1635 563q12.22-.035 24.44-.052 5.678-.007 11.356-.023c16.09-.048 32.145-.095 48.204 1.075v2c-17.22.088-34.43-.172-51.646-.464l-10.985-.18q-10.685-.176-21.369-.356z"/><path fill="#B83721" d="M965 524h2l.813 3.121c3.67 13.535 9.13 25.778 16.187 37.879l-4 1a2988 2988 0 0 1-7.03-13.184 300 300 0 0 0-2.357-4.312c-2.486-4.594-3.246-8.372-3.613-13.504l-3-1q-.04-2.22-.062-4.437l-.036-2.497L964 525z"/><path fill="#C3422B" d="M621 617h11c.612 7.684 1.133 15.29 1 23l-2 1v-2l-2-1a169 169 0 0 1-1.367-4.898c-.932-3.094-2.28-5.963-3.633-8.891-1.073-2.372-2.033-4.794-3-7.211"/><path fill="#C54823" d="M1196 447h2v25h-2l-1 3c-1-3-1-3-.66-5.043L1196 464l-4-1-1-8 4-1zm-9 4c2.004 3.006 3.03 5.592 4.188 9l1.105 3.188L1193 466l-1 3c-1.426-1.16-1.426-1.16-3-3-.73-2.559-.73-2.559-1.187-5.437-.16-.948-.318-1.895-.481-2.872C1187 455 1187 455 1187 451"/><path fill="#B83721" d="M1566 555h2v46l-2-1c-2.881-14.488-.734-30.37 0-45"/><path fill="#DB4F28" d="M1389 415h2l-.184 1.73c-.731 7.082-1.293 14.17-1.816 21.27h-2c-2.816-6.787-3.369-12.689-3-20l5-1z"/><path fill="#C84924" d="M785 592v24h-4v-22l-2-1c2.076-.553 3.844-1 6-1"/><path fill="#C494B7" d="M920 683h2c.314 4.943.348 8.89-1.562 13.5-5.474 10.872-13.877 17.396-23.438 24.5l-2.426 1.82L893 724c1.51-3.677 3.649-5.719 6.625-8.312.895-.792 1.79-1.583 2.71-2.399a193 193 0 0 1 4.892-4.078c5.261-4.287 9.156-8.883 11.773-15.211.704-3.682.986-7.254 1-11"/><path fill="#CE6237" d="M298 359h3v2l-3-1zm0 1-1 2c-2.851.899-5.67 1.698-8.562 2.438-5.97 1.55-11.695 3.306-17.438 5.562l-1-2q4.124-1.724 8.25-3.437l2.355-.987 2.286-.947 2.094-.873c4.444-1.668 8.255-1.848 13.015-1.756m-30 9h2l-1 2zm-2 1h2l-1 2z"/><path fill="#F88D6A" d="M619 362h4c.285 3.379.445 6.631 0 10-2.312 2.125-2.312 2.125-5 3h-3l.875-2.062c2.203-5.33 2.203-5.33 3.125-10.938"/><path fill="#C84924" d="M202 518h2l4 16-3-1-1-6h-2c-.879-6.152-.879-6.152-1-8z"/><path fill="#C06750" d="M1499 552h2v2h-2zm-2 2h2l-2 4-2-2zm-4 3h2c-.5 1.813-.5 1.813-2 4-3.602 1.86-6.938 3-11 3v-2l1.645-.586 2.168-.789 2.144-.773c2.29-.879 2.29-.879 5.043-2.852"/><path fill="#85301A" d="m499 434 2 4-2-1zm-1 4h2l-1 3-2-2zm-2 3h2l-1 3-2-2zm-5 2 2 3h2l-2 5h-2zm3 1h2l-1 2z"/><path fill="#C34E2A" d="M1384 566h2l7 17-3-1c-1.605-2.582-1.605-2.582-3.187-5.812l-1.606-3.208C1384 570 1384 570 1384 566"/><path fill="#E97950" d="M778 579h2l1 14h-5l-1-2h2z"/><path fill="#C84924" d="M968 445h2l-3 12-3-1 1-6h2z"/><path fill="#C19DA5" d="m841 672 2 2c2.856.383 5.689.507 8.566.656L854 675l1 2q-3.187.079-6.375.125l-3.586.07L842 677l-2-2z"/><path fill="#B64323" d="M1261 549c2.375.75 2.375.75 5 2a89 89 0 0 1 2 4c2.534 2.228 2.534 2.228 5 4-3.026-.608-5.162-1.543-7.687-3.312-.602-.41-1.204-.818-1.825-1.239C1262 553 1262 553 1261.293 550.832z"/><path fill="#E9552C" d="m1192 463 4 1c.125 2.875.125 2.875 0 6l-2 2c-2-5.625-2-5.625-2-9"/><path fill="#963016" d="M1196 472h2v8h-2l-1-3-2-2c1.375-1.5 1.375-1.5 3-3"/><path fill="#A85641" d="M1499 552h2v2h-2zm-2 2h2l-2 4-2-2zm-4 3h2l-1 3-2-2z"/><path fill="#C34E2A" d="M202 449h4l-1 6h-3z"/><path fill="#8D3017" d="m1024 515 3 1 1 7h-2c-1.257-2.906-2-4.796-2-8"/><path fill="#B83721" d="M370 475h2l1 7h-2z"/><path fill="#C84924" d="M1187 451c1.801 2.702 3.002 4.93 4 8l-1 3-2-2c-.414-2.164-.414-2.164-.625-4.625l-.227-2.477z"/></svg>